<?xml version="1.0" encoding="UTF-8"?>
<svg version="1.1" xmlns="http://www.w3.org/2000/svg" width="416" height="376">
<path d="M0 0 C1.02661743 0.50490967 1.02661743 0.50490967 2.07397461 1.02001953 C5.3479113 2.705949 7.04414535 3.75371802 9.125 6.875 C7.23015552 9.72350563 5.30574191 12.55072869 3.375 15.375 C2.83617187 16.18582031 2.29734375 16.99664062 1.7421875 17.83203125 C1.21367187 18.59902344 0.68515625 19.36601562 0.140625 20.15625 C-0.58205566 21.22456055 -0.58205566 21.22456055 -1.31933594 22.31445312 C-1.83270508 22.82943359 -2.34607422 23.34441406 -2.875 23.875 C-7.95481656 23.875 -11.3671726 21.87366808 -15.77148438 19.62695312 C-25.15430832 15.01801685 -34.27432449 13.33151776 -44.6875 13.4375 C-45.73776367 13.44507324 -46.78802734 13.45264648 -47.87011719 13.46044922 C-64.53807868 13.81273412 -79.31934164 19.85051948 -91.875 30.875 C-92.89013672 31.74898437 -92.89013672 31.74898437 -93.92578125 32.640625 C-106.75220875 44.4957308 -115.11865036 62.77460693 -116.1953125 80.140625 C-116.92923488 99.6956262 -111.20636806 117.4644506 -98.2578125 132.41015625 C-94.43719432 136.3623039 -90.35952707 139.70574764 -85.875 142.875 C-84.77478516 143.67357422 -84.77478516 143.67357422 -83.65234375 144.48828125 C-68.76979088 154.36743727 -49.56927339 158.05470817 -32.125 154.8125 C-25.07682379 153.1859978 -18.70691798 150.43474226 -12.17578125 147.3984375 C-8.875 145.875 -8.875 145.875 -5.875 144.875 C-5.875 133.655 -5.875 122.435 -5.875 110.875 C-20.395 110.875 -34.915 110.875 -49.875 110.875 C-49.875 103.285 -49.875 95.695 -49.875 87.875 C-41.87754458 87.76192857 -33.88071301 87.67024529 -25.88267231 87.61593914 C-22.16863057 87.58987159 -18.45516514 87.55452791 -14.74145508 87.49780273 C-11.15580287 87.44337786 -7.57070409 87.41355808 -3.98467064 87.40061378 C-2.61829098 87.39139236 -1.25194081 87.37338419 0.1142025 87.34634972 C10.64992174 87.14619744 10.64992174 87.14619744 15.46386719 89.5246582 C18.22915485 95.10197194 17.81953598 100.85292565 17.75390625 106.96875 C17.75473555 108.36210312 17.75719723 109.75545614 17.76121521 111.14880371 C17.76406892 114.06418424 17.74941582 116.97879468 17.72192383 119.89404297 C17.68784004 123.62342011 17.69386233 127.3514209 17.7125864 131.08086395 C17.72317568 133.95663848 17.71420145 136.83209498 17.69920158 139.70783997 C17.69403334 141.08249465 17.69448508 142.45718274 17.70074654 143.83183289 C17.7062209 145.75577101 17.68292188 147.67972539 17.65844727 149.60351562 C17.6491494 151.24302185 17.6491494 151.24302185 17.6396637 152.91564941 C16.84174718 157.50372263 14.37036514 159.92663806 10.75 162.68359375 C-12.21651514 176.93513663 -36.84965254 183.64100851 -63.8125 178.6875 C-87.99778165 172.99684549 -110.23756427 159.75467863 -124.15625 138.6796875 C-138.30126731 115.59759107 -144.76021075 88.65713092 -138.3125 61.6875 C-131.62173533 36.46254815 -115.78436951 15.00754283 -93.25 1.75 C-63.79005543 -14.78659195 -30.14450058 -14.84886928 0 0 Z " fill="#002459" transform="translate(218.875,141.125)"/>
<path d="M0 0 C8.14510489 -0.090393 16.28981944 -0.16376804 24.43529129 -0.20724869 C28.21762995 -0.22811795 31.99960747 -0.25642248 35.78173828 -0.30175781 C39.43220312 -0.34524074 43.08232076 -0.36914209 46.7330246 -0.37950897 C48.12531754 -0.3868961 49.51759162 -0.40132175 50.90973663 -0.42292023 C52.86053411 -0.45198041 54.81168146 -0.45363412 56.76269531 -0.45410156 C58.42815399 -0.46742523 58.42815399 -0.46742523 60.1272583 -0.48101807 C63.66327929 0.11106091 64.79548144 1.2367299 67 4 C68.26472089 6.52944177 68.13437611 8.28718454 68.14717102 11.11956787 C68.15432632 12.20433914 68.16148163 13.28911041 68.16885376 14.40675354 C68.17154266 15.60251511 68.17423157 16.79827667 68.17700195 18.03027344 C68.18357315 19.28579514 68.19014435 20.54131683 68.19691467 21.83488464 C68.21797924 26.00970172 68.22832862 30.1845192 68.23828125 34.359375 C68.24232982 35.79973622 68.24644678 37.24009724 68.25063133 38.68045807 C68.269699 45.45719193 68.28391902 52.23391488 68.2922433 59.01067042 C68.30198095 66.80822924 68.32820209 74.60550155 68.36874419 82.40295959 C68.39905452 88.44223687 68.41372674 94.48143284 68.41702431 100.52078462 C68.41936059 104.1207336 68.42813082 107.72037715 68.45348549 111.32024384 C68.48142358 115.35267119 68.47689 119.38447374 68.4699707 123.41699219 C68.48278076 124.58846298 68.49559082 125.75993378 68.50878906 126.96690369 C68.40703897 143.35826118 62.5265062 157.88650112 51.2890625 169.83984375 C38.21954095 182.17336835 21.79286089 190.23016283 3.5625 190.25 C1.726875 190.1675 -0.10875 190.085 -2 190 C-2 182.41 -2 174.82 -2 167 C0.5575 166.62875 3.115 166.2575 5.75 165.875 C18.62966857 163.7271563 29.18022719 158.3238831 37.55859375 148.09765625 C43.36188239 139.67686057 44.44711877 129.80744264 44.43237305 119.8371582 C44.4425647 118.78216629 44.45275635 117.72717438 44.46325684 116.64021301 C44.49316899 113.19368021 44.50261943 109.74742631 44.51171875 106.30078125 C44.52858157 103.89510693 44.54673395 101.48944135 44.56611633 99.08378601 C44.61344813 92.7825493 44.64336624 86.48134799 44.66955566 80.17999268 C44.69944623 73.7377626 44.74594729 67.29565424 44.79101562 60.85351562 C44.87685743 48.23572705 44.94275063 35.61795073 45 23 C30.15 23 15.3 23 0 23 C0 15.41 0 7.82 0 0 Z " fill="#002459" transform="translate(2,133)"/>
<path d="M0 0 C126.39 0 252.78 0 383 0 C383 52.14 383 104.28 383 158 C380.03 158 377.06 158 374 158 C374 108.83 374 59.66 374 9 C253.55 9 133.1 9 9 9 C9 47.94 9 86.88 9 127 C6.03 127 3.06 127 0 127 C0 85.09 0 43.18 0 0 Z " fill="#002459" transform="translate(25,0)"/>
<path d="M0 0 C8.38861147 -0.13566488 16.77636742 -0.2456921 25.16578197 -0.31087303 C29.06153876 -0.34216005 32.95650491 -0.38458134 36.85180664 -0.45263672 C40.61254429 -0.51792839 44.37252258 -0.55372583 48.13378334 -0.56926346 C49.56718208 -0.5803327 51.00054016 -0.60194985 52.43361473 -0.63438034 C65.05946845 -0.90868681 65.05946845 -0.90868681 68.37548828 2.18139648 C71.41453161 7.31985135 70.730583 13.92919188 70.69921875 19.68359375 C70.70513515 21.02589041 70.712385 22.36818179 70.72090149 23.71046448 C70.73275242 26.51729928 70.72612551 29.32333969 70.70678711 32.13012695 C70.68391471 35.71285948 70.71067092 39.29321785 70.75184917 42.87571621 C70.77752726 45.64610163 70.77482058 48.4159265 70.76395607 51.18638802 C70.7617626 53.14444908 70.78464085 55.10248694 70.80802917 57.06040955 C70.67846841 66.98376599 70.67846841 66.98376599 67.14038086 71.22241211 C50.3952776 87.43813851 24.60958419 92.50731053 2.20703125 92.2109375 C-14.68907011 91.71026649 -32.43314142 86.43890531 -46.1340332 76.31762695 C-48.10485204 74.8759761 -48.10485204 74.8759761 -50.80932617 73.43823242 C-54.72776224 70.92525037 -58.27310178 68.63113514 -59.57235718 63.92825317 C-60.37857717 57.94141545 -60.00197557 51.94921574 -59.6875 45.9375 C-59.63225265 44.09975608 -59.58207483 42.26185236 -59.53710938 40.42382812 C-59.41657371 35.94523841 -59.22723143 31.4743934 -59 27 C-56.43180791 29.46859461 -54.79488628 31.9127956 -53 35 C-42.60356282 51.51198847 -26.22129908 61.57781628 -7.60546875 66.421875 C12.20157269 70.81684072 26.8784971 65.45670135 45 57 C45.33 45.78 45.66 34.56 46 23 C30.82 23 15.64 23 0 23 C0 15.41 0 7.82 0 0 Z " fill="#002459" transform="translate(306,229)"/>
<path d="M0 0 C2.97 0 5.94 0 9 0 C9 50.82 9 101.64 9 154 C-117.39 154 -243.78 154 -374 154 C-374 139.15 -374 124.3 -374 109 C-369.545 108.01 -369.545 108.01 -365 107 C-365 119.54 -365 132.08 -365 145 C-244.55 145 -124.1 145 0 145 C0 97.15 0 49.3 0 0 Z " fill="#002459" transform="translate(399,222)"/>
<path d="M0 0 C1.33086474 1.09819608 2.60784991 2.26162009 3.86328125 3.4453125 C2.74887473 6.78853205 1.88855782 7.50550869 -0.76171875 9.6953125 C-4.76754216 13.08652402 -8.47892615 16.68464448 -12.13671875 20.4453125 C-13.15378906 19.88263672 -13.15378906 19.88263672 -14.19140625 19.30859375 C-17.16561031 17.67319345 -20.14934516 16.05652287 -23.13671875 14.4453125 C-24.008125 13.96964844 -24.87953125 13.49398437 -25.77734375 13.00390625 C-26.5971875 12.57207031 -27.41703125 12.14023438 -28.26171875 11.6953125 C-29.34839844 11.11523438 -29.34839844 11.11523438 -30.45703125 10.5234375 C-45.78555701 4.35627553 -66.98807561 5.33902234 -82.13671875 11.4453125 C-95.51593054 17.44393754 -105.48417902 25.65851946 -114.13671875 37.4453125 C-114.69230469 38.20199219 -115.24789062 38.95867187 -115.8203125 39.73828125 C-122.67493492 50.08252964 -126.178231 63.30268843 -128.13671875 75.4453125 C-132.87356086 73.60320724 -132.87356086 73.60320724 -134.85546875 72.4140625 C-138.02522566 71.06800135 -140.95939048 71.01071963 -144.38671875 70.8203125 C-145.65 70.74554688 -146.91328125 70.67078125 -148.21484375 70.59375 C-149.66117188 70.52027344 -149.66117188 70.52027344 -151.13671875 70.4453125 C-148.94449843 49.50470048 -142.03326654 31.43223083 -128.13671875 15.4453125 C-127.69328125 14.85878906 -127.24984375 14.27226562 -126.79296875 13.66796875 C-118.00868133 2.28588902 -105.0429711 -4.87593646 -92.13671875 -10.5546875 C-91.21632813 -10.97492188 -90.2959375 -11.39515625 -89.34765625 -11.828125 C-60.9540509 -23.51960956 -24.63310398 -17.92317255 0 0 Z " fill="#002459" transform="translate(369.13671875,147.5546875)"/>
<path d="M0 0 C116.49 0 232.98 0 353 0 C353 46.86 353 93.72 353 142 C352.01 142 351.02 142 350 142 C350 96.13 350 50.26 350 3 C235.49 3 120.98 3 3 3 C3 38.64 3 74.28 3 111 C2.01 111 1.02 111 0 111 C0 74.37 0 37.74 0 0 Z " fill="#002459" transform="translate(39,15)"/>
<path d="M0 0 C0.99 0 1.98 0 3 0 C3 46.2 3 92.4 3 140 C-113.49 140 -229.98 140 -350 140 C-350 129.44 -350 118.88 -350 108 C-349.01 108 -348.02 108 -347 108 C-347 117.57 -347 127.14 -347 137 C-232.49 137 -117.98 137 0 137 C0 91.79 0 46.58 0 0 Z " fill="#002459" transform="translate(389,221)"/>
<path d="M0 0 C3.2586636 1.4264578 5.4024854 3.16704162 7.890625 5.6953125 C8.95410156 6.76845703 8.95410156 6.76845703 10.0390625 7.86328125 C10.76867187 8.60964844 11.49828125 9.35601562 12.25 10.125 C12.99507813 10.87910156 13.74015625 11.63320312 14.5078125 12.41015625 C16.3431342 14.26900772 18.1736191 16.13237005 20 18 C18.54254576 21.36335594 16.68882146 23.54534005 14.0859375 26.109375 C13.32539063 26.86347656 12.56484375 27.61757812 11.78125 28.39453125 C10.9871875 29.17183594 10.193125 29.94914062 9.375 30.75 C8.17230469 31.93916016 8.17230469 31.93916016 6.9453125 33.15234375 C4.96797154 35.10614493 2.98611091 37.05512103 1 39 C-3.8911484 34.93161827 -8.47350753 30.65561922 -12.9375 26.125 C-13.82018555 25.23554688 -13.82018555 25.23554688 -14.72070312 24.328125 C-16.14947674 22.88773534 -17.57508132 21.4442033 -19 20 C-13.17371096 12.84198775 -6.5617015 6.47408234 0 0 Z " fill="#A0875C" transform="translate(396,170)"/>
</svg>
