<?xml version="1.0" encoding="UTF-8"?>
<svg version="1.1" xmlns="http://www.w3.org/2000/svg" width="418" height="378">
<path d="M0 0 C126.72 0 253.44 0 384 0 C384 52.8 384 105.6 384 160 C380.37 160 376.74 160 373 160 C373 110.83 373 61.66 373 11 C253.21 11 133.42 11 10 11 C10 49.94 10 88.88 10 129 C6.7 129 3.4 129 0 129 C0 86.43 0 43.86 0 0 Z M3 3 C3 43.59 3 84.18 3 126 C4.65 126 6.3 126 8 126 C8 87.06 8 48.12 8 8 C129.44 8 250.88 8 376 8 C376 57.17 376 106.34 376 157 C377.65 157 379.3 157 381 157 C381 106.18 381 55.36 381 3 C256.26 3 131.52 3 3 3 Z " fill="#002459" transform="translate(25,0)"/>
<path d="M0 0 C3.63 0 7.26 0 11 0 C11 51.48 11 102.96 11 156 C-115.72 156 -242.44 156 -373 156 C-373 140.49 -373 124.98 -373 109 C-368.05 108.01 -368.05 108.01 -363 107 C-363 119.54 -363 132.08 -363 145 C-243.21 145 -123.42 145 0 145 C0 97.15 0 49.3 0 0 Z M3 3 C3 50.85 3 98.7 3 148 C-118.44 148 -239.88 148 -365 148 C-365 135.79 -365 123.58 -365 111 C-367.475 111.495 -367.475 111.495 -370 112 C-370 125.53 -370 139.06 -370 153 C-245.26 153 -120.52 153 8 153 C8 103.5 8 54 8 3 C6.35 3 4.7 3 3 3 Z " fill="#002459" transform="translate(398,222)"/>
<path d="M0 0 C-0.62054747 3.27957731 -1.78018337 5.41036005 -3.72265625 8.109375 C-4.52993164 9.24052734 -4.52993164 9.24052734 -5.35351562 10.39453125 C-6.19946289 11.56048828 -6.19946289 11.56048828 -7.0625 12.75 C-7.63033203 13.54277344 -8.19816406 14.33554688 -8.78320312 15.15234375 C-10.18339333 17.10555025 -11.58911094 19.05451502 -13 21 C-17.16290362 19.71484955 -20.8517961 18.11902337 -24.6875 16.0625 C-40.42345651 8.14625194 -58.46326242 6.93106251 -75.33984375 12.00390625 C-95.39861487 19.23078812 -109.55965001 31.54883655 -118.71875 50.91015625 C-126.49018246 69.65162904 -127.18916162 88.1599414 -119.75 107.1875 C-111.74678683 125.09945328 -98.70901633 137.02356289 -80.9375 144.875 C-64.24785791 151.25503514 -46.54729393 152.64769631 -29.92578125 145.2421875 C-27.2664126 144.01548485 -24.6400966 142.73291421 -22.01953125 141.42578125 C-19 140 -19 140 -17 140 C-17 129.11 -17 118.22 -17 107 C-31.19 107 -45.38 107 -60 107 C-60 98.75 -60 90.5 -60 82 C-51.87216101 81.88693457 -43.74493566 81.79524861 -35.61652088 81.74093914 C-31.8419499 81.71487018 -28.06794586 81.67952371 -24.29370117 81.62280273 C-20.64969519 81.56838319 -17.00623369 81.53855914 -13.36185265 81.52561378 C-11.97314573 81.51639143 -10.58446785 81.49838147 -9.19599342 81.47134972 C-7.24790256 81.43493929 -5.29926109 81.43295661 -3.35083008 81.43237305 C-2.2427449 81.42126999 -1.13465973 81.41016693 0.00700378 81.39872742 C3.98776719 82.19843571 5.46807512 83.89933176 8 87 C9.04578596 90.13735789 9.1391583 92.36787461 9.16113281 95.66137695 C9.17074036 96.82300858 9.1803479 97.9846402 9.19024658 99.18147278 C9.1966214 101.06584297 9.1966214 101.06584297 9.203125 102.98828125 C9.20882507 104.27937302 9.21452515 105.57046478 9.22039795 106.90068054 C9.23089794 109.63520704 9.2367469 112.36970423 9.24023438 115.10424805 C9.24571192 118.59790787 9.26972776 122.09117656 9.29820633 125.58471394 C9.32138135 128.92756193 9.32328571 132.27035711 9.328125 135.61328125 C9.3404718 136.86345535 9.3528186 138.11362946 9.36553955 139.40168762 C9.33774971 150.24583384 9.33774971 150.24583384 6 155 C-9.98990991 170.30602374 -35.47179503 176.39340955 -56.84106445 176.37280273 C-70.3443552 176.04552751 -83.91862661 173.07452808 -96 167 C-97.06476563 166.48566406 -98.12953125 165.97132813 -99.2265625 165.44140625 C-121.37457534 154.21179318 -138.27186962 134.42186318 -146.23510742 110.9050293 C-154.6984556 84.05545278 -151.93784893 57.33378229 -139.3125 32.375 C-126.67913894 10.49691379 -106.23623662 -6.50136506 -81.7265625 -13.21875 C-52.41388476 -20.73382107 -25.65337877 -15.70415963 0 0 Z M-127 20 C-143.13224744 39.41011445 -149.59490319 64.1665394 -148 89 C-146.10121791 107.82958905 -138.2242513 125.60560071 -126 140 C-125.45730469 140.67546875 -124.91460937 141.3509375 -124.35546875 142.046875 C-110.00637613 159.38676209 -87.3377412 170.75165326 -65 173 C-40.5829518 174.69646985 -17.22695097 168.91270103 2.22265625 153.61328125 C4.65989065 151.40102234 5.92254538 149.74347776 6.26742554 146.43301392 C6.27504913 145.40662811 6.28267273 144.38024231 6.29052734 143.32275391 C6.30328705 142.15789459 6.31604675 140.99303528 6.32919312 139.7928772 C6.33141876 138.53349335 6.33364441 137.2741095 6.3359375 135.9765625 C6.3425943 134.68309906 6.3492511 133.38963562 6.35610962 132.05697632 C6.36808273 129.31822371 6.37179048 126.57959724 6.37060547 123.84082031 C6.37040238 120.3379302 6.39769173 116.8358524 6.43214989 113.33315468 C6.45979026 109.98511188 6.45856877 106.63721792 6.4609375 103.2890625 C6.48249405 101.40605942 6.48249405 101.40605942 6.50448608 99.48501587 C6.4952562 97.72827042 6.4952562 97.72827042 6.48583984 95.93603516 C6.48868988 94.90805817 6.49153992 93.88008118 6.49447632 92.82095337 C5.86654539 89.23865063 4.52966284 87.56995994 2 85 C-1.10333883 83.96555372 -3.22876249 83.87916576 -6.48120117 83.88647461 C-8.16260445 83.88658791 -8.16260445 83.88658791 -9.87797546 83.88670349 C-11.08742325 83.89186478 -12.29687103 83.89702606 -13.54296875 83.90234375 C-14.78170242 83.9037587 -16.0204361 83.90517365 -17.29670715 83.90663147 C-20.58631537 83.91128398 -23.8758746 83.9202661 -27.16546631 83.93133545 C-30.52371623 83.94157371 -33.88197333 83.94613426 -37.24023438 83.95117188 C-43.8268446 83.96220855 -50.41341278 83.9794771 -57 84 C-57 90.6 -57 97.2 -57 104 C-42.81 104 -28.62 104 -14 104 C-14 116.54 -14 129.08 -14 142 C-16.97 142.99 -16.97 142.99 -20 144 C-21.76064601 144.7891653 -23.51095041 145.60181898 -25.25 146.4375 C-32.89683956 149.95483868 -40.54687638 152.4805343 -49 153 C-49.78503906 153.05285156 -50.57007813 153.10570312 -51.37890625 153.16015625 C-70.64705671 153.82061446 -88.17105536 147.04696508 -103 135 C-104.2684375 134.02353516 -104.2684375 134.02353516 -105.5625 133.02734375 C-118.60511475 122.17939975 -125.53604226 104.7315196 -127.6875 88.3125 C-127.80761389 86.87624459 -127.91240965 85.43860518 -128 84 C-128.05285156 83.34257812 -128.10570312 82.68515625 -128.16015625 82.0078125 C-129.00060807 62.64087922 -120.48805601 42.87129885 -107.6875 28.6875 C-95.58486997 15.79700278 -79.13050989 7.41832292 -61.3671875 6.71875 C-45.4668402 6.35786094 -32.87627249 7.94480217 -18.8984375 15.671875 C-16.02496494 17.38758669 -16.02496494 17.38758669 -13 16 C-11.33180165 13.88233888 -9.80929375 11.79456086 -8.3125 9.5625 C-7.89677734 8.96373047 -7.48105469 8.36496094 -7.05273438 7.74804688 C-4.74916612 4.65431873 -4.74916612 4.65431873 -4 1 C-46.15521503 -23.40883859 -94.13558781 -16.51601354 -127 20 Z " fill="#002459" transform="translate(229,147)"/>
<path d="M0 0 C116.82 0 233.64 0 354 0 C354 47.52 354 95.04 354 144 C352.68 144 351.36 144 350 144 C350 98.13 350 52.26 350 5 C236.15 5 122.3 5 5 5 C5 40.64 5 76.28 5 113 C3.35 113 1.7 113 0 113 C0 75.71 0 38.42 0 0 Z " fill="#002459" transform="translate(39,15)"/>
<path d="M0 0 C1.32 0 2.64 0 4 0 C4 46.53 4 93.06 4 141 C-112.82 141 -229.64 141 -350 141 C-350 130.11 -350 119.22 -350 108 C-348.35 108 -346.7 108 -345 108 C-345 117.57 -345 127.14 -345 137 C-231.15 137 -117.3 137 0 137 C0 91.79 0 46.58 0 0 Z " fill="#002459" transform="translate(389,221)"/>
<path d="M0 0 C8.25821812 -0.09044765 16.51604978 -0.16379963 24.77463055 -0.20724869 C28.60962547 -0.22810438 32.44426331 -0.25638415 36.27905273 -0.30175781 C39.98139253 -0.34528908 43.68338934 -0.36915229 47.38596535 -0.37950897 C48.79696869 -0.38688742 50.20795372 -0.40129614 51.61881065 -0.42292023 C53.59814448 -0.45204479 55.57782502 -0.45363467 57.55737305 -0.45410156 C58.68322311 -0.46298401 59.80907318 -0.47186646 60.96903992 -0.48101807 C64.68209561 0.10824963 66.32955061 1.40771314 69 4 C70.27387126 6.54774252 70.13447917 8.34212398 70.14717102 11.19549561 C70.15432632 12.29709518 70.16148163 13.39869476 70.16885376 14.53367615 C70.17154266 15.74813919 70.17423157 16.96260223 70.17700195 18.21386719 C70.18357315 19.48889603 70.19014435 20.76392487 70.19691467 22.07759094 C70.21797973 26.31733945 70.22832849 30.55708836 70.23828125 34.796875 C70.24232977 36.25952422 70.24644672 37.72217325 70.25063133 39.18482208 C70.2696989 46.06620745 70.28391909 52.94758207 70.2922433 59.82898879 C70.30198169 67.7476667 70.32820484 75.66606253 70.36874419 83.58464122 C70.39905085 89.71733596 70.41372639 95.84995062 70.41702431 101.98271871 C70.41936095 105.63855704 70.42813609 109.29409467 70.45348549 112.94985199 C70.48141549 117.04454275 70.47689108 121.13861803 70.4699707 125.23339844 C70.48278076 126.42357071 70.49559082 127.61374298 70.50878906 128.83998108 C70.39733513 147.06467906 63.50710923 160.23367607 51 173 C50.11248047 173.94166016 50.11248047 173.94166016 49.20703125 174.90234375 C35.85177786 187.9038156 16.90283784 192 -1 192 C-1 183.75 -1 175.5 -1 167 C1.0625 166.773125 3.125 166.54625 5.25 166.3125 C19.76087742 164.20395676 30.38465485 157.99697775 39.4921875 146.6015625 C43.71899731 139.30867303 44.44432365 132.17659652 44.43237305 123.88061523 C44.4425647 122.80640823 44.45275635 121.73220123 44.46325684 120.6254425 C44.49325807 117.10310564 44.50263329 113.58104132 44.51171875 110.05859375 C44.52857493 107.60522059 44.54672643 105.15185603 44.56611633 102.69850159 C44.61352012 96.2624276 44.64339188 89.82638845 44.66955566 83.39019775 C44.69940964 76.81409835 44.74592339 70.23811882 44.79101562 63.66210938 C44.87693948 50.77478866 44.94279255 37.88748021 45 25 C30.15 25 15.3 25 0 25 C0 16.75 0 8.5 0 0 Z M3 3 C3 9.27 3 15.54 3 22 C17.85 22 32.7 22 48 22 C47.95961377 36.54356806 47.90245047 51.08680829 47.81609726 65.6301775 C47.77639756 72.38390784 47.74395933 79.1375232 47.72900391 85.89135742 C47.71453885 92.41431826 47.67932409 98.93697954 47.63169098 105.45978355 C47.61690208 107.9431008 47.60896042 110.42646896 47.60811615 112.90983009 C47.60573736 116.39966063 47.57858217 119.88851301 47.54589844 123.37817383 C47.55344398 124.90380196 47.55344398 124.90380196 47.56114197 126.46025085 C47.40569381 137.25250487 44.00637513 146.43736097 36.75 154.5 C26.50396948 163.8145732 15.6986357 167.99086676 2 170 C2 176.27 2 182.54 2 189 C19.26423985 190.06241476 34.74681822 183.02250438 47.7890625 172.02734375 C59.48612296 161.30159397 66.64148409 147.91789742 68 132 C68.14765958 127.95990173 68.15707456 123.92263539 68.16113281 119.88012695 C68.16609772 118.68730103 68.17106262 117.4944751 68.17617798 116.26550293 C68.18821922 113.01573874 68.19572542 109.76601035 68.20018864 106.51622796 C68.20313229 104.48324516 68.20723917 102.45026784 68.21169281 100.41728783 C68.22533308 94.04798293 68.23501998 87.67869072 68.2388947 81.30937225 C68.24338488 73.970846 68.26099148 66.63250513 68.2898953 59.29403526 C68.31151053 53.60806407 68.32159868 47.92214511 68.32293582 42.23613328 C68.32398279 38.84509157 68.32986896 35.45422497 68.34775543 32.0632267 C68.36476793 28.28590313 68.36294793 24.50903555 68.35644531 20.73168945 C68.3656601 19.61209335 68.37487488 18.49249725 68.3843689 17.338974 C68.37879974 16.30872101 68.37323059 15.27846802 68.36749268 14.21699524 C68.36895924 13.32495046 68.3704258 12.43290567 68.3719368 11.51382923 C67.91428599 8.42068009 66.81068323 6.52771552 65 4 C62.31900947 2.65950473 60.26688794 2.8801948 57.26513672 2.88647461 C55.46349564 2.88658791 55.46349564 2.88658791 53.62545776 2.88670349 C52.32335358 2.89186478 51.02124939 2.89702606 49.6796875 2.90234375 C48.33733167 2.90420862 46.99497516 2.9056322 45.65261841 2.90663147 C42.11804325 2.91045122 38.58350913 2.92027688 35.0489502 2.93133545 C31.44279536 2.94156122 27.8366339 2.94613159 24.23046875 2.95117188 C17.15362744 2.96189963 10.07682071 2.97949205 3 3 Z " fill="#002459" transform="translate(1,133)"/>
<path d="M0 0 C8.38860179 -0.09044315 16.77682324 -0.1637971 25.16578197 -0.20724869 C29.0613081 -0.22810547 32.95648277 -0.2563873 36.85180664 -0.30175781 C40.61250058 -0.34528508 44.3728569 -0.36915148 48.13378334 -0.37950897 C49.56711452 -0.38688812 51.00042765 -0.4012982 52.43361473 -0.42292023 C54.44408454 -0.45203957 56.45489555 -0.45363462 58.46557617 -0.45410156 C59.60919113 -0.46298401 60.75280609 -0.47186646 61.93107605 -0.48101807 C65.67039135 0.10507603 67.31491582 1.38656447 70 4 C71.35641061 6.71282122 71.15725407 8.87785802 71.19287109 11.91503906 C71.20893402 13.15682922 71.22499695 14.39861938 71.24154663 15.67803955 C71.25303491 17.04056107 71.26364331 18.40309025 71.2734375 19.765625 C71.27876118 20.45135338 71.28408485 21.13708176 71.28956985 21.84358978 C71.31629899 25.47497947 71.33567232 29.10633485 71.35009766 32.73779297 C71.36342479 35.73908043 71.39125287 38.739686 71.43212891 41.74072266 C71.48152842 45.36762928 71.50622761 48.99391848 71.51332474 52.62114716 C71.52002531 54.00063566 71.53521664 55.38011103 71.55921555 56.75940704 C71.75842365 68.90401377 71.75842365 68.90401377 68.64038086 72.76293945 C49.31695992 89.13469221 23.89265712 95.44289769 -1 94 C-21.35728591 92.11287139 -39.37578503 84.06195512 -55 71 C-55.69714111 70.66726074 -56.39428223 70.33452148 -57.11254883 69.99169922 C-60.2711928 66.65859645 -59.48897984 62.70796582 -59.390625 58.30078125 C-59.38496521 57.35059616 -59.37930542 56.40041107 -59.37347412 55.4214325 C-59.35107148 52.38461056 -59.3008677 49.34896569 -59.25 46.3125 C-59.22994004 44.25457432 -59.21168839 42.19663017 -59.1953125 40.13867188 C-59.15119387 35.09199393 -59.0821393 30.04619657 -59 25 C-56.24304949 27.62699163 -54.63791822 30.26900546 -52.8125 33.625 C-43.4794423 49.79710416 -27.9557823 60.82493623 -10 65.875 C10.84108519 71.02014291 26.0772507 66.46137465 45 57 C45.33 46.44 45.66 35.88 46 25 C30.82 25 15.64 25 0 25 C0 16.75 0 8.5 0 0 Z M3 2 C3 8.6 3 15.2 3 22 C18.18 22 33.36 22 49 22 C48.67 34.21 48.34 46.42 48 59 C26.87263061 69.719033 8.48887808 74.5415154 -14.92480469 67.4140625 C-31.48608996 61.93030529 -45.68934297 51.62981767 -54.90625 36.65234375 C-55.44765625 35.83443359 -55.44765625 35.83443359 -56 35 C-56.33 35 -56.66 35 -57 35 C-57.22427912 39.12520223 -57.38658499 43.24800057 -57.49438477 47.37792969 C-57.53935538 48.77894956 -57.60056332 50.17955386 -57.67895508 51.57910156 C-58.26926867 60.00890229 -58.26926867 60.00890229 -55.17407227 67.60888672 C-52.88967222 69.67644526 -50.60281895 71.35690514 -48 73 C-46.93394531 73.76570313 -45.86789062 74.53140625 -44.76953125 75.3203125 C-21.68445417 89.40922348 3.19892078 95.18560278 29.80883789 88.77099609 C43.0523125 85.27778542 56.67338453 79.16694208 67 70 C68.33913245 67.3217351 68.14933666 65.23584751 68.17700195 62.23681641 C68.18983719 61.02861237 68.20267242 59.82040833 68.21589661 58.57559204 C68.22328354 57.26416229 68.23067047 55.95273254 68.23828125 54.6015625 C68.24235678 53.93540295 68.2464323 53.26924339 68.25063133 52.58289719 C68.27148764 49.05754659 68.28579167 45.53223488 68.29516602 42.00683594 C68.30623487 38.36599461 68.34064031 34.72576374 68.38033772 31.08513832 C68.40648322 28.28499211 68.41485589 25.48499189 68.41844749 22.68473434 C68.42568529 20.69050144 68.45213206 18.69636826 68.47883606 16.70230103 C68.47591049 15.48779266 68.47298492 14.2732843 68.4699707 13.02197266 C68.47877007 11.41885727 68.47877007 11.41885727 68.48774719 9.78335571 C67.87699994 6.29809353 66.75541799 5.15278537 64 3 C60.84665174 1.94888391 58.64487717 1.87929528 55.33520508 1.88647461 C53.59373955 1.88658791 53.59373955 1.88658791 51.8170929 1.88670349 C50.56389755 1.89186478 49.31070221 1.89702606 48.01953125 1.90234375 C46.73640549 1.9037587 45.45327972 1.90517365 44.13127136 1.90663147 C40.72329759 1.91044595 37.31536657 1.92026709 33.90740967 1.93133545 C30.42851337 1.94157257 26.94961015 1.94613402 23.47070312 1.95117188 C16.64711611 1.96189033 9.82356451 1.97947848 3 2 Z " fill="#002459" transform="translate(306,229)"/>
<path d="M0 0 C-0.57881268 3.54822446 -1.82692359 5.18422803 -4.37890625 7.671875 C-5.05244141 8.33574219 -5.72597656 8.99960938 -6.41992188 9.68359375 C-7.12697266 10.36550781 -7.83402344 11.04742187 -8.5625 11.75 C-9.27341797 12.44738281 -9.98433594 13.14476562 -10.71679688 13.86328125 C-12.47130714 15.5824658 -14.23243352 17.29425872 -16 19 C-19.5338936 17.72276879 -22.64843233 16.08173461 -25.85644531 14.13110352 C-41.37854605 4.75227484 -59.3382094 2.7849942 -77 7 C-94.49383848 11.49135776 -108.90930718 22.04227863 -119 37 C-125.91677038 48.78255568 -130.36833497 61.29286888 -131 75 C-133.6998395 73.96770843 -136.19568026 72.88978928 -138.71875 71.46875 C-142.43339 69.80600638 -145.32444702 69.50356382 -149.375 69.3125 C-150.62023437 69.24675781 -151.86546875 69.18101562 -153.1484375 69.11328125 C-154.08945313 69.07589844 -155.03046875 69.03851563 -156 69 C-155.5971749 47.94323337 -147.30693816 27.49707283 -133 12 C-132.11699219 11.02546875 -131.23398438 10.0509375 -130.32421875 9.046875 C-95.97825425 -27.70272782 -39.16858759 -29.80414366 0 0 Z M-131 14 C-142.8926014 28.59214896 -152.49285648 46.8207542 -153 66 C-151.82244141 66.07347656 -151.82244141 66.07347656 -150.62109375 66.1484375 C-149.57050781 66.22320312 -148.51992187 66.29796875 -147.4375 66.375 C-146.40496094 66.44460937 -145.37242187 66.51421875 -144.30859375 66.5859375 C-140.67659842 67.04047293 -137.49064109 67.91715295 -134 69 C-133.72027344 67.79085937 -133.44054687 66.58171875 -133.15234375 65.3359375 C-129.64586156 50.78179825 -124.84584037 38.55502049 -115 27 C-114.278125 26.01 -113.55625 25.02 -112.8125 24 C-103.05275286 12.55534538 -86.93317706 4.40303012 -72 3 C-67.64516448 2.75506784 -63.29871099 2.66373353 -58.9375 2.625 C-57.84928955 2.61098145 -56.7610791 2.59696289 -55.63989258 2.58251953 C-45.37201226 2.64291427 -35.98483587 4.35311601 -27.0625 9.5625 C-23.35388412 11.6994348 -20.00555184 13.39777926 -16 15 C-12.04 11.04 -8.08 7.08 -4 3 C-8.43116259 -5.86232518 -21.39781517 -9.94184075 -30.46020508 -13.04882812 C-65.94592863 -24.45794964 -106.41000307 -14.94383679 -131 14 Z " fill="#002459" transform="translate(374,151)"/>
<path d="M0 0 C3.46629835 1.48653506 5.69022036 3.45722351 8.328125 6.1328125 C9.12734375 6.93847656 9.9265625 7.74414062 10.75 8.57421875 C11.575 9.41597656 12.4 10.25773438 13.25 11.125 C14.09046875 11.97449219 14.9309375 12.82398438 15.796875 13.69921875 C17.86915683 15.79504923 19.93662393 17.89540713 22 20 C17.76183463 25.06623768 13.32591037 29.80038069 8.625 34.4375 C7.66400391 35.39172852 7.66400391 35.39172852 6.68359375 36.36523438 C5.12469121 37.91250332 3.56348584 39.45736492 2 41 C-1.46629835 39.51346494 -3.69022036 37.54277649 -6.328125 34.8671875 C-7.12734375 34.06152344 -7.9265625 33.25585938 -8.75 32.42578125 C-9.9875 31.16314453 -9.9875 31.16314453 -11.25 29.875 C-12.09046875 29.02550781 -12.9309375 28.17601562 -13.796875 27.30078125 C-15.86915683 25.20495077 -17.93662393 23.10459287 -20 21 C-15.76183463 15.93376232 -11.32591037 11.19961931 -6.625 6.5625 C-5.98433594 5.92634766 -5.34367187 5.29019531 -4.68359375 4.63476562 C-3.12469121 3.08749668 -1.56348584 1.54263508 0 0 Z M-1.69580078 5.46875 C-2.35563965 6.1390625 -3.01547852 6.809375 -3.6953125 7.5 C-4.76845703 8.5828125 -4.76845703 8.5828125 -5.86328125 9.6875 C-6.98283203 10.8321875 -6.98283203 10.8321875 -8.125 12 C-8.87910156 12.763125 -9.63320313 13.52625 -10.41015625 14.3125 C-12.27796966 16.20395662 -14.14097267 18.09991362 -16 20 C-12.37068427 24.32883834 -8.65033216 28.46656422 -4.625 32.4375 C-3.75101562 33.30246094 -2.87703125 34.16742188 -1.9765625 35.05859375 C-0.99816406 36.01958984 -0.99816406 36.01958984 0 37 C3.04332765 35.6415798 5.12309151 34.11536976 7.453125 31.7421875 C8.071875 31.11699219 8.690625 30.49179688 9.328125 29.84765625 C9.96234375 29.19667969 10.5965625 28.54570312 11.25 27.875 C11.8996875 27.21628906 12.549375 26.55757812 13.21875 25.87890625 C14.81711727 24.25703357 16.41061897 22.6306719 18 21 C14.38709249 16.70752179 10.70497206 12.5478016 6.75 8.5625 C5.89921875 7.69753906 5.0484375 6.83257812 4.171875 5.94140625 C1.58534255 3.62934397 0.95758055 3.17062992 -1.69580078 5.46875 Z " fill="#002459" transform="translate(396,170)"/>
</svg>
