<?xml version="1.0" standalone="no"?>
<!DOCTYPE svg PUBLIC "-//W3C//DTD SVG 20010904//EN"
 "http://www.w3.org/TR/2001/REC-SVG-20010904/DTD/svg10.dtd">
<svg version="1.0" xmlns="http://www.w3.org/2000/svg"
 width="418.000000pt" height="378.000000pt" viewBox="0 0 418.000000 378.000000"
 preserveAspectRatio="xMidYMid meet">

<g transform="translate(0.000000,378.000000) scale(0.100000,-0.100000)"
fill="#000000" stroke="none">
<path d="M260 3135 l0 -635 50 0 50 0 0 590 0 590 1820 0 1820 0 0 -745 0
-745 45 0 45 0 0 790 0 790 -1915 0 -1915 0 0 -635z m3810 -155 l0 -780 -30 0
-30 0 0 750 0 750 -1835 0 -1835 0 0 -590 0 -590 -30 0 -30 0 0 620 0 620
1895 0 1895 0 0 -780z"/>
<path d="M400 3064 c0 -533 1 -565 18 -562 16 3 17 38 20 546 l2 542 1730 0
1730 0 0 -695 c0 -611 2 -695 15 -695 13 0 15 86 15 715 l0 715 -1765 0 -1765
0 0 -566z"/>
<path d="M1620 2464 c-243 -44 -410 -131 -566 -295 -78 -82 -116 -139 -170
-253 -63 -133 -87 -243 -88 -396 0 -190 40 -336 138 -505 50 -86 227 -266 308
-313 96 -56 214 -103 316 -124 79 -16 121 -19 227 -15 185 7 336 54 479 147
121 80 111 44 111 407 l0 315 -33 29 -32 29 -305 0 -305 0 0 -120 0 -120 220
0 220 0 -2 -167 -3 -168 -70 -37 c-114 -60 -209 -81 -340 -75 -198 8 -339 71
-486 217 -69 68 -94 102 -127 170 -92 187 -104 363 -37 553 61 177 196 332
356 411 110 54 200 76 319 76 120 0 210 -22 318 -76 51 -26 94 -45 95 -43 84
117 127 181 127 189 0 17 -221 119 -305 141 -78 20 -301 35 -365 23z m307 -29
c95 -20 169 -47 263 -95 50 -27 77 -46 73 -54 -4 -6 -29 -42 -57 -81 -27 -38
-50 -71 -50 -72 -1 -1 -40 18 -88 41 -113 56 -186 71 -328 70 -135 -1 -208
-18 -319 -74 -170 -87 -294 -231 -366 -430 -37 -99 -46 -279 -21 -393 55 -246
240 -443 501 -533 71 -25 95 -28 210 -29 145 0 204 14 336 81 l69 34 0 185 0
185 -215 0 -215 0 0 100 0 100 295 0 296 0 24 -25 25 -24 0 -303 c0 -346 7
-317 -99 -388 -175 -117 -386 -169 -606 -149 -393 37 -723 328 -822 725 -23
95 -23 323 0 418 90 361 368 633 723 710 91 19 284 20 371 1z"/>
<path d="M2950 2451 c-352 -77 -626 -332 -723 -671 -14 -47 -28 -109 -32 -137
l-7 -53 64 0 c62 0 137 -24 152 -49 14 -22 26 -10 26 27 1 103 70 277 154 387
56 73 149 153 225 193 104 56 175 74 311 79 163 7 254 -14 373 -86 57 -34 86
-47 97 -41 8 5 47 41 85 80 l70 71 -40 36 c-53 46 -198 116 -310 148 -123 37
-320 44 -445 16z m440 -30 c82 -24 259 -108 302 -144 l28 -23 -73 -72 -72 -72
-36 25 c-129 87 -259 121 -429 112 -196 -11 -336 -72 -470 -207 -120 -120
-184 -236 -216 -393 -9 -39 -17 -73 -19 -75 -2 -2 -18 4 -36 14 -18 9 -62 19
-97 22 l-63 5 6 41 c4 23 15 73 25 113 85 317 361 584 682 658 40 9 78 19 83
21 6 2 78 2 160 0 116 -3 167 -9 225 -25z"/>
<path d="M20 2330 l0 -120 225 0 225 0 0 -552 c0 -348 -4 -567 -10 -590 -37
-131 -212 -270 -360 -285 -97 -9 -90 1 -90 -128 l0 -115 63 0 c224 0 474 156
576 358 63 124 61 103 61 824 0 433 -4 666 -10 679 -25 46 -50 49 -375 49
l-305 0 0 -120z m651 71 l29 -29 0 -619 c0 -365 -4 -645 -10 -683 -27 -170
-170 -355 -341 -439 -88 -43 -164 -65 -261 -76 l-58 -6 0 105 0 106 33 0 c50
0 144 27 201 58 80 44 152 116 188 190 l33 67 3 577 3 578 -226 0 -225 0 0
100 0 100 301 0 301 0 29 -29z"/>
<path d="M3875 1980 l-100 -100 103 -103 102 -102 100 100 100 100 -103 103
-102 102 -100 -100z m195 -15 l85 -85 -90 -90 -90 -90 -87 87 -88 88 87 87
c48 49 90 88 93 88 3 0 43 -38 90 -85z"/>
<path d="M3900 880 l0 -680 -1730 0 -1729 0 -3 142 c-3 127 -5 143 -20 146
-17 3 -18 -10 -18 -162 l0 -166 1765 0 1765 0 0 700 c0 616 -2 700 -15 700
-13 0 -15 -82 -15 -680z"/>
<path d="M4000 835 l0 -725 -1820 0 -1820 0 0 186 0 186 -42 -7 c-24 -4 -46
-9 -50 -12 -5 -2 -8 -105 -8 -229 l0 -224 1915 0 1915 0 0 775 0 775 -45 0
-45 0 0 -725z m70 -50 l0 -755 -1895 0 -1895 0 0 210 c0 116 3 210 8 210 4 0
17 3 30 6 l22 6 0 -186 0 -186 1835 0 1835 0 0 725 0 725 30 0 30 0 0 -755z"/>
<path d="M3070 1370 l0 -120 230 0 230 0 0 -168 0 -169 -87 -41 c-116 -55
-188 -72 -299 -72 -257 0 -510 149 -630 372 l-34 63 0 -207 0 -206 48 -40
c107 -89 244 -159 387 -198 104 -28 359 -26 468 4 150 41 350 152 376 208 15
33 16 617 1 645 -25 46 -50 49 -380 49 l-310 0 0 -120z m654 79 l26 -21 -2
-316 -3 -316 -50 -38 c-156 -119 -347 -179 -560 -179 -225 0 -436 78 -600 223
l-35 30 0 161 0 162 34 -50 c18 -28 67 -82 109 -122 60 -57 99 -83 179 -122
221 -107 414 -108 631 -4 l97 47 -2 180 -3 181 -227 3 -228 2 0 100 0 100 304
0 c292 0 304 -1 330 -21z"/>
</g>
</svg>
