<?xml version="1.0" encoding="UTF-8"?>
<svg version="1.1" xmlns="http://www.w3.org/2000/svg" width="1045" height="728">
<path d="M0 0 C1.55460937 0.74830078 1.55460937 0.74830078 3.140625 1.51171875 C10.7349508 5.37703586 10.7349508 5.37703586 11.78808594 7.85229492 C12.07312524 10.74110919 11.24180088 11.62903805 9.47265625 13.890625 C8.92802734 14.59960938 8.38339844 15.30859375 7.82226562 16.0390625 C7.24154297 16.76867187 6.66082031 17.49828125 6.0625 18.25 C5.48564453 18.99507812 4.90878906 19.74015625 4.31445312 20.5078125 C2.88738495 22.34766898 1.44916934 24.17753579 0 26 C-3.25370911 25.2688195 -5.98987142 24.07527834 -8.97241211 22.57446289 C-27.45366998 13.35162036 -46.50943331 12.67034917 -66.08203125 18.99609375 C-85.32790935 26.28581691 -98.10935296 40.40723959 -106.875 58.625 C-107.61654835 60.40317648 -108.32613107 62.19508831 -109 64 C-109.31839844 64.84949219 -109.63679688 65.69898438 -109.96484375 66.57421875 C-115.47973816 84.38961498 -112.6366339 103.8359333 -104.31738281 120.13452148 C-94.61301512 138.19011876 -78.27093403 149.42749227 -58.875 155.4375 C-38.13941715 160.42180764 -21.96311319 155.4815566 -3 146 C-2.67 134.78 -2.34 123.56 -2 112 C-16.52 112 -31.04 112 -46 112 C-46 104.41 -46 96.82 -46 89 C-38.1329719 88.9095384 -30.2662293 88.83619204 -22.39882374 88.79275131 C-18.74542185 88.77189907 -15.09239503 88.74362592 -11.43920898 88.69824219 C-7.91193151 88.65469814 -4.3850142 88.63084511 -0.85748863 88.62049103 C1.13949599 88.60953126 3.13633624 88.57831852 5.13310242 88.54681396 C6.35399063 88.54651184 7.57487885 88.54620972 8.83276367 88.54589844 C10.44159676 88.53257477 10.44159676 88.53257477 12.08293152 88.51898193 C15.7169374 89.11822137 17.37406684 90.47107958 20 93 C21.34526675 95.69053349 21.15696038 97.81062278 21.19287109 100.82324219 C21.20893402 102.0450116 21.22499695 103.26678101 21.24154663 104.52557373 C21.253035 105.86600041 21.26364339 107.20643487 21.2734375 108.546875 C21.27876118 109.22157082 21.28408485 109.89626663 21.28956985 110.59140778 C21.31629844 114.16444258 21.33567186 117.73744253 21.35009766 121.31054688 C21.36342413 124.26333689 21.39125092 127.21543369 21.43212891 130.16796875 C21.48153418 133.73652229 21.50622829 137.30444823 21.51332474 140.87332916 C21.52327313 142.88857948 21.55749981 144.90366287 21.59213257 146.91864014 C21.56856483 157.12605232 21.56856483 157.12605232 18.65136719 160.74487305 C0.24740329 176.3984103 -24.32496571 182.83166804 -48.125 181.875 C-74.18020284 179.64761685 -97.57791096 167.4448784 -115 148 C-130.86636161 128.42023461 -139.2610396 103.09146829 -136.79345703 77.890625 C-133.91039124 52.25368462 -122.74355856 29.37227785 -103.0625 12.375 C-73.53844687 -10.52120447 -34.13798175 -16.73146846 0 0 Z " fill="#002459" transform="translate(530,139)"/>
<path d="M0 0 C0.99 1.485 0.99 1.485 2 3 C-2.29 9.27 -6.58 15.54 -11 22 C-15.10936796 20.35625281 -18.84207479 18.54948967 -22.75 16.5 C-35.74024732 9.94444097 -50.06581513 8.88386888 -64.12109375 12.95703125 C-72.56773963 16.01707799 -79.38897739 19.96384892 -86 26 C-86.66 26 -87.32 26 -88 26 C-88.26296875 26.58007812 -88.5259375 27.16015625 -88.796875 27.7578125 C-90.05811968 30.10831396 -91.50872918 31.8592045 -93.25 33.875 C-102.09148277 45.0791337 -106.43885614 59.80683877 -105 74 C-102.28890247 88.63992669 -97.61703071 99.3459116 -87 110 C-86.45730469 110.56589844 -85.91460937 111.13179687 -85.35546875 111.71484375 C-75.31646376 121.2963751 -60.52551121 125.93325711 -46.9375 126.375 C-36.07975225 126.04641027 -27.93698915 122.51681325 -18 118 C-17.67 109.75 -17.34 101.5 -17 93 C-19.64773438 93.01160156 -22.29546875 93.02320313 -25.0234375 93.03515625 C-27.58170451 93.04295017 -30.13997021 93.04902503 -32.69824219 93.05493164 C-34.47917267 93.05996711 -36.260099 93.06679581 -38.04101562 93.07543945 C-40.59766665 93.08753942 -43.15426312 93.09323609 -45.7109375 93.09765625 C-46.50994476 93.10281754 -47.30895203 93.10797882 -48.13217163 93.11329651 C-53.77225659 93.11387171 -53.77225659 93.11387171 -56 92 C-56 84.41 -56 76.82 -56 69 C-48.52416101 68.88690371 -41.04879174 68.79523061 -33.57227802 68.74093914 C-30.10035151 68.71487773 -26.62904208 68.67954613 -23.1574707 68.62280273 C-19.16351501 68.55793166 -15.17020442 68.53379138 -11.17578125 68.51171875 C-9.93290848 68.48591232 -8.69003571 68.4601059 -7.40950012 68.43351746 C1.18596952 68.43072107 1.18596952 68.43072107 5.26098633 71.28051758 C7.72534027 75.13429247 8.12360547 78.22752708 8.16113281 82.74926758 C8.17074036 83.68736771 8.1803479 84.62546783 8.19024658 85.59199524 C8.1966214 87.10300056 8.1966214 87.10300056 8.203125 88.64453125 C8.20882507 89.6876799 8.21452515 90.73082855 8.22039795 91.80558777 C8.22983874 94.0120645 8.23637827 96.21855527 8.24023438 98.42504883 C8.24993363 101.7894773 8.28096368 105.15329312 8.3125 108.51757812 C8.31903111 110.66405888 8.32428116 112.810544 8.328125 114.95703125 C8.3404718 115.95829544 8.3528186 116.95955963 8.36553955 117.99116516 C8.34722326 123.7742877 7.84889235 127.92084865 5 133 C2.82299138 134.83784749 0.97475772 136.20510408 -1.4375 137.625 C-2.05858643 138.00543457 -2.67967285 138.38586914 -3.31958008 138.77783203 C-23.09841416 150.59519994 -46.00289486 154.22377512 -68.4230957 148.97680664 C-89.41474126 143.42787556 -107.87861264 129.26933184 -118.9609375 110.69921875 C-130.42915196 90.45583926 -133.07975587 67.46335504 -127 45 C-122.71338545 31.30795647 -115.96904789 20.25489872 -106 10 C-105.42507812 9.36320312 -104.85015625 8.72640625 -104.2578125 8.0703125 C-77.76613952 -20.44943114 -30.91557207 -20.27795587 0 0 Z " fill="#002459" transform="translate(355,482)"/>
<path d="M0 0 C1.32949475 0.6742892 2.66064936 1.34550624 4 2 C3.5345137 7.09125645 0.97407882 10.23445357 -2 14.1875 C-5.25996805 18.42984724 -5.25996805 18.42984724 -8 23 C-11.43839315 21.66523915 -14.74393925 20.16922398 -18.0625 18.5625 C-32.45252802 12.06873569 -47.969772 10.53972462 -63 16 C-79.20824858 22.85529202 -89.86353827 32.95908226 -96.9375 49.25 C-102.48005216 63.87087036 -102.39884782 78.31090252 -97 93 C-94.99782082 97.26614449 -92.68836968 101.13398165 -90 105 C-89.56171875 105.65226563 -89.1234375 106.30453125 -88.671875 106.9765625 C-80.28783435 118.03743541 -64.94236344 125.49459936 -51.5546875 127.71875 C-38.970744 129.10413828 -28.07504875 127.08485684 -16.9609375 120.98828125 C-15 120 -15 120 -13 120 C-13 111.75 -13 103.5 -13 95 C-15.63613281 95.01160156 -18.27226562 95.02320313 -20.98828125 95.03515625 C-23.53995646 95.04295384 -26.09163034 95.04902661 -28.64331055 95.05493164 C-30.41740513 95.059962 -32.19149556 95.06678699 -33.96557617 95.07543945 C-36.51482161 95.08756174 -39.06401226 95.09324126 -41.61328125 95.09765625 C-42.80405022 95.10539818 -42.80405022 95.10539818 -44.01887512 95.11329651 C-47.27656286 95.11362877 -49.88681521 95.03772826 -53 94 C-53 86.41 -53 78.82 -53 71 C-45.39381642 70.88691113 -37.78794708 70.79523394 -30.18112659 70.74093914 C-26.64867155 70.71487612 -23.11682287 70.67954134 -19.5847168 70.62280273 C-15.52126339 70.55793936 -11.45844402 70.53379268 -7.39453125 70.51171875 C-6.1297847 70.48591232 -4.86503815 70.4601059 -3.56196594 70.43351746 C4.93211713 70.4308009 4.93211713 70.4308009 9.28686523 72.75195312 C11.97973087 77.85753734 11.79291727 82.76348829 11.8046875 88.45703125 C11.81895782 89.67396164 11.83322815 90.89089203 11.84793091 92.1446991 C11.86884628 94.71756826 11.8764036 97.29057573 11.87158203 99.86352539 C11.87498019 103.78961704 11.95286427 107.70963527 12.03515625 111.63476562 C12.04623435 114.13800479 12.05288945 116.64126822 12.0546875 119.14453125 C12.0854538 120.31248734 12.11622009 121.48044342 12.1479187 122.68379211 C12.08185287 127.40375487 12.02318267 130.68486036 9.06199646 134.49099731 C4.61279063 138.52617591 -0.26396977 141.6918613 -5.6875 144.25 C-6.3673999 144.58008057 -7.0472998 144.91016113 -7.74780273 145.25024414 C-27.47865139 154.51689663 -50.31587028 155.99461096 -71 149 C-93.70106807 140.03637916 -110.2434689 124.11787236 -120.375 102.0625 C-128.91453302 80.71366744 -128.14875267 57.23094492 -119.43359375 36.05078125 C-110.04875142 16.07922306 -94.2549638 1.34158422 -74 -7 C-47.80409715 -15.86713739 -23.92039039 -13.10939544 0 0 Z " fill="#002459" transform="translate(204,480)"/>
<path d="M0 0 C15.29147875 13.01571713 25.67523783 31.50350175 27.89453125 51.5625 C29.25964484 74.77211832 23.73456423 96.23471155 8.33203125 114.1875 C-7.30786849 130.5586771 -27.53567124 139.29776651 -50.10546875 139.9375 C-72.12837458 139.36059017 -92.26101363 130.8362261 -107.72119141 115.04052734 C-115.07394495 107.18980954 -120.28342854 98.58809483 -124.10546875 88.5625 C-124.51925781 87.48097656 -124.93304687 86.39945313 -125.359375 85.28515625 C-131.77513816 65.41193865 -129.30799798 43.71541297 -120.29296875 25.1875 C-117.17105088 19.11128401 -113.71522403 13.63718768 -109.10546875 8.5625 C-108.46351563 7.82902344 -107.8215625 7.09554688 -107.16015625 6.33984375 C-79.08541559 -23.85863191 -31.76992875 -24.9363969 0 0 Z M-95.10546875 17.5625 C-95.67007813 18.12710938 -96.2346875 18.69171875 -96.81640625 19.2734375 C-107.54007765 30.90493293 -113.59146771 46.88589126 -113.30859375 62.6796875 C-112.03360202 80.77476242 -103.46591144 97.06041349 -90.23046875 109.3125 C-76.3713006 120.77192892 -60.82134167 124.65913473 -43.10546875 123.5625 C-27.73879486 121.65832727 -11.79767702 112.57639354 -1.83203125 100.8984375 C9.71689308 85.65729201 13.53082979 70.46483551 11.89453125 51.5625 C8.98230766 34.05448915 -0.92089929 19.13708708 -15.04296875 8.625 C-41.16137089 -8.37269028 -73.34826687 -4.19470188 -95.10546875 17.5625 Z " fill="#002459" transform="translate(799.10546875,489.4375)"/>
<path d="M0 0 C-0.49371094 0.77085937 -0.98742187 1.54171875 -1.49609375 2.3359375 C-2.13675781 3.33882813 -2.77742187 4.34171875 -3.4375 5.375 C-4.07558594 6.37273437 -4.71367188 7.37046875 -5.37109375 8.3984375 C-6.96899211 10.85830521 -6.96899211 10.85830521 -8 13 C-10.62758477 11.96241625 -13.23693703 10.89803537 -15.83203125 9.78125 C-16.81558594 9.3584375 -17.79914063 8.935625 -18.8125 8.5 C-19.78832031 8.0771875 -20.76414062 7.654375 -21.76953125 7.21875 C-37.51954376 1.27678639 -54.67810005 2.6305893 -69.94921875 9.28515625 C-85.43984721 17.04127287 -96.11613351 30.65963317 -102.00390625 46.7421875 C-106.8432589 62.12525052 -105.68431729 77.72160339 -99.2890625 92.5625 C-90.20052932 109.74809002 -75.88175255 119.57420554 -57.8046875 125.75 C-40.13402045 130.58759706 -24.68379804 124.62606694 -9 117 C-8.67 106.44 -8.34 95.88 -8 85 C-20.21 85 -32.42 85 -45 85 C-45 80.05 -45 75.1 -45 70 C-37.93422862 69.87657212 -30.86908204 69.78574002 -23.80249023 69.7253418 C-21.39775668 69.70016899 -18.99309985 69.66602818 -16.58862305 69.62280273 C-13.13571267 69.56227533 -9.68381205 69.53381756 -6.23046875 69.51171875 C-4.61316109 69.47300911 -4.61316109 69.47300911 -2.96318054 69.43351746 C4.33185845 69.43076468 4.33185845 69.43076468 7.17700195 71.85473633 C8.39974847 76.52772458 8.42742044 80.99950493 8.3984375 85.8125 C8.40274277 87.38221558 8.40274277 87.38221558 8.40713501 88.98364258 C8.40917328 91.19255109 8.40366004 93.40147775 8.39111328 95.61035156 C8.37505685 98.98804146 8.39097063 102.36453475 8.41015625 105.7421875 C8.40817378 107.89062764 8.40433002 110.03906703 8.3984375 112.1875 C8.40451019 113.19594971 8.41058289 114.20439941 8.4168396 115.2434082 C8.32886196 124.03030355 8.32886196 124.03030355 5 128 C-10.41705608 140.14180896 -30.6202683 145.4030575 -50 144 C-73.0666209 141.08248273 -92.46108232 130.40194419 -106.875 112.125 C-111.16909174 106.09152933 -114.3643736 99.9135124 -117 93 C-117.41378906 91.91847656 -117.82757813 90.83695313 -118.25390625 89.72265625 C-124.66966941 69.84943865 -122.20252923 48.15291297 -113.1875 29.625 C-110.06558213 23.54878401 -106.60975528 18.07468768 -102 13 C-101.35804688 12.26652344 -100.71609375 11.53304688 -100.0546875 10.77734375 C-74.37089134 -16.8493226 -30.92062238 -20.81195737 0 0 Z " fill="#002459" transform="translate(552,485)"/>
<path d="M0 0 C7.99744721 -0.06784279 15.99466977 -0.12285439 23.99232769 -0.15543652 C27.70617574 -0.17107623 31.41981628 -0.19228309 35.13354492 -0.22631836 C38.71916041 -0.25897295 42.30457662 -0.27686576 45.89032936 -0.28463173 C47.25665231 -0.29016435 48.62296465 -0.30096836 49.9892025 -0.31719017 C51.90634857 -0.33904275 53.82369622 -0.34022607 55.7409668 -0.34057617 C56.83128708 -0.34723801 57.92160736 -0.35389984 59.04496765 -0.36076355 C62.46414392 0.05666476 64.28444226 0.89846864 67 3 C68.97178899 6.12740006 69.254074 8.57008263 69.26742554 12.23272705 C69.27595551 13.29211487 69.28448547 14.35150269 69.29327393 15.44299316 C69.29236755 16.60036987 69.29146118 17.75774658 69.29052734 18.95019531 C69.29724457 20.17353577 69.30396179 21.39687622 69.31088257 22.6572876 C69.32663533 26.01346578 69.33323869 29.3693964 69.33451414 32.72559452 C69.33593809 34.82900354 69.34021273 36.93238686 69.34550858 39.03578949 C69.36402388 46.39399348 69.37217895 53.75212506 69.37060547 61.11035156 C69.36940964 67.93351315 69.39039731 74.75635553 69.4220928 81.57943654 C69.44842077 87.45998829 69.45896563 93.34043707 69.45769465 99.22104716 C69.45718903 102.72264611 69.4626446 106.22396254 69.48405075 109.72550201 C69.62255554 134.1042462 68.20718016 153.04523395 50.59765625 171.53125 C35.94254189 185.45911808 18.64436349 190.2217397 -1 191 C-1.02887236 187.18751574 -1.04675492 183.3750593 -1.0625 179.5625 C-1.07087891 178.47388672 -1.07925781 177.38527344 -1.08789062 176.26367188 C-1.09111328 175.22919922 -1.09433594 174.19472656 -1.09765625 173.12890625 C-1.10289307 172.17056885 -1.10812988 171.21223145 -1.11352539 170.22485352 C-1 168 -1 168 0 167 C2.06093408 166.776707 4.1238839 166.57197113 6.1875 166.375 C18.07655886 164.7284501 29.05747164 159.12545812 37 150 C42.75859303 141.65996871 44.29782291 134.02067631 44.31884766 124.03759766 C44.33391609 122.39768356 44.33391609 122.39768356 44.34928894 120.72463989 C44.38011027 117.1211193 44.39715343 113.51767298 44.4140625 109.9140625 C44.43277496 107.41156374 44.45234843 104.90907127 44.4727478 102.40658569 C44.51882496 96.49943455 44.5562362 90.59226903 44.58942068 84.68503511 C44.63146009 77.29646707 44.68700526 69.9080108 44.7421875 62.51953125 C44.83894393 49.346408 44.92232828 36.17324962 45 23 C30.15 23 15.3 23 0 23 C0 15.41 0 7.82 0 0 Z " fill="#002459" transform="translate(316,132)"/>
<path d="M0 0 C1.21969482 -0.00290039 2.43938965 -0.00580078 3.69604492 -0.00878906 C5.63120972 0.02456543 5.63120972 0.02456543 7.60546875 0.05859375 C8.91813721 0.07180664 10.23080566 0.08501953 11.58325195 0.09863281 C20.6370413 0.2670963 29.09230717 0.82251297 37.79296875 3.49609375 C38.71464844 3.77453125 39.63632812 4.05296875 40.5859375 4.33984375 C51.49351927 8.16822343 58.60166163 15.2778445 63.7890625 25.44921875 C66.89873658 32.29347748 67.00342951 38.8045837 67.04296875 46.18359375 C67.06359375 47.12654297 67.08421875 48.06949219 67.10546875 49.04101562 C67.17534655 61.75004028 62.79082422 72.23951026 54.29296875 81.68359375 C47.00589078 88.60631782 37.08693751 92.10257226 27.79296875 95.49609375 C28.55480469 96.30691406 29.31664062 97.11773438 30.1015625 97.953125 C35.74674754 103.99438276 41.20248235 110.10122321 46.3828125 116.55078125 C49.28327977 120.09527448 52.28169856 123.54574308 55.29296875 126.99609375 C77.79296875 152.82184147 77.79296875 152.82184147 77.79296875 155.49609375 C63.42884595 157.86543359 63.42884595 157.86543359 57.58105469 154.0546875 C53.38464251 150.33769617 49.88794874 146.05487452 46.46386719 141.63134766 C41.94362988 135.8549018 36.91327843 130.48630183 31.91796875 125.12109375 C26.82337503 119.62567655 21.79819581 114.07334676 16.79296875 108.49609375 C13.49296875 104.86609375 10.19296875 101.23609375 6.79296875 97.49609375 C6.46296875 116.30609375 6.13296875 135.11609375 5.79296875 154.49609375 C0.51296875 154.82609375 -4.76703125 155.15609375 -10.20703125 155.49609375 C-10.29958381 135.87725863 -10.3709874 116.25848507 -10.41427994 96.63947678 C-10.43491474 87.53024621 -10.46305281 78.42115369 -10.50878906 69.31201172 C-10.54862881 61.37348154 -10.57445738 53.43505133 -10.58338523 45.49642396 C-10.58860486 41.29202289 -10.60089171 37.08790783 -10.62995148 32.88359833 C-10.65707553 28.9273397 -10.66548246 24.97148522 -10.65946198 21.01514244 C-10.66056358 19.56227358 -10.66853572 18.10939139 -10.68385315 16.65660286 C-10.70372968 14.67438632 -10.69659138 12.69195355 -10.68804932 10.70965576 C-10.69173649 9.59981701 -10.69542366 8.48997826 -10.69922256 7.34650803 C-9.62495547 1.12513398 -5.75780822 -0.00971247 0 0 Z M5.79296875 16.49609375 C5.79296875 37.94609375 5.79296875 59.39609375 5.79296875 81.49609375 C20.89143944 80.41763156 33.9926024 79.05033443 44.60546875 67.62109375 C51.0014557 59.88471774 52.58045364 51.34681385 51.79296875 41.49609375 C50.23690149 33.262415 47.1793329 26.57805636 40.16796875 21.74609375 C28.94634483 15.46115466 19.11389324 16.49609375 5.79296875 16.49609375 Z " fill="#002459" transform="translate(590.20703125,473.50390625)"/>
<path d="M0 0 C8.12783093 -0.06783919 16.25544089 -0.12285234 24.38347912 -0.15543652 C28.15785956 -0.17107711 31.93203586 -0.19228561 35.70629883 -0.22631836 C39.35026868 -0.25896976 42.99404247 -0.2768651 46.63814735 -0.28463173 C48.02679848 -0.29016492 49.41543916 -0.30097003 50.80400658 -0.31719017 C52.75228745 -0.33903856 54.70076658 -0.34022604 56.64916992 -0.34057617 C57.7572551 -0.34723801 58.86534027 -0.35389984 60.00700378 -0.36076355 C63.39765229 0.04793138 65.27144428 0.97936955 68 3 C69.36945296 5.73890593 69.15758729 7.9569241 69.19287109 11.02270508 C69.20893402 12.28774368 69.22499695 13.55278229 69.24154663 14.8561554 C69.25303357 16.24394052 69.2636422 17.63173315 69.2734375 19.01953125 C69.27876118 19.71754034 69.28408485 20.41554943 69.28956985 21.13471031 C69.31629565 24.82978594 69.33567168 28.52482786 69.35009766 32.2199707 C69.36343575 35.27659034 69.39128467 38.33254215 69.43212891 41.38891602 C69.48146385 45.08065482 69.50621946 48.77178801 69.51332474 52.46384239 C69.52003463 53.86927589 69.5352503 55.27469601 69.55921555 56.67994118 C69.5908851 58.64942658 69.58790083 60.61937624 69.58349609 62.58911133 C69.59158295 63.70892899 69.5996698 64.82874664 69.60800171 65.98249817 C68.58586647 71.05533745 64.98843692 73.25705722 61.01171875 76.24609375 C38.90996823 90.8161079 13.05920188 95.91289533 -13 91 C-28.64244702 87.5579324 -42.95582338 80.52698383 -55 70 C-56.04027344 69.47599609 -56.04027344 69.47599609 -57.1015625 68.94140625 C-59.63195673 66.35373972 -59.45454394 64.22229485 -59.45318604 60.71394348 C-59.43254089 59.87634995 -59.41189575 59.03875641 -59.390625 58.17578125 C-59.38496521 57.31438034 -59.37930542 56.45297943 -59.37347412 55.56547546 C-59.3510813 52.81391852 -59.3008808 50.06366337 -59.25 47.3125 C-59.2299387 45.44728443 -59.21168728 43.58204845 -59.1953125 41.71679688 C-59.15120713 37.14402958 -59.08216057 32.5722355 -59 28 C-56.41548378 30.48412926 -54.75355415 32.96137559 -52.9375 36.0625 C-46.56365054 46.17781245 -38.34912851 53.16739867 -28 59 C-27.21109375 59.46148437 -26.4221875 59.92296875 -25.609375 60.3984375 C-10.79882609 68.49029369 6.78037932 70.42837002 23.25 67 C30.91838383 64.74135246 37.96155089 60.70125341 45 57 C45.33 45.78 45.66 34.56 46 23 C30.82 23 15.64 23 0 23 C0 15.41 0 7.82 0 0 Z " fill="#002459" transform="translate(621,228)"/>
<path d="M0 0 C4.95 0 9.9 0 15 0 C15.01213028 1.86136345 15.01213028 1.86136345 15.02450562 3.7603302 C15.10217295 15.48576068 15.18996349 27.21107807 15.28752708 38.93636036 C15.33735731 44.96365392 15.38368815 50.99093108 15.421875 57.01831055 C15.45889591 62.8409509 15.50530063 68.6634494 15.55806351 74.48596764 C15.57651846 76.70134669 15.59165882 78.91675606 15.60334396 81.13218117 C15.62035953 84.24817895 15.64943003 87.36385812 15.68115234 90.47973633 C15.68331253 91.38461288 15.68547272 92.28948944 15.68769836 93.2217865 C15.84229305 105.19984162 17.82286442 116.5859175 26.0625 125.75 C33.8463345 132.96929266 43.71218251 136.41779487 54.18359375 136.27734375 C63.78085571 135.3322597 72.53757361 131.38743961 78.71484375 123.9296875 C84.74250796 115.47032502 86.4474329 107.32234954 86.43237305 97.06420898 C86.4425647 96.00950912 86.45275635 94.95480927 86.46325684 93.8681488 C86.49325135 90.41074213 86.50263223 86.95361314 86.51171875 83.49609375 C86.52857543 81.08756092 86.546727 78.67903684 86.56611633 76.27052307 C86.61351467 69.9528171 86.64338994 63.6351466 86.66955566 57.31732178 C86.69941241 50.86186725 86.7459252 44.40653479 86.79101562 37.95117188 C86.87693318 25.30084523 86.9443299 12.65049339 87 0 C92.28 0 97.56 0 103 0 C103.09294665 13.98725834 103.16389008 27.97444241 103.20724869 41.96194744 C103.22806547 48.45789742 103.25627513 54.95363507 103.30175781 61.44946289 C103.34542619 67.72591533 103.36918149 74.00216438 103.37950897 80.2787571 C103.38686273 82.66558849 103.40122231 85.05240957 103.42292023 87.43915367 C103.59078417 106.68055292 102.20790702 123.23718623 88.625 138.1875 C80.29817776 146.07408239 68.53686612 152.11106224 57 153 C55.76830078 153.11988281 55.76830078 153.11988281 54.51171875 153.2421875 C39.938001 153.97627106 27.42097398 148.94295643 16.3515625 139.81640625 C7.77453312 131.97344695 0.70296849 120.4420153 -0.17911148 108.59424019 C-0.24540706 105.73282285 -0.24737163 102.87799253 -0.22705078 100.01586914 C-0.22734283 98.93220062 -0.22763489 97.8485321 -0.22793579 96.73202515 C-0.2265475 93.16631945 -0.21100968 89.60082525 -0.1953125 86.03515625 C-0.1915806 83.55651463 -0.18873446 81.07787153 -0.18673706 78.59922791 C-0.17911461 72.08743185 -0.15947795 65.57572554 -0.1373291 59.06396484 C-0.11575462 52.41440525 -0.10772896 45.76481946 -0.09765625 39.11523438 C-0.07623083 26.07678357 -0.04211156 13.03839926 0 0 Z " fill="#002459" transform="translate(843,476)"/>
<path d="M0 0 C126.06 0 252.12 0 382 0 C382 52.14 382 104.28 382 158 C379.36 158 376.72 158 374 158 C374 108.5 374 59 374 8 C253.55 8 133.1 8 9 8 C9 46.94 9 85.88 9 126 C6.03 126 3.06 126 0 126 C0 84.42 0 42.84 0 0 Z " fill="#002459" transform="translate(340,0)"/>
<path d="M0 0 C6.74506701 -0.09187378 13.4879599 -0.17150182 20.2331543 -0.21972656 C22.52717448 -0.23983106 24.82114348 -0.26711891 27.11499023 -0.30175781 C30.41402826 -0.35032559 33.71238822 -0.37298077 37.01171875 -0.390625 C38.03585373 -0.41127014 39.05998871 -0.43191528 40.11515808 -0.45318604 C47.25088156 -0.45543029 47.25088156 -0.45543029 51.12426758 1.89941406 C53.81482985 4.91250762 54.1261114 6.52014368 54.14044189 10.46313477 C54.14615204 11.4022319 54.15186218 12.34132904 54.15774536 13.30888367 C54.15942215 14.85948235 54.15942215 14.85948235 54.16113281 16.44140625 C54.16858017 18.07098015 54.16858017 18.07098015 54.17617798 19.73347473 C54.19083294 23.34315619 54.19760898 26.95279362 54.203125 30.5625 C54.20887599 33.06917319 54.21463373 35.57584637 54.22039795 38.08251953 C54.22957292 42.6747477 54.23586781 47.26696323 54.2388947 51.85919952 C54.24336306 58.60062851 54.26085001 65.34185349 54.2898953 72.08322048 C54.31421657 77.93300001 54.32184409 83.78271221 54.32357025 89.63253784 C54.32659022 92.11393338 54.33459652 94.59532819 54.34775543 97.07669067 C54.36489669 100.55909427 54.36291512 104.0410083 54.35644531 107.5234375 C54.3656601 108.5409761 54.37487488 109.55851471 54.3843689 110.60688782 C54.29835438 125.45948026 48.33650952 137.68493712 38.01171875 148.16796875 C26.83440836 158.96222227 11.87525548 165.18040871 -3.75 165.125 C-4.48734375 165.12757813 -5.2246875 165.13015625 -5.984375 165.1328125 C-8 165 -8 165 -11 164 C-11.02887512 160.35418313 -11.04675585 156.70839537 -11.0625 153.0625 C-11.07087891 152.02158203 -11.07925781 150.98066406 -11.08789062 149.90820312 C-11.09272461 148.42416992 -11.09272461 148.42416992 -11.09765625 146.91015625 C-11.10289307 145.99371338 -11.10812988 145.07727051 -11.11352539 144.13305664 C-11 142 -11 142 -10 141 C-8.14349006 140.70608783 -6.28615559 140.41657139 -4.42529297 140.15161133 C6.62530803 138.52252145 16.40753055 135.55244704 23.45013428 126.25253296 C30.42189456 116.11996497 29.60431563 105.14841607 29.609375 93.3359375 C29.62437321 91.33239414 29.64110378 89.32886308 29.65948486 87.3253479 C29.70298624 82.0811503 29.72311922 76.83711945 29.73822021 71.59277344 C29.75785355 66.22971813 29.79981645 60.86684126 29.83984375 55.50390625 C29.91495951 45.00262922 29.96329702 34.5014816 30 24 C20.1 24 10.2 24 0 24 C0 16.08 0 8.16 0 0 Z " fill="#002459" transform="translate(11,470)"/>
<path d="M0 0 C2.64 0 5.28 0 8 0 C8 50.82 8 101.64 8 154 C-118.06 154 -244.12 154 -374 154 C-374 139.48 -374 124.96 -374 110 C-369 108 -369 108 -365 108 C-365 120.21 -365 132.42 -365 145 C-244.55 145 -124.1 145 0 145 C0 97.15 0 49.3 0 0 Z " fill="#002459" transform="translate(714,221)"/>
<path d="M0 0 C1.45937988 -0.00930542 1.45937988 -0.00930542 2.94824219 -0.01879883 C4.50333496 0.00210815 4.50333496 0.00210815 6.08984375 0.0234375 C7.15879883 0.03286377 8.22775391 0.04229004 9.32910156 0.05200195 C26.15986177 0.36642 45.36243103 1.95188534 58.02734375 14.3984375 C68.52017155 26.41441772 68.99340974 39.58391648 68.23876953 54.88769531 C67.47807195 63.92119864 63.58369915 71.38846345 58.02734375 78.3984375 C57.57230469 79.00171875 57.11726563 79.605 56.6484375 80.2265625 C48.054444 90.18931214 33.51203007 94.58248313 21.02734375 96.3984375 C16.40734375 96.3984375 11.78734375 96.3984375 7.02734375 96.3984375 C7.02734375 115.8684375 7.02734375 135.3384375 7.02734375 155.3984375 C1.74734375 155.3984375 -3.53265625 155.3984375 -8.97265625 155.3984375 C-9.06518062 135.63194756 -9.1365979 115.86551859 -9.17990494 96.09885693 C-9.20054601 86.92121709 -9.228696 77.74371411 -9.27441406 68.56616211 C-9.31423467 60.56867789 -9.34007782 52.57129277 -9.34901023 44.57371217 C-9.35423312 40.337486 -9.36654052 36.10154339 -9.39557648 31.86540794 C-9.42267035 27.88042603 -9.43111361 23.89584522 -9.42508698 19.91077995 C-9.42618993 18.44620333 -9.43417997 16.98161368 -9.44947815 15.51711655 C-9.46930758 13.52141201 -9.46222731 11.52549359 -9.45367432 9.52970886 C-9.45736149 8.41157397 -9.46104866 7.29343908 -9.46484756 6.14142132 C-8.97265625 3.3984375 -8.97265625 3.3984375 -7.08982468 1.53949451 C-4.5482071 0.16967881 -2.88003405 0.01128477 0 0 Z M7.02734375 15.3984375 C7.02734375 37.1784375 7.02734375 58.9584375 7.02734375 81.3984375 C21.26663786 81.3984375 33.78369331 79.37885588 44.828125 69.84375 C51.11607137 63.32176096 53.24480322 55.14202769 53.46484375 46.2734375 C53.14822879 37.21033434 51.35702297 30.7932981 45.04296875 24.12109375 C41.69574504 21.26038511 38.1889553 19.74295815 34.02734375 18.3984375 C33.38667969 18.18574219 32.74601563 17.97304688 32.0859375 17.75390625 C23.93558381 15.53688245 15.3979218 15.86346961 7.02734375 15.3984375 Z " fill="#002459" transform="translate(976.97265625,473.6015625)"/>
<path d="M0 0 C1.05078125 1.51171875 1.05078125 1.51171875 0.78930664 3.40185547 C-0.52480642 7.15609184 -3.43713551 9.55306959 -6.19921875 12.32421875 C-6.77285156 12.93458984 -7.34648438 13.54496094 -7.9375 14.17382812 C-12.20486434 18.48493538 -12.20486434 18.48493538 -15.5546875 18.60546875 C-18.26779205 17.36620403 -20.57204812 15.91765945 -23.01171875 14.19921875 C-37.66088528 4.57149392 -56.40715964 3.36849632 -73.32421875 6.69921875 C-84.79392374 9.55672311 -93.70108019 14.19783139 -102.94921875 21.51171875 C-103.98046875 22.25421875 -105.01171875 22.99671875 -106.07421875 23.76171875 C-120.54751621 37.6057424 -126.91051441 55.20700883 -129.94921875 74.51171875 C-130.95984375 73.89296875 -131.97046875 73.27421875 -133.01171875 72.63671875 C-139.18251901 69.48994538 -146.1547672 69.18408635 -152.94921875 68.51171875 C-152.47089036 48.37844208 -143.53271894 28.22517382 -129.94921875 13.51171875 C-129.06621094 12.5371875 -128.18320312 11.56265625 -127.2734375 10.55859375 C-94.84217992 -24.15439732 -37.97824409 -28.99741683 0 0 Z " fill="#002459" transform="translate(685.94921875,148.48828125)"/>
<path d="M0 0 C116.49 0 232.98 0 353 0 C353 47.19 353 94.38 353 143 C352.01 143 351.02 143 350 143 C350 96.8 350 50.6 350 3 C235.49 3 120.98 3 3 3 C3 38.97 3 74.94 3 112 C2.01 112 1.02 112 0 112 C0 75.04 0 38.08 0 0 Z " fill="#002459" transform="translate(354,14)"/>
<path d="M0 0 C0.99 0 1.98 0 3 0 C3 45.87 3 91.74 3 139 C-113.49 139 -229.98 139 -350 139 C-350 128.44 -350 117.88 -350 107 C-349.01 107 -348.02 107 -347 107 C-347 116.57 -347 126.14 -347 136 C-232.49 136 -117.98 136 0 136 C0 91.12 0 46.24 0 0 Z " fill="#002459" transform="translate(704,221)"/>
<path d="M0 0 C4.8911484 4.06838173 9.47350753 8.34438078 13.9375 12.875 C14.82018555 13.76445312 14.82018555 13.76445312 15.72070312 14.671875 C17.14947674 16.11226466 18.57508132 17.5557967 20 19 C17.76423318 24.04345768 13.96327082 27.44365888 10.125 31.3125 C9.04412109 32.44268555 9.04412109 32.44268555 7.94140625 33.59570312 C7.24144531 34.30275391 6.54148437 35.00980469 5.8203125 35.73828125 C5.18367676 36.38837158 4.54704102 37.03846191 3.89111328 37.70825195 C2 39 2 39 0.01806641 38.94238281 C-2.55765411 37.73959051 -4.1215319 36.2166151 -6.109375 34.18359375 C-6.86347656 33.41982422 -7.61757813 32.65605469 -8.39453125 31.86914062 C-9.17183594 31.06669922 -9.94914063 30.26425781 -10.75 29.4375 C-11.54277344 28.63119141 -12.33554687 27.82488281 -13.15234375 26.99414062 C-15.10847046 25.00266222 -17.05725719 23.00452279 -19 21 C-17.54254576 17.63664406 -15.68882146 15.45465995 -13.0859375 12.890625 C-12.32539062 12.13652344 -11.56484375 11.38242188 -10.78125 10.60546875 C-9.9871875 9.82816406 -9.193125 9.05085937 -8.375 8.25 C-7.57320312 7.45722656 -6.77140625 6.66445312 -5.9453125 5.84765625 C-3.96797154 3.89385507 -1.98611091 1.94487897 0 0 Z " fill="#002459" transform="translate(711,169)"/>
<path d="M0 0 C0.66 0 1.32 0 2 0 C6.29 8.91 10.58 17.82 15 27 C18.82562738 18.49356 18.82562738 18.49356 22.62817383 9.97680664 C23.10794678 8.92356201 23.58771973 7.87031738 24.08203125 6.78515625 C24.56905518 5.70113525 25.0560791 4.61711426 25.55786133 3.50024414 C27 1 27 1 30 0 C30 11.22 30 22.44 30 34 C29.01 34 28.02 34 27 34 C26.505 24.1 26.505 24.1 26 14 C23.03 20.6 20.06 27.2 17 34 C15.68 34 14.36 34 13 34 C10.03 27.73 7.06 21.46 4 15 C3.67 21.27 3.34 27.54 3 34 C2.01 34 1.02 34 0 34 C0 22.78 0 11.56 0 0 Z " fill="#002459" transform="translate(938,693)"/>
<path d="M0 0 C3.62035146 4.06185773 5.43317024 7.69564341 5.65625 13.1796875 C5.21718824 19.69975463 2.88033249 23.78329751 -2 28.1875 C-6.26981656 31.14352685 -10.3866122 31.37729823 -15.4375 30.875 C-21.14932223 29.13241017 -24.06581817 26.78802209 -27.4375 21.875 C-29.90866523 16.82034385 -29.75721933 12.2405742 -28.4375 6.875 C-25.98029888 2.0516052 -23.16310474 -0.52109535 -18.4375 -3.125 C-12.1901316 -4.81486194 -5.28710278 -3.91245606 0 0 Z M-22.4375 3.875 C-25.17753052 7.76407557 -26.00038532 11.24692375 -25.77734375 15.921875 C-25.05286843 20.08552628 -22.999748 22.6998577 -19.671875 25.203125 C-16.06840826 27.33115654 -13.40110163 28.25387218 -9.25 27.375 C-5.03009408 25.96560116 -1.65397299 23.91387727 0.671875 20.015625 C2.20282455 16.33597434 2.11233767 12.78495679 1.5625 8.875 C-0.62955378 4.49089244 -2.86865383 1.74407343 -7.4375 -0.125 C-13.81938672 -0.8455356 -17.27837804 0.03094835 -22.4375 3.875 Z " fill="#002459" transform="translate(569.4375,697.125)"/>
<path d="M0 0 C4.31353521 3.52925608 7.31739608 6.77062844 8.0234375 12.44921875 C8.25205197 18.05027328 7.67348382 21.94837745 4.36328125 26.5546875 C0.6158616 30.49265391 -3.84496757 32.41019442 -9.25 32.75 C-15.10428262 32.41579883 -19.69927904 29.88024511 -23.6875 25.6875 C-26.97658655 20.55652498 -26.86874118 15.16618277 -26.25 9.25 C-24.5 5.8125 -24.5 5.8125 -22.25 3.25 C-21.651875 2.5075 -21.05375 1.765 -20.4375 1 C-14.18458954 -4.00232837 -6.70810585 -3.612057 0 0 Z M-21.0625 7 C-22.81046437 10.31193248 -23.3573658 13.54945873 -23.25 17.25 C-21.5312094 22.40637181 -18.69698394 25.19814828 -14.25 28.25 C-10.39946317 29.56082105 -8.60381104 29.35552259 -4.6875 28.1875 C-0.32964085 25.73125211 2.79543149 23.2020915 4.3828125 18.29296875 C5.26288278 13.39640752 4.51425345 10.30423839 1.75 6.25 C-2.57100995 2.35055199 -5.24463165 0.88979115 -11.15234375 0.96484375 C-15.37923811 1.5394495 -18.09693626 4.13669708 -21.0625 7 Z " fill="#002459" transform="translate(362.25,695.75)"/>
<path d="M0 0 C3.73579273 3.09266891 5.25563437 6.26600312 5.921875 10.9296875 C6.1908899 17.25587672 5.4356898 21.25778239 1.54296875 26.27734375 C-3.88298214 30.48522403 -8.59571358 32.12275611 -15.45703125 31.27734375 C-21.1282861 29.64060292 -24.76249701 26.72082467 -27.61328125 21.55859375 C-29.57795964 16.24668551 -29.12604364 11.24721357 -27.33203125 5.96484375 C-20.5499324 -3.7561646 -10.03174207 -6.45061676 0 0 Z M-23.26953125 6.02734375 C-25.01749562 9.33927623 -25.56439705 12.57680248 -25.45703125 16.27734375 C-23.73824065 21.43371556 -20.90401519 24.22549203 -16.45703125 27.27734375 C-12.5755286 28.59870635 -10.82577159 28.39378807 -6.89453125 27.15234375 C-2.69263156 24.86039846 0.73509297 22.97524989 2.17578125 18.1640625 C2.9845338 13.04483093 2.5881677 9.64212891 -0.45703125 5.27734375 C-4.7780412 1.37789574 -7.4516629 -0.0828651 -13.359375 -0.0078125 C-17.58626936 0.56679325 -20.30396751 3.16404083 -23.26953125 6.02734375 Z " fill="#002459" transform="translate(168.45703125,696.72265625)"/>
<path d="M0 0 C4.20043488 3.43671945 7.31916049 6.66908799 7.98828125 12.23046875 C8.18435454 18.06106926 7.26462854 22.49934001 3.75 27.25 C-1.01709097 31.04421526 -4.92155158 32.62166683 -11.05859375 32.53125 C-16.2390618 31.8663771 -20.14062053 29.41627073 -23.6875 25.6875 C-26.97910777 20.55259188 -26.96059641 15.16894508 -26.25 9.25 C-24.51629063 4.66912137 -22.32045867 1.92722895 -18.1875 -0.6875 C-17.218125 -1.038125 -16.24875 -1.38875 -15.25 -1.75 C-14.63125 -1.9975 -14.0125 -2.245 -13.375 -2.5 C-8.31150983 -3.09570473 -4.415225 -2.37742885 0 0 Z M-21.625 8.0625 C-23.58648313 11.91002461 -23.84943353 13.97903613 -23.25 18.25 C-21.83462635 21.92088888 -19.99771854 24.65969589 -16.875 27.125 C-12.30587871 29.08319484 -9.52823969 29.63122938 -4.6875 28.1875 C0.38599768 25.32789222 3.11070449 22.4475783 4.75 16.8125 C4.75 12.48694687 3.87684766 10.00743086 1.75 6.25 C-2.50562851 2.30575894 -5.28124896 0.87686819 -11.15625 0.97265625 C-15.92965114 1.60495379 -18.64459716 4.53307559 -21.625 8.0625 Z " fill="#002459" transform="translate(734.25,695.75)"/>
<path d="M0 0 C3.90630028 1.30210009 4.55593638 2.92947079 6.79296875 6.34765625 C7.50517578 7.42724609 8.21738281 8.50683594 8.95117188 9.61914062 C9.69679027 10.76681297 10.4422307 11.91460094 11.1875 13.0625 C11.94391744 14.21468151 12.70107034 15.36638054 13.45898438 16.51757812 C15.31324188 19.34030134 17.15755769 22.16955065 19 25 C19.33 17.08 19.66 9.16 20 1 C20.99 1 21.98 1 23 1 C23 12.22 23 23.44 23 35 C22.01 35 21.02 35 20 35 C18.19067383 32.796875 18.19067383 32.796875 16.20703125 29.75 C15.1387207 28.12578125 15.1387207 28.12578125 14.04882812 26.46875 C13.30316021 25.31264523 12.55772044 24.15639327 11.8125 23 C11.05629343 21.84312526 10.29914338 20.68686665 9.54101562 19.53125 C7.68469942 16.69356918 5.84115549 13.84754083 4 11 C3.67 18.59 3.34 26.18 3 34 C2.01 34 1.02 34 0 34 C0 22.78 0 11.56 0 0 Z " fill="#002459" transform="translate(386,693)"/>
<path d="M0 0 C3.61298147 1.20432716 4.02977749 2.15296906 6.03125 5.296875 C6.87623047 6.61171875 6.87623047 6.61171875 7.73828125 7.953125 C8.31964844 8.87609375 8.90101563 9.7990625 9.5 10.75 C10.08136719 11.6575 10.66273438 12.565 11.26171875 13.5 C13.9029272 17.6340654 16.4755066 21.79251099 19 26 C19.33 17.75 19.66 9.5 20 1 C20.99 1 21.98 1 23 1 C23 12.22 23 23.44 23 35 C22.01 35 21.02 35 20 35 C18.19067383 32.796875 18.19067383 32.796875 16.20703125 29.75 C15.1387207 28.12578125 15.1387207 28.12578125 14.04882812 26.46875 C13.30316021 25.31264523 12.55772044 24.15639327 11.8125 23 C11.05629343 21.84312526 10.29914338 20.68686665 9.54101562 19.53125 C7.68469942 16.69356918 5.84115549 13.84754083 4 11 C3.67 18.59 3.34 26.18 3 34 C2.01 34 1.02 34 0 34 C0 22.78 0 11.56 0 0 Z " fill="#002459" transform="translate(758,693)"/>
<path d="M0 0 C4.23160079 0.03632275 6.90742162 0.44654716 10.25 3.25 C12.10726616 6.96453232 11.83501089 11.20579425 11.25 15.25 C9.05977082 18.07424288 7.41982793 19.66508603 4.25 21.25 C4.74371094 21.78109375 5.23742187 22.3121875 5.74609375 22.859375 C6.38675781 23.56578125 7.02742187 24.2721875 7.6875 25 C8.32558594 25.69609375 8.96367188 26.3921875 9.62109375 27.109375 C11.24081325 29.23792725 11.83267256 30.64023405 12.25 33.25 C8.25 33.25 8.25 33.25 6.3984375 31.5703125 C5.81320312 30.84585938 5.22796875 30.12140625 4.625 29.375 C4.03460937 28.65570312 3.44421875 27.93640625 2.8359375 27.1953125 C2.31257812 26.55335938 1.78921875 25.91140625 1.25 25.25 C0.59 24.59 -0.07 23.93 -0.75 23.25 C-1.08 26.55 -1.41 29.85 -1.75 33.25 C-3.07 33.25 -4.39 33.25 -5.75 33.25 C-5.77465392 28.71102295 -5.79283789 24.17208457 -5.80493164 19.63305664 C-5.8099714 18.08780234 -5.8168032 16.54255284 -5.82543945 14.99731445 C-5.83752076 12.78074971 -5.84323173 10.56424782 -5.84765625 8.34765625 C-5.85281754 7.6528566 -5.85797882 6.95805695 -5.86329651 6.24220276 C-5.86349277 4.5777067 -5.81189129 2.91334501 -5.75 1.25 C-4.11069007 -0.38930993 -2.25256326 0.03998633 0 0 Z M-1.75 3.25 C-1.75 8.2 -1.75 13.15 -1.75 18.25 C4.43871183 17.02956109 4.43871183 17.02956109 8.25 13.25 C8.63630872 10.15953021 8.7839636 8.16087907 7.1875 5.4375 C4.62013613 3.68771704 4.62013613 3.68771704 -1.75 3.25 Z " fill="#002459" transform="translate(909.75,693.75)"/>
<path d="M0 0 C4.23160079 0.03632275 6.90742162 0.44654716 10.25 3.25 C12.10726616 6.96453232 11.83501089 11.20579425 11.25 15.25 C9.05977082 18.07424288 7.41982793 19.66508603 4.25 21.25 C4.74371094 21.78109375 5.23742187 22.3121875 5.74609375 22.859375 C6.38675781 23.56578125 7.02742188 24.2721875 7.6875 25 C8.32558594 25.69609375 8.96367188 26.3921875 9.62109375 27.109375 C11.24081325 29.23792725 11.83267256 30.64023405 12.25 33.25 C8.25 33.25 8.25 33.25 6.3984375 31.5703125 C5.81320313 30.84585938 5.22796875 30.12140625 4.625 29.375 C4.03460938 28.65570312 3.44421875 27.93640625 2.8359375 27.1953125 C2.31257813 26.55335938 1.78921875 25.91140625 1.25 25.25 C0.59 24.59 -0.07 23.93 -0.75 23.25 C-1.08 26.55 -1.41 29.85 -1.75 33.25 C-3.07 33.25 -4.39 33.25 -5.75 33.25 C-5.77465392 28.71102295 -5.79283789 24.17208457 -5.80493164 19.63305664 C-5.8099714 18.08780234 -5.8168032 16.54255284 -5.82543945 14.99731445 C-5.83752076 12.78074971 -5.84323173 10.56424782 -5.84765625 8.34765625 C-5.85281754 7.6528566 -5.85797882 6.95805695 -5.86329651 6.24220276 C-5.86349277 4.5777067 -5.81189129 2.91334501 -5.75 1.25 C-4.11069007 -0.38930993 -2.25256326 0.03998633 0 0 Z M-1.75 3.25 C-1.75 8.2 -1.75 13.15 -1.75 18.25 C4.43871183 17.02956109 4.43871183 17.02956109 8.25 13.25 C8.63630872 10.15953021 8.7839636 8.16087907 7.1875 5.4375 C4.62013613 3.68771704 4.62013613 3.68771704 -1.75 3.25 Z " fill="#002459" transform="translate(114.75,693.75)"/>
<path d="M0 0 C0.99 0 1.98 0 3 0 C3.02187378 1.10456543 3.02187378 1.10456543 3.04418945 2.23144531 C3.11871111 5.57149004 3.21535873 8.91053981 3.3125 12.25 C3.33505859 13.40886719 3.35761719 14.56773437 3.38085938 15.76171875 C3.41630859 16.87675781 3.45175781 17.99179687 3.48828125 19.140625 C3.51446533 20.16704102 3.54064941 21.19345703 3.56762695 22.25097656 C4.05420551 25.34463807 4.88094965 26.73208939 7 29 C8.79649965 30.0953531 8.79649965 30.0953531 11 30 C14.21696962 28.84991114 14.21696962 28.84991114 17 27 C18.01587978 23.95236066 18.19804406 21.65281033 18.31640625 18.45703125 C18.35830078 17.38388672 18.40019531 16.31074219 18.44335938 15.20507812 C18.48267578 14.08552734 18.52199219 12.96597656 18.5625 11.8125 C18.60568359 10.68134766 18.64886719 9.55019531 18.69335938 8.38476562 C18.79949099 5.58996646 18.90154385 2.79507838 19 0 C19.99 0 20.98 0 22 0 C22.14564235 4.37464796 22.23419143 8.7486696 22.3125 13.125 C22.35439453 14.3625 22.39628906 15.6 22.43945312 16.875 C22.57761529 27.15426481 22.57761529 27.15426481 19.66796875 30.8046875 C15.51782387 34.21959442 12.26148711 34.36286118 7 34 C3.41915554 32.61649191 2.26652588 31.47218647 0.375 28.12109375 C-1.73140148 22.95345123 -1.3595544 17.61641412 -1.25 12.125 C-1.24484375 11.06796875 -1.2396875 10.0109375 -1.234375 8.921875 C-1.15450487 1.15450487 -1.15450487 1.15450487 0 0 Z " fill="#002459" transform="translate(620,694)"/>
<path d="M0 0 C0.99 0 1.98 0 3 0 C4.42976783 4.35813007 5.85377068 8.71808526 7.27246094 13.07983398 C7.75590503 14.56342333 8.24092125 16.04650134 8.72753906 17.52905273 C9.42666824 19.65996993 10.12012543 21.79266126 10.8125 23.92578125 C11.03123779 24.58838455 11.24997559 25.25098785 11.4753418 25.93367004 C12.38547586 28.75405555 13 31.01399134 13 34 C11.68 34 10.36 34 9 34 C8.34 31.69 7.68 29.38 7 27 C3.37 27 -0.26 27 -4 27 C-4.99 29.31 -5.98 31.62 -7 34 C-7.99 34 -8.98 34 -10 34 C-8.48020523 26.45701858 -6.26246686 19.24753545 -3.875 11.9375 C-3.50246094 10.78572266 -3.12992187 9.63394531 -2.74609375 8.44726562 C-1.83437981 5.63030331 -0.9189396 2.81461174 0 0 Z M1 8 C0.3299166 10.12392506 -0.33596797 12.24917524 -1 14.375 C-1.37125 15.55835938 -1.7425 16.74171875 -2.125 17.9609375 C-3.09222606 20.79323439 -3.09222606 20.79323439 -3 23 C-0.03 23 2.94 23 6 23 C5.54705135 21.24859857 5.08741252 19.49892656 4.625 17.75 C4.24214844 16.28820312 4.24214844 16.28820312 3.8515625 14.796875 C3.10401491 12.34162697 2.22876183 10.24382595 1 8 Z " fill="#002459" transform="translate(433,693)"/>
<path d="M0 0 C2.4375 1.9375 2.4375 1.9375 4 4 C4 4.66 4 5.32 4 6 C-0.875 5.125 -0.875 5.125 -2 4 C-4.95804573 3.66659529 -4.95804573 3.66659529 -8 4 C-10.2405416 6.74587807 -10.2405416 6.74587807 -9.9609375 9.5 C-8.63013793 12.96224277 -6.94339308 13.46709401 -3.625 15 C0.74887626 17.03114043 2.9926755 18.53164068 5 23 C4.79381443 28.97938144 4.79381443 28.97938144 2.71484375 31.65234375 C-0.43732207 34.12955834 -4.09441474 34.23247531 -8 34 C-11.5625 32.25 -11.5625 32.25 -14 30 C-14 29.01 -14 28.02 -14 27 C-11.83125748 27.50603992 -10.00032373 27.99983813 -8 29 C-6.62657169 29.0689472 -5.24997898 29.08467708 -3.875 29.0625 C-2.59625 29.041875 -1.3175 29.02125 0 29 C0 26.36 0 23.72 0 21 C-0.86625 20.7525 -1.7325 20.505 -2.625 20.25 C-7.07459725 18.60200102 -10.64341652 16.35658348 -14 13 C-14.50431963 9.96235384 -14.44942707 7.04310861 -14 4 C-10.14213247 -1.3211966 -6.12903666 -1.39785047 0 0 Z " fill="#002459" transform="translate(811,694)"/>
<path d="M0 0 C1.5 2.625 1.5 2.625 2 5 C-2.875 4.125 -2.875 4.125 -4 3 C-6.95804573 2.66659529 -6.95804573 2.66659529 -10 3 C-12.2405416 5.74587807 -12.2405416 5.74587807 -11.9609375 8.5 C-10.63013793 11.96224277 -8.94339308 12.46709401 -5.625 14 C-1.25112374 16.03114043 0.9926755 17.53164068 3 22 C2.79381443 27.97938144 2.79381443 27.97938144 0.71484375 30.65234375 C-2.43732207 33.12955834 -6.09441474 33.23247531 -10 33 C-13.5625 31.25 -13.5625 31.25 -16 29 C-16 28.01 -16 27.02 -16 26 C-13.83125748 26.50603992 -12.00032373 26.99983813 -10 28 C-5.85496339 28.24787017 -5.85496339 28.24787017 -2 27 C-2 25.02 -2 23.04 -2 21 C-2.75925781 20.60167969 -3.51851563 20.20335937 -4.30078125 19.79296875 C-5.29464844 19.26316406 -6.28851563 18.73335937 -7.3125 18.1875 C-8.29863281 17.66542969 -9.28476562 17.14335938 -10.30078125 16.60546875 C-14.38320587 14.17728276 -14.38320587 14.17728276 -16 12 C-16.62299536 8.95237404 -16.5041362 6.06359691 -16 3 C-14.21034608 0.44335155 -13.06004117 -0.6437206 -10.1171875 -1.6328125 C-6.53151653 -2.25468164 -3.29026664 -1.50743494 0 0 Z " fill="#002459" transform="translate(299,695)"/>
<path d="M0 0 C4.28048254 0.04096156 7.16662438 0.88018085 10.8125 3.25 C12.67753664 6.98007327 12.36178766 11.18782611 11.8125 15.25 C9.76275694 18.38866907 8.38370467 19.86663768 4.69921875 20.765625 C2.74804523 21.0290161 0.77883069 21.15001708 -1.1875 21.25 C-1.1875 25.21 -1.1875 29.17 -1.1875 33.25 C-2.5075 33.25 -3.8275 33.25 -5.1875 33.25 C-5.21215392 28.71102295 -5.23033789 24.17208457 -5.24243164 19.63305664 C-5.2474714 18.08780234 -5.2543032 16.54255284 -5.26293945 14.99731445 C-5.27502076 12.78074971 -5.28073173 10.56424782 -5.28515625 8.34765625 C-5.29031754 7.6528566 -5.29547882 6.95805695 -5.30079651 6.24220276 C-5.30099277 4.5777067 -5.24939129 2.91334501 -5.1875 1.25 C-3.63659185 -0.30090815 -2.15053767 0.04322689 0 0 Z M-1.1875 3.25 C-1.1875 8.2 -1.1875 13.15 -1.1875 18.25 C4.46504597 17.75736811 4.46504597 17.75736811 7.1875 15.5625 C9.3030232 12.55194775 9.34979721 10.85756699 8.8125 7.25 C7.85701019 5.29374022 7.85701019 5.29374022 5.8125 4.25 C3.5025 3.92 1.1925 3.59 -1.1875 3.25 Z " fill="#002459" transform="translate(82.1875,693.75)"/>
<path d="M0 0 C1.9375 1.375 1.9375 1.375 3 3 C3 3.99 3 4.98 3 6 C-0.875 5.125 -0.875 5.125 -2 4 C-4.95817107 3.74994614 -4.95817107 3.74994614 -8 4 C-10.15931527 5.8272323 -10.15931527 5.8272323 -10.625 8.3125 C-9.85600935 11.61915979 -9.11559524 11.87768451 -6.3125 13.625 C-4.88407297 14.43292238 -3.44689737 15.22564196 -2 16 C2.91044776 18.82089552 2.91044776 18.82089552 4 21 C4.58394161 28.24087591 4.58394161 28.24087591 2.125 31.4375 C-1.08542323 33.79810532 -2.5272393 34.11769288 -6.4375 33.6875 C-7.21996094 33.60886719 -8.00242187 33.53023437 -8.80859375 33.44921875 C-11 33 -11 33 -14 31 C-14 29.68 -14 28.36 -14 27 C-11.62251075 27.52833095 -9.74713197 28.12967591 -7.5625 29.25 C-4.89901904 30.34201313 -4.89901904 30.34201313 -2.1875 28.625 C-1.465625 28.08875 -0.74375 27.5525 0 27 C-0.03955479 24.60634746 -0.03955479 24.60634746 -1 22 C-3.67509299 20.04862709 -3.67509299 20.04862709 -6.9375 18.5 C-12.66881036 15.60360477 -12.66881036 15.60360477 -14.38671875 12.47265625 C-15.18783677 9.24267087 -14.94917831 7.18652718 -14 4 C-9.80498038 -1.17385753 -6.34563074 -1.35977802 0 0 Z " fill="#002459" transform="translate(523,694)"/>
<path d="M0 0 C1.9375 1.375 1.9375 1.375 3 3 C3 3.99 3 4.98 3 6 C-0.875 5.125 -0.875 5.125 -2 4 C-4.95817107 3.74994614 -4.95817107 3.74994614 -8 4 C-10.15931527 5.8272323 -10.15931527 5.8272323 -10.625 8.3125 C-9.85600935 11.61915979 -9.11559524 11.87768451 -6.3125 13.625 C-4.88407297 14.43292238 -3.44689737 15.22564196 -2 16 C2.91044776 18.82089552 2.91044776 18.82089552 4 21 C4.58394161 28.24087591 4.58394161 28.24087591 2.125 31.4375 C-1.08542323 33.79810532 -2.5272393 34.11769288 -6.4375 33.6875 C-7.21996094 33.60886719 -8.00242187 33.53023437 -8.80859375 33.44921875 C-11 33 -11 33 -14 31 C-14 29.68 -14 28.36 -14 27 C-11.62251075 27.52833095 -9.74713197 28.12967591 -7.5625 29.25 C-4.89901904 30.34201313 -4.89901904 30.34201313 -2.1875 28.625 C-1.465625 28.08875 -0.74375 27.5525 0 27 C-0.03955479 24.60634746 -0.03955479 24.60634746 -1 22 C-3.67509299 20.04862709 -3.67509299 20.04862709 -6.9375 18.5 C-12.66881036 15.60360477 -12.66881036 15.60360477 -14.38671875 12.47265625 C-15.18783677 9.24267087 -14.94917831 7.18652718 -14 4 C-9.80498038 -1.17385753 -6.34563074 -1.35977802 0 0 Z " fill="#002459" transform="translate(265,694)"/>
<path d="M0 0 C4.95 0 9.9 0 15 0 C15 0.99 15 1.98 15 3 C11.04 3 7.08 3 3 3 C3 6.63 3 10.26 3 14 C6.96 14 10.92 14 15 14 C15 14.99 15 15.98 15 17 C11.04 17 7.08 17 3 17 C3 21.29 3 25.58 3 30 C6.96 30 10.92 30 15 30 C15 30.99 15 31.98 15 33 C10.05 33 5.1 33 0 33 C0 22.11 0 11.22 0 0 Z " fill="#002459" transform="translate(221,694)"/>
<path d="M0 0 C1.39456452 0.00667256 2.78911118 0.01863093 4.18359375 0.03515625 C4.89451172 0.03966797 5.60542969 0.04417969 6.33789062 0.04882812 C8.09899388 0.06064761 9.86005411 0.07858362 11.62109375 0.09765625 C11.62109375 1.08765625 11.62109375 2.07765625 11.62109375 3.09765625 C7.66109375 3.09765625 3.70109375 3.09765625 -0.37890625 3.09765625 C-0.37890625 6.72765625 -0.37890625 10.35765625 -0.37890625 14.09765625 C3.58109375 14.09765625 7.54109375 14.09765625 11.62109375 14.09765625 C11.62109375 15.08765625 11.62109375 16.07765625 11.62109375 17.09765625 C7.66109375 17.09765625 3.70109375 17.09765625 -0.37890625 17.09765625 C-0.37890625 22.37765625 -0.37890625 27.65765625 -0.37890625 33.09765625 C-1.69890625 33.09765625 -3.01890625 33.09765625 -4.37890625 33.09765625 C-4.40356017 28.5586792 -4.42174414 24.01974082 -4.43383789 19.48071289 C-4.43887765 17.93545859 -4.44570945 16.39020909 -4.4543457 14.8449707 C-4.46642701 12.62840596 -4.47213798 10.41190407 -4.4765625 8.1953125 C-4.48172379 7.50051285 -4.48688507 6.8057132 -4.49220276 6.08985901 C-4.49239902 4.42536295 -4.44079754 2.76100126 -4.37890625 1.09765625 C-3.37890625 0.09765625 -3.37890625 0.09765625 0 0 Z " fill="#002459" transform="translate(856.37890625,693.90234375)"/>
<path d="M0 0 C4.95 0 9.9 0 15 0 C15 0.99 15 1.98 15 3 C11.04 3 7.08 3 3 3 C3 6.63 3 10.26 3 14 C6.96 14 10.92 14 15 14 C15 14.99 15 15.98 15 17 C11.04 17 7.08 17 3 17 C3 22.28 3 27.56 3 33 C2.01 33 1.02 33 0 33 C0 22.11 0 11.22 0 0 Z " fill="#002459" transform="translate(190,694)"/>
<path d="M0 0 C1.32 0.33 2.64 0.66 4 1 C4 10.57 4 20.14 4 30 C7.96 30 11.92 30 16 30 C16.33 30.99 16.66 31.98 17 33 C11.39 33 5.78 33 0 33 C0 22.11 0 11.22 0 0 Z " fill="#002459" transform="translate(590,694)"/>
<path d="M0 0 C6.27 0 12.54 0 19 0 C19 0.99 19 1.98 19 3 C16.36 3 13.72 3 11 3 C11 12.9 11 22.8 11 33 C10.01 33 9.02 33 8 33 C8 23.1 8 13.2 8 3 C5.36 3 2.72 3 0 3 C0 2.01 0 1.02 0 0 Z " fill="#002459" transform="translate(656,694)"/>
<path d="M0 0 C0.99 0 1.98 0 3 0 C3 9.9 3 19.8 3 30 C7.29 30 11.58 30 16 30 C16 30.99 16 31.98 16 33 C10.72 33 5.44 33 0 33 C0 22.11 0 11.22 0 0 Z " fill="#002459" transform="translate(460,694)"/>
<path d="M0 0 C1.32 0 2.64 0 4 0 C4 10.89 4 21.78 4 33 C2.68 33 1.36 33 0 33 C0 22.11 0 11.22 0 0 Z " fill="#002459" transform="translate(883,694)"/>
<path d="M0 0 C0.99 0 1.98 0 3 0 C3 10.89 3 21.78 3 33 C2.01 33 1.02 33 0 33 C0 22.11 0 11.22 0 0 Z " fill="#002459" transform="translate(689,694)"/>
<path d="M0 0 C0.99 0 1.98 0 3 0 C3 10.89 3 21.78 3 33 C2.01 33 1.02 33 0 33 C0 22.11 0 11.22 0 0 Z " fill="#002459" transform="translate(317,694)"/>
</svg>
