<?xml version="1.0" encoding="UTF-8"?>
<svg version="1.1" xmlns="http://www.w3.org/2000/svg" width="415" height="376">
<path d="M0 0 C-1.57313172 4.72843614 -4.20641235 8.3433843 -7.125 12.3125 C-7.82689453 13.28026367 -7.82689453 13.28026367 -8.54296875 14.26757812 C-9.6905929 15.84848894 -10.84465477 17.42472301 -12 19 C-15.57100098 18.18401604 -18.43684896 16.83318525 -21.6875 15.125 C-38.50541956 6.58288982 -58.52140744 4.98741477 -76.61328125 10.6796875 C-97.17497269 18.69566409 -111.15494563 33.06654318 -120 53 C-127.03479926 71.71216058 -126.73475414 90.81328004 -118.4296875 109.16796875 C-109.55359638 126.75038969 -95.48931235 139.17824353 -77 146 C-54.61651575 153.11990248 -36.66376022 149.33188011 -16 139 C-15.67 127.78 -15.34 116.56 -15 105 C-29.19 105 -43.38 105 -58 105 C-58 97.41 -58 89.82 -58 82 C-50.1329719 81.9095384 -42.2662293 81.83619204 -34.39882374 81.79275131 C-30.74542185 81.77189907 -27.09239503 81.74362592 -23.43920898 81.69824219 C-19.91193151 81.65469814 -16.3850142 81.63084511 -12.85748863 81.62049103 C-10.86050401 81.60953126 -8.86366376 81.57831852 -6.86689758 81.54681396 C-5.64600937 81.54651184 -4.42512115 81.54620972 -3.16723633 81.54589844 C-1.55840324 81.53257477 -1.55840324 81.53257477 0.08293152 81.51898193 C3.7169374 82.11822137 5.37406684 83.47107958 8 86 C9.33842177 88.67684354 9.14189968 90.74985421 9.16113281 93.74731445 C9.17074036 94.9522908 9.1803479 96.15726715 9.19024658 97.39875793 C9.1966214 99.36119698 9.1966214 99.36119698 9.203125 101.36328125 C9.20887745 102.71607973 9.21463518 104.0688782 9.22039795 105.42167664 C9.23090851 108.26053243 9.23675048 111.09935991 9.24023438 113.93823242 C9.24571261 117.56989637 9.26972551 121.20118415 9.29820633 124.83273029 C9.31686454 127.62862731 9.32204003 130.42443441 9.32357025 133.22038841 C9.32805764 135.20843726 9.34669097 137.19643791 9.36553955 139.18440247 C9.36253845 140.3988353 9.35953735 141.61326813 9.35644531 142.86450195 C9.36191376 144.46428642 9.36191376 144.46428642 9.36749268 146.09638977 C8.76908511 150.82449033 6.8918158 153.29403113 3.20703125 156.2109375 C2.08533455 156.94745916 0.95309748 157.66810181 -0.1875 158.375 C-0.79899902 158.75930176 -1.41049805 159.14360352 -2.04052734 159.53955078 C-24.24218395 173.08946251 -50.92696765 178.08464284 -76.4296875 172.03125 C-103.07531379 164.33492031 -124.67756476 148.90809122 -138.37109375 124.28515625 C-150.69948528 99.42142178 -152.48353475 72.39156327 -143.875 46 C-138.6224707 32.2746407 -131.34743833 21.33151919 -121 11 C-120.43023437 10.35933594 -119.86046875 9.71867187 -119.2734375 9.05859375 C-106.40043132 -5.16772846 -86.56491622 -13.12631518 -68 -16 C-67.11570312 -16.14179688 -66.23140625 -16.28359375 -65.3203125 -16.4296875 C-43.28218032 -19.17608087 -17.56860034 -14.1781687 0 0 Z " fill="#002459" transform="translate(227,147)"/>
<path d="M0 0 C8.12783899 -0.11306543 16.25506434 -0.20475139 24.38347912 -0.25906086 C28.1580501 -0.28512982 31.93205414 -0.32047629 35.70629883 -0.37719727 C39.35030481 -0.43161681 42.99376631 -0.46144086 46.63814735 -0.47438622 C48.02685427 -0.48360857 49.41553215 -0.50161853 50.80400658 -0.52865028 C52.75209744 -0.56506071 54.70073891 -0.56704339 56.64916992 -0.56762695 C58.31129768 -0.58428154 58.31129768 -0.58428154 60.00700378 -0.60127258 C63 0 63 0 65.85748291 1.74409485 C69.20010469 6.82375537 68.68842073 11.70793191 68.63110352 17.66210938 C68.63825882 18.94893616 68.64541412 20.23576294 68.65278625 21.56158447 C68.67129154 25.08710508 68.65836219 28.61186865 68.63869596 32.13735771 C68.62227251 35.83885406 68.63112877 39.5403038 68.63621521 43.24182129 C68.6407366 49.46602399 68.624875 55.68992628 68.59692383 61.9140625 C68.56498407 69.08100291 68.56484355 76.24739821 68.5821386 83.41437674 C68.59809047 90.33261957 68.59120762 97.25066513 68.57420158 104.16889954 C68.56737922 107.10001465 68.5683138 110.03096933 68.57574654 112.96208191 C68.58494077 117.07593177 68.56069299 121.18896437 68.53344727 125.30273438 C68.53997314 126.50113953 68.54649902 127.69954468 68.55322266 128.93426514 C68.35675641 146.50722655 61.2897325 159.81034676 49 172 C37.13404374 183.27469727 21.14362063 190.11668522 4.75 190.1875 C2.8525 190.125625 0.955 190.06375 -1 190 C-1 182.41 -1 174.82 -1 167 C1.35125 166.649375 3.7025 166.29875 6.125 165.9375 C18.75645532 163.71651346 30.04652949 158.40199115 38 148 C41.6833303 141.96466361 44.10191605 136.41517267 44.15821838 129.30499268 C44.1680072 128.36552292 44.17779602 127.42605316 44.18788147 126.45811462 C44.19363693 125.43456375 44.1993924 124.41101288 44.20532227 123.35644531 C44.21522186 122.27321487 44.22512146 121.18998444 44.23532104 120.07392883 C44.26691875 116.49201649 44.29168677 112.91009088 44.31640625 109.328125 C44.33697726 106.84519098 44.35797377 104.36226046 44.37937927 101.8793335 C44.42894155 96.01106457 44.47421084 90.1427748 44.51740164 84.27445579 C44.57166941 76.93684007 44.6326002 69.59928336 44.69335938 62.26171875 C44.8009223 49.17451683 44.90186752 36.08727603 45 23 C30.15 23 15.3 23 0 23 C0 15.41 0 7.82 0 0 Z " fill="#002459" transform="translate(1,133)"/>
<path d="M0 0 C126.06 0 252.12 0 382 0 C382 52.14 382 104.28 382 158 C379.03 158 376.06 158 373 158 C373 108.83 373 59.66 373 9 C252.55 9 132.1 9 8 9 C8 47.94 8 86.88 8 127 C5.36 127 2.72 127 0 127 C0 85.09 0 43.18 0 0 Z " fill="#002459" transform="translate(25,0)"/>
<path d="M0 0 C8.25822257 -0.11305962 16.51584137 -0.20474817 24.77463055 -0.25906086 C28.60973093 -0.2851312 32.44427343 -0.32048034 36.27905273 -0.37719727 C39.98141252 -0.43161164 43.68323649 -0.46143983 47.38596535 -0.47438622 C48.79699958 -0.48360947 50.20800518 -0.50162116 51.61881065 -0.52865028 C53.59803933 -0.56505405 55.5778097 -0.56704333 57.55737305 -0.56762695 C58.68322311 -0.57873001 59.80907318 -0.58983307 60.96903992 -0.60127258 C65.06672182 0.21161301 66.51835013 1.68247951 69 5 C69.62818909 7.95935059 69.62818909 7.95935059 69.63110352 11.27148438 C69.64363663 12.51627563 69.65616974 13.76106689 69.66908264 15.0435791 C69.65681387 16.39364674 69.64339377 17.74370434 69.62890625 19.09375 C69.62973555 20.48710312 69.63219723 21.88045614 69.63621521 23.27380371 C69.63906892 26.18918424 69.62441582 29.10379468 69.59692383 32.01904297 C69.56284004 35.74842011 69.56886233 39.4764209 69.5875864 43.20586395 C69.59817568 46.08163848 69.58920145 48.95709498 69.57420158 51.83283997 C69.56903334 53.20749465 69.56948508 54.58218274 69.57574654 55.95683289 C69.5812209 57.88077101 69.55792188 59.80472539 69.53344727 61.72851562 C69.5241494 63.36802185 69.5241494 63.36802185 69.5146637 65.04064941 C68.67084078 69.89268748 66.01747906 72.2720475 62.1171875 75.0625 C37.56533024 89.73445325 11.54363959 96.71315178 -16.90869141 89.77050781 C-23.19674358 88.09043907 -29.15326298 85.86899971 -35 83 C-35.93199219 82.54753906 -36.86398437 82.09507812 -37.82421875 81.62890625 C-44.55939672 78.16268495 -50.20622988 73.84363313 -56 69 C-57.05247925 68.4738208 -57.05247925 68.4738208 -58.1262207 67.93701172 C-60 66 -60 66 -60.36230469 62.0793457 C-60.31973142 60.44414624 -60.25480429 58.8094313 -60.171875 57.17578125 C-60.14401917 56.31438034 -60.11616333 55.45297943 -60.08746338 54.56547546 C-59.99406986 51.81340801 -59.87239091 49.06341565 -59.75 46.3125 C-59.68172864 44.44733296 -59.61529959 42.58209751 -59.55078125 40.71679688 C-59.38855715 36.14346295 -59.20095776 31.57178908 -59 27 C-56.73979908 29.9663665 -54.7879716 32.98535189 -52.875 36.1875 C-42.52303295 52.39338604 -25.58743024 62.35108868 -7.125 66.8125 C10.51812918 70.17862333 25.79956398 66.79659174 41.3046875 58.390625 C44 57 44 57 46 57 C46 45.78 46 34.56 46 23 C30.82 23 15.64 23 0 23 C0 15.41 0 7.82 0 0 Z " fill="#002459" transform="translate(306,229)"/>
<path d="M0 0 C2.97 0 5.94 0 9 0 C9 50.82 9 101.64 9 154 C-117.06 154 -243.12 154 -373 154 C-373 139.15 -373 124.3 -373 109 C-369.04 108.01 -369.04 108.01 -365 107 C-365 119.54 -365 132.08 -365 145 C-244.55 145 -124.1 145 0 145 C0 97.15 0 49.3 0 0 Z " fill="#002459" transform="translate(398,222)"/>
<path d="M0 0 C-1.32120828 2.93230193 -2.74638197 4.98664899 -5.0390625 7.234375 C-5.61914062 7.80800781 -6.19921875 8.38164062 -6.796875 8.97265625 C-7.40015625 9.55917969 -8.0034375 10.14570313 -8.625 10.75 C-9.23601562 11.35199219 -9.84703125 11.95398438 -10.4765625 12.57421875 C-11.97988624 14.05405305 -13.48934856 15.52764676 -15 17 C-18.52545329 15.72820096 -21.6138123 14.09102715 -24.80419922 12.13085938 C-40.20243308 2.77475394 -59.16132252 1.11604688 -76.75 5.1875 C-78.51518604 5.74574332 -80.26662957 6.3496583 -82 7 C-83.47919922 7.51046875 -83.47919922 7.51046875 -84.98828125 8.03125 C-103.18627612 14.87573092 -116.20876703 29.04587454 -124.5703125 46.2265625 C-128.02591214 54.5655245 -129.59979677 63.13204621 -131 72 C-136 70 -136 70 -138.38671875 68.9140625 C-141.56737616 67.80154556 -144.45350185 67.57857565 -147.8125 67.375 C-148.97394531 67.30023438 -150.13539063 67.22546875 -151.33203125 67.1484375 C-152.65267578 67.07496094 -152.65267578 67.07496094 -154 67 C-153.9250882 45.79996091 -144.13667177 25.44382977 -130 10 C-129.2678125 9.19820312 -128.535625 8.39640625 -127.78125 7.5703125 C-95.87346661 -25.79803843 -35.32860542 -32.4641239 0 0 Z " fill="#002459" transform="translate(372,151)"/>
<path d="M0 0 C116.16 0 232.32 0 352 0 C352 46.86 352 93.72 352 142 C351.01 142 350.02 142 349 142 C349 96.13 349 50.26 349 3 C234.82 3 120.64 3 3 3 C3 38.97 3 74.94 3 112 C2.01 112 1.02 112 0 112 C0 75.04 0 38.08 0 0 Z " fill="#002459" transform="translate(39,15)"/>
<path d="M0 0 C0.99 0 1.98 0 3 0 C3 46.2 3 92.4 3 140 C-113.16 140 -229.32 140 -349 140 C-349 129.44 -349 118.88 -349 108 C-348.01 108 -347.02 108 -346 108 C-346 117.57 -346 127.14 -346 137 C-231.82 137 -117.64 137 0 137 C0 91.79 0 46.58 0 0 Z " fill="#002459" transform="translate(388,221)"/>
<path d="M0 0 C5.04345768 2.23576682 8.44365888 6.03672918 12.3125 9.875 C13.06595703 10.59558594 13.81941406 11.31617188 14.59570312 12.05859375 C15.30275391 12.75855469 16.00980469 13.45851562 16.73828125 14.1796875 C17.38837158 14.81632324 18.03846191 15.45295898 18.70825195 16.10888672 C20 18 20 18 19.94238281 19.98193359 C18.73959051 22.55765411 17.2166151 24.1215319 15.18359375 26.109375 C14.41982422 26.86347656 13.65605469 27.61757812 12.86914062 28.39453125 C11.66547852 29.56048828 11.66547852 29.56048828 10.4375 30.75 C9.22803711 31.93916016 9.22803711 31.93916016 7.99414062 33.15234375 C6.00266222 35.10847046 4.00452279 37.05725719 2 39 C-3.04345768 36.76423318 -6.44365888 32.96327082 -10.3125 29.125 C-11.06595703 28.40441406 -11.81941406 27.68382812 -12.59570312 26.94140625 C-13.30275391 26.24144531 -14.00980469 25.54148438 -14.73828125 24.8203125 C-15.71341675 23.86535889 -15.71341675 23.86535889 -16.70825195 22.89111328 C-18 21 -18 21 -17.94238281 19.01806641 C-16.73959051 16.44234589 -15.2166151 14.8784681 -13.18359375 12.890625 C-12.41982422 12.13652344 -11.65605469 11.38242188 -10.86914062 10.60546875 C-10.06669922 9.82816406 -9.26425781 9.05085937 -8.4375 8.25 C-7.63119141 7.45722656 -6.82488281 6.66445312 -5.99414062 5.84765625 C-4.00266222 3.89152954 -2.00452279 1.94274281 0 0 Z " fill="#002459" transform="translate(395,170)"/>
</svg>
