<?xml version="1.0" encoding="UTF-8"?>
<svg version="1.1" xmlns="http://www.w3.org/2000/svg" width="1045" height="728">
<path d="M0 0 C-1.57313172 4.72843614 -4.20641235 8.3433843 -7.125 12.3125 C-7.82689453 13.28026367 -7.82689453 13.28026367 -8.54296875 14.26757812 C-9.6905929 15.84848894 -10.84465477 17.42472301 -12 19 C-15.96799773 18.40658773 -18.82312459 17.1370096 -22.3125 15.1875 C-38.846893 6.80926667 -57.44888075 5.360235 -75.1875 10.68359375 C-94.14742971 16.96021682 -108.03251071 29.3726325 -117.3125 46.9375 C-126.14717559 65.61302256 -127.33459914 84.47320267 -121.00390625 104.0859375 C-113.70514677 123.3304175 -99.61245556 136.04032175 -81.4375 144.875 C-64.68676955 151.90106836 -46.98273215 152.18996779 -30 146 C-25.38 143.69 -20.76 141.38 -16 139 C-15.67 127.78 -15.34 116.56 -15 105 C-29.19 105 -43.38 105 -58 105 C-58 97.41 -58 89.82 -58 82 C-50.26336312 81.93215003 -42.52683745 81.87714117 -34.78997517 81.84456348 C-31.19719171 81.82892561 -27.60462285 81.80772221 -24.01196289 81.77368164 C-20.54305609 81.74102035 -17.07435536 81.72313286 -13.60530663 81.71536827 C-11.64161248 81.70714982 -9.67800092 81.68374108 -7.71443176 81.66011047 C-6.5135643 81.65988388 -5.31269684 81.65965729 -4.07543945 81.65942383 C-3.02064896 81.65276199 -1.96585846 81.64610016 -0.87910461 81.63923645 C2.52385422 82.06564107 4.3218598 82.8634685 7 85 C9.0037554 88.59687443 9.25591836 91.72455589 9.2746582 95.79663086 C9.28419022 96.93809067 9.29372223 98.07955048 9.30354309 99.25559998 C9.30217598 101.09167564 9.30217598 101.09167564 9.30078125 102.96484375 C9.30506638 104.23090958 9.3093515 105.4969754 9.31376648 106.80140686 C9.31950577 109.47703971 9.32095008 112.15228628 9.31567383 114.82788086 C9.30988074 118.24529443 9.32681387 121.66216574 9.3500185 125.07948971 C9.36834953 128.35377006 9.36456952 131.62802136 9.36328125 134.90234375 C9.372491 136.12436996 9.38170074 137.34639618 9.39118958 138.60545349 C9.33288004 149.32050176 9.33288004 149.32050176 6 154 C3.75700569 155.88641573 1.69665057 157.4401199 -0.75 159 C-1.41032227 159.42933838 -2.07064453 159.85867676 -2.75097656 160.30102539 C-23.8018984 173.54136716 -50.92890745 177.79289085 -75.25585938 172.87280273 C-93.23068413 168.52205871 -107.73067622 159.68358113 -121 147 C-121.68707031 146.38769531 -122.37414062 145.77539062 -123.08203125 145.14453125 C-139.21230648 130.22323128 -148.25477083 106.77911812 -149.37890625 85.15625 C-150.17967697 58.47525102 -142.77380571 34.05741245 -124.234375 14.3359375 C-123.12835938 13.17964844 -123.12835938 13.17964844 -122 12 C-121.38640625 11.31164062 -120.7728125 10.62328125 -120.140625 9.9140625 C-90.03502505 -22.63600924 -35.33643332 -24.29379791 0 0 Z " fill="#002459" transform="translate(542,146)"/>
<path d="M0 0 C-0.61583055 3.1137257 -1.63787677 5.24829807 -3.43359375 7.85546875 C-4.1596582 8.91217773 -4.1596582 8.91217773 -4.90039062 9.99023438 C-5.40763672 10.71533203 -5.91488281 11.44042969 -6.4375 12.1875 C-6.94087891 12.92419922 -7.44425781 13.66089844 -7.96289062 14.41992188 C-11.73745382 19.86872691 -11.73745382 19.86872691 -14 21 C-15.7897972 20.00600189 -17.53220258 18.9263125 -19.25 17.8125 C-32.56153316 9.9077891 -46.79614833 8.0057144 -61.90625 10.6953125 C-76.77852026 14.54270416 -88.99889096 23.4795976 -97.46875 36.32421875 C-103.08221923 46.13346982 -106.39958993 56.38842882 -106.375 67.6875 C-106.37338867 68.46915527 -106.37177734 69.25081055 -106.37011719 70.05615234 C-106.22142121 77.17752339 -104.69710663 83.39770774 -102 90 C-101.566875 91.10021484 -101.566875 91.10021484 -101.125 92.22265625 C-95.15023493 105.6392046 -83.58119327 115.04075243 -70.3671875 120.74609375 C-54.9463648 126.4886507 -40.4472619 126.2634136 -25.265625 119.84375 C-23.48925235 118.93611434 -21.74049146 117.97467522 -20 117 C-19.34 117 -18.68 117 -18 117 C-18 108.75 -18 100.5 -18 92 C-20.63613281 92.01160156 -23.27226562 92.02320313 -25.98828125 92.03515625 C-28.53995646 92.04295384 -31.09163034 92.04902661 -33.64331055 92.05493164 C-35.41740513 92.059962 -37.19149556 92.06678699 -38.96557617 92.07543945 C-41.51482161 92.08756174 -44.06401226 92.09324126 -46.61328125 92.09765625 C-47.80405022 92.10539818 -47.80405022 92.10539818 -49.01887512 92.11329651 C-52.27656286 92.11362877 -54.88681521 92.03772826 -58 91 C-58 83.41 -58 75.82 -58 68 C-55.02991167 67.00997056 -53.06504982 66.86783509 -49.96533203 66.85473633 C-48.94061798 66.84835648 -47.91590393 66.84197662 -46.86013794 66.83540344 C-45.75387054 66.83429062 -44.64760315 66.8331778 -43.5078125 66.83203125 C-42.36972137 66.82870285 -41.23163025 66.82537445 -40.05905151 66.82194519 C-37.64988611 66.81687928 -35.24071369 66.81453676 -32.83154297 66.81469727 C-29.14669209 66.81251286 -25.46214155 66.79435903 -21.77734375 66.77539062 C-19.43750102 66.77245623 -17.09765688 66.77047174 -14.7578125 66.76953125 C-13.1044841 66.75875298 -13.1044841 66.75875298 -11.41775513 66.74775696 C-10.38673676 66.75083359 -9.35571838 66.75391022 -8.29345703 66.75708008 C-6.93802292 66.75494255 -6.93802292 66.75494255 -5.5552063 66.75276184 C-1.56971284 67.13839257 1.20443673 68.34413917 4.28149414 70.88085938 C6.95864016 75.73996118 6.55095209 80.44766092 6.49609375 85.90625 C6.49754898 87.06370728 6.49900421 88.22116455 6.50050354 89.41369629 C6.4988454 91.85801717 6.48729383 94.30234859 6.46655273 96.74658203 C6.43760485 100.48645408 6.44594552 104.2249079 6.45898438 107.96484375 C6.45274663 110.34115272 6.44435542 112.71745721 6.43359375 115.09375 C6.43652939 116.2115686 6.43946503 117.32938721 6.44248962 118.4810791 C6.42980545 119.52566284 6.41712128 120.57024658 6.40405273 121.64648438 C6.39864975 122.5618396 6.39324677 123.47719482 6.38768005 124.42028809 C5.78750082 128.41401827 4.00722658 131.08543826 1.046875 133.7734375 C-17.98079313 147.04102922 -40.11504888 152.8399865 -63.22412109 149.17944336 C-70.93851502 147.78215075 -77.95017929 145.44086621 -85 142 C-85.88816406 141.59265625 -86.77632813 141.1853125 -87.69140625 140.765625 C-107.71074826 130.85794482 -120.69849315 112.80993519 -128.38671875 92.30078125 C-134.68410147 71.15483295 -132.25362489 48.12466044 -122.20507812 28.66381836 C-111.45324857 8.81978799 -94.76123496 -5.4331837 -73.17578125 -12.25390625 C-46.93284644 -19.783084 -22.69472797 -13.90268641 0 0 Z " fill="#002459" transform="translate(356,483)"/>
<path d="M0 0 C2.44921875 2.25 2.44921875 2.25 4 4 C-0.23824366 10.40469079 -4.48239422 16.78829206 -9 23 C-12.34538777 21.71740434 -15.4703409 20.25588724 -18.625 18.5625 C-32.8426534 11.5162143 -48.67280184 10.68428883 -63.7578125 15.68359375 C-80.89043847 22.63985273 -90.97720003 34.57630176 -98.3828125 51.08203125 C-103.31689578 64.52136998 -102.80897644 80.95242364 -97 94 C-89.59900145 109.31939213 -77.53546466 118.87084677 -61.91015625 125 C-47.53758529 129.93876264 -33.59616749 128.66309026 -19.8125 122.3125 C-18.93207031 121.87550781 -18.05164063 121.43851563 -17.14453125 120.98828125 C-15 120 -15 120 -13 120 C-13 111.75 -13 103.5 -13 95 C-15.63613281 95.01160156 -18.27226562 95.02320313 -20.98828125 95.03515625 C-23.53995646 95.04295384 -26.09163034 95.04902661 -28.64331055 95.05493164 C-30.41740513 95.059962 -32.19149556 95.06678699 -33.96557617 95.07543945 C-36.51482161 95.08756174 -39.06401226 95.09324126 -41.61328125 95.09765625 C-42.80405022 95.10539818 -42.80405022 95.10539818 -44.01887512 95.11329651 C-47.27656286 95.11362877 -49.88681521 95.03772826 -53 94 C-53 86.41 -53 78.82 -53 71 C-50.0403746 70.0134582 -48.06988642 69.86232569 -44.98120117 69.83886719 C-43.95971481 69.82925964 -42.93822845 69.8196521 -41.88578796 69.80975342 C-40.23109245 69.8033786 -40.23109245 69.8033786 -38.54296875 69.796875 C-37.4072493 69.79117493 -36.27152985 69.78547485 -35.10139465 69.77960205 C-32.69643079 69.77015047 -30.29145396 69.76361744 -27.88647461 69.75976562 C-24.21249712 69.75006599 -20.5390804 69.71904574 -16.86523438 69.6875 C-14.52864916 69.68096928 -12.19205993 69.67571908 -9.85546875 69.671875 C-8.7584111 69.6595282 -7.66135345 69.6471814 -6.53105164 69.63446045 C3.44481441 69.66350043 3.44481441 69.66350043 8 73 C12.30823325 77.56778595 11.44944089 83.75315781 11.43359375 89.65234375 C11.4388356 90.78523331 11.44407745 91.91812286 11.44947815 93.08534241 C11.45589428 95.47835471 11.45456668 97.87139857 11.44604492 100.2644043 C11.43753842 103.92098296 11.46629896 107.57599761 11.49804688 111.23242188 C11.49965911 113.55989537 11.49908094 115.88737162 11.49609375 118.21484375 C11.50732773 119.30562729 11.51856171 120.39641083 11.53013611 121.52024841 C11.47390676 127.66101803 11.13490832 131.34250112 7 136 C-9.93832269 149.79950162 -32.64922566 154.90290275 -54.05566406 152.79785156 C-75.42260324 150.05318899 -95.15192897 139.71362172 -108.69921875 122.70703125 C-122.57557069 104.43855239 -128.98547601 82.63560283 -126.3125 59.8125 C-123.9857039 42.97936183 -117.43197426 27.63533997 -106 15 C-105.33484375 14.24203125 -104.6696875 13.4840625 -103.984375 12.703125 C-77.3467273 -15.90768179 -32.71280723 -19.86827675 0 0 Z " fill="#002459" transform="translate(204,480)"/>
<path d="M0 0 C0.70511719 0.64324219 1.41023437 1.28648437 2.13671875 1.94921875 C3.45736328 3.11517578 3.45736328 3.11517578 4.8046875 4.3046875 C20.39710298 18.86477754 27.97104724 37.77979159 29.13671875 58.94921875 C29.30747111 79.80235039 22.20992162 99.52337675 8.13671875 114.94921875 C7.61980469 115.55765625 7.10289062 116.16609375 6.5703125 116.79296875 C-6.50453483 131.21134676 -27.28143766 139.11228027 -46.33984375 140.07421875 C-67.43376071 140.56053384 -87.27766478 133.7096293 -102.625 119.12109375 C-103.36363281 118.404375 -104.10226562 117.68765625 -104.86328125 116.94921875 C-105.48847656 116.3975 -106.11367188 115.84578125 -106.7578125 115.27734375 C-120.2222931 102.99822375 -127.16702445 83.59240721 -128.1484375 65.7421875 C-128.86556212 43.28081991 -121.26325531 22.14616355 -105.82104492 5.6796875 C-78.15896103 -22.30773326 -30.43215161 -25.79487136 0 0 Z M-96.86328125 19.94921875 C-108.51571021 34.93912263 -113.46618052 51.11207766 -111.86328125 69.94921875 C-108.78956524 87.96818866 -98.68662085 102.39784667 -84.42578125 113.38671875 C-70.83971133 122.69569259 -55.80027765 125.6373203 -39.5703125 123.51953125 C-26.74232348 120.98830808 -15.41635798 114.80084579 -5.86328125 105.94921875 C-4.81914063 104.98628906 -4.81914063 104.98628906 -3.75390625 104.00390625 C7.18702827 92.85093812 12.94922451 77.05324341 13.57421875 61.63671875 C13.05750432 43.78854131 5.59243293 27.68305095 -6.86328125 14.94921875 C-13.2076708 9.51515156 -20.14578305 5.14767954 -27.86328125 1.94921875 C-28.63285156 1.62953125 -29.40242187 1.30984375 -30.1953125 0.98046875 C-54.11955548 -7.15754146 -80.33146198 1.7592679 -96.86328125 19.94921875 Z " fill="#002459" transform="translate(797.86328125,489.05078125)"/>
<path d="M0 0 C-0.62393651 3.76119476 -2.34773715 6.18960042 -4.5625 9.25 C-5.20316406 10.14203125 -5.84382812 11.0340625 -6.50390625 11.953125 C-6.99761719 12.62859375 -7.49132812 13.3040625 -8 14 C-9.0621875 13.51789063 -10.124375 13.03578125 -11.21875 12.5390625 C-12.6456801 11.90069903 -14.07277217 11.26269754 -15.5 10.625 C-16.54414062 10.14933594 -16.54414062 10.14933594 -17.609375 9.6640625 C-31.99442539 3.27070677 -48.90541274 2.61702431 -63.86328125 7.6796875 C-79.60832462 14.30711547 -91.90209565 25.24410067 -98.85693359 40.93310547 C-105.45295852 57.32610669 -106.50472824 74.41461299 -99.78125 91.0078125 C-91.99329466 107.92498215 -79.17219683 118.36669653 -62 125 C-49.04541118 129.52301191 -35.96792283 129.23163798 -23 125 C-16.07 121.535 -16.07 121.535 -9 118 C-8.67 107.44 -8.34 96.88 -8 86 C-20.21 86 -32.42 86 -45 86 C-45 81.05 -45 76.1 -45 71 C-37.93418687 70.92594283 -30.86859875 70.87144153 -23.80249023 70.83520508 C-21.39782782 70.82010184 -18.99319302 70.79961792 -16.58862305 70.77368164 C-13.13583569 70.73736649 -9.68341196 70.720289 -6.23046875 70.70703125 C-5.15226364 70.69154739 -4.07405853 70.67606354 -2.96318054 70.66011047 C-1.96236954 70.65988388 -0.96155853 70.65965729 0.06958008 70.65942383 C0.95116287 70.65276199 1.83274567 70.64610016 2.74104309 70.63923645 C5 71 5 71 6.77992249 72.20761108 C8.39536075 74.58081574 8.40564224 76.15608363 8.45166016 79.01879883 C8.4740274 80.04028519 8.49639465 81.06177155 8.5194397 82.11421204 C8.52591522 83.21734238 8.53239075 84.32047272 8.5390625 85.45703125 C8.55141937 86.5927507 8.56377625 87.72847015 8.57650757 88.89860535 C8.5960914 91.30352619 8.60730898 93.70852741 8.61083984 96.11352539 C8.62490866 99.7886386 8.69220855 103.46033795 8.76171875 107.13476562 C8.77411904 109.47133904 8.78333769 111.80793194 8.7890625 114.14453125 C8.81578033 115.2415889 8.84249817 116.33864655 8.87002563 117.46894836 C8.80385919 124.92046218 8.80385919 124.92046218 6.5181427 127.99005127 C4.74637183 129.54667443 3.02411313 130.79455256 1 132 C0.35421997 132.39155273 -0.29156006 132.78310547 -0.95690918 133.18652344 C-2.79101051 134.25324266 -4.65371455 135.19888996 -6.5625 136.125 C-7.25287354 136.464104 -7.94324707 136.80320801 -8.65454102 137.15258789 C-17.89913202 141.55019214 -27.72063412 144.56539446 -38 145 C-38.763125 145.03996094 -39.52625 145.07992187 -40.3125 145.12109375 C-59.61396454 145.64693493 -78.82390946 139.33025788 -93.3125 126.5 C-94.88238605 125.00773192 -96.44554566 123.50833615 -98 122 C-98.62519531 121.44828125 -99.25039063 120.8965625 -99.89453125 120.328125 C-113.35901185 108.049005 -120.3037432 88.64318846 -121.28515625 70.79296875 C-121.99200362 48.6534992 -114.65992579 27.63399463 -99.47241211 11.30444336 C-72.15581334 -16.60288436 -32.63489157 -18.09633288 0 0 Z " fill="#002459" transform="translate(551,484)"/>
<path d="M0 0 C7.99745081 -0.09045709 15.9945023 -0.16380494 23.99232769 -0.20724869 C27.70626049 -0.22810212 31.41982441 -0.25637755 35.13354492 -0.30175781 C38.71917648 -0.34529746 42.3044538 -0.369154 45.89032936 -0.37950897 C47.25667712 -0.38688594 48.62300602 -0.40129181 49.9892025 -0.42292023 C51.90626405 -0.45205572 53.82368391 -0.45363476 55.7409668 -0.45410156 C56.83128708 -0.46298401 57.92160736 -0.47186646 59.04496765 -0.48101807 C62.70536642 0.11481904 64.35912944 1.4499738 67 4 C68.26929639 6.53859278 68.13442798 8.31464033 68.14717102 11.15753174 C68.15432632 12.25071716 68.16148163 13.34390259 68.16885376 14.47021484 C68.17154266 15.67532715 68.17423157 16.88043945 68.17700195 18.12207031 C68.18357315 19.38734558 68.19014435 20.65262085 68.19691467 21.95623779 C68.21797949 26.16352058 68.22832855 30.37080378 68.23828125 34.578125 C68.2423298 36.02963022 68.24644675 37.48113524 68.25063133 38.93264008 C68.26969895 45.76169969 68.28391906 52.59074848 68.2922433 59.41982961 C68.30198132 67.27794796 68.32820348 75.13578204 68.36874419 82.9938004 C68.39905267 89.07978641 68.41372657 95.16569173 68.41702431 101.25175166 C68.41936077 104.87964532 68.42813348 108.50723591 68.45348549 112.13504791 C68.4814195 116.19860696 68.47689055 120.2615459 68.4699707 124.32519531 C68.48278076 125.50601685 68.49559082 126.68683838 68.50878906 127.90344238 C68.39002899 147.17891639 60.54666072 160.42697704 47.2890625 173.71484375 C33.98148647 185.9513222 17.54413684 190.05815686 0 191 C-0.66 190.67 -1.32 190.34 -2 190 C-2 182.41 -2 174.82 -2 167 C0.26875 166.7525 2.5375 166.505 4.875 166.25 C18.58142163 164.507081 28.56966867 158.76262251 37.49609375 148.1171875 C41.6951198 142.20583135 44.10035065 135.58469045 44.15821838 128.34295654 C44.1680072 127.41190094 44.17779602 126.48084534 44.18788147 125.52157593 C44.19363693 124.50737579 44.1993924 123.49317566 44.20532227 122.44824219 C44.21522186 121.37476532 44.22512146 120.30128845 44.23532104 119.19528198 C44.26691722 115.64583545 44.29168616 112.09637553 44.31640625 108.546875 C44.33697739 106.0863612 44.35797391 103.62585092 44.37937927 101.16534424 C44.43458335 94.68809867 44.48400004 88.21082129 44.53222656 81.73352051 C44.58245368 75.12440153 44.63813344 68.51532876 44.69335938 61.90625 C44.80092064 48.937538 44.90186636 35.96878677 45 23 C30.15 23 15.3 23 0 23 C0 15.41 0 7.82 0 0 Z " fill="#002459" transform="translate(316,132)"/>
<path d="M0 0 C0.65062912 -0.00287018 1.30125824 -0.00574036 1.97160339 -0.00869751 C3.35436875 -0.01073941 4.73716291 -0.00520062 6.11987305 0.00732422 C8.1854372 0.02309371 10.24895773 0.00763364 12.31445312 -0.01171875 C28.44883864 -0.03970796 44.67729112 2.90707257 56.98046875 14.1484375 C66.60073166 24.79870715 68.22386828 38.70005782 67.5703125 52.44433594 C66.69028286 63.7324084 61.84452341 74.71696768 53.41796875 82.3984375 C47.18632436 86.98252428 40.59262023 90.54211399 33.41796875 93.3984375 C32.05285156 93.94564453 32.05285156 93.94564453 30.66015625 94.50390625 C29.55027344 94.94669922 29.55027344 94.94669922 28.41796875 95.3984375 C28.96324219 95.99269531 29.50851562 96.58695313 30.0703125 97.19921875 C34.85302272 102.45611221 39.4329105 107.82337425 43.90234375 113.34765625 C46.84722236 116.91900748 49.875263 120.41046844 52.91796875 123.8984375 C57.46158763 129.11220086 61.9260621 134.37413001 66.2734375 139.75390625 C67.82314645 141.66493167 69.39054578 143.56165751 70.96875 145.44921875 C71.79761719 146.44308594 72.62648438 147.43695312 73.48046875 148.4609375 C74.23457031 149.35941406 74.98867188 150.25789062 75.765625 151.18359375 C77.41796875 153.3984375 77.41796875 153.3984375 77.41796875 155.3984375 C62.8492746 156.91953086 62.8492746 156.91953086 57.30859375 153.453125 C54.78765385 150.89304007 52.58403001 148.26309485 50.41796875 145.3984375 C49.30228294 144.11941931 48.17791818 142.84789318 47.04296875 141.5859375 C46.49640625 140.94785156 45.94984375 140.30976562 45.38671875 139.65234375 C42.82818339 136.72322688 40.18748009 133.87485337 37.54296875 131.0234375 C33.22523717 126.36463917 28.94875317 121.67324779 24.7109375 116.94140625 C23.01432464 115.05981346 21.30974693 113.18797727 19.59375 111.32421875 C19.107854 110.79642822 18.62195801 110.2686377 18.12133789 109.72485352 C16.74749519 108.2346969 15.37184945 106.74620317 13.99609375 105.2578125 C11.39381171 102.37164515 8.90579433 99.3838282 6.41796875 96.3984375 C6.08796875 115.5384375 5.75796875 134.6784375 5.41796875 154.3984375 C0.46796875 154.3984375 -4.48203125 154.3984375 -9.58203125 154.3984375 C-9.651425 134.76231535 -9.7049878 115.12622774 -9.73746777 95.49000835 C-9.75294842 86.37293516 -9.77406078 77.25593947 -9.80834961 68.13891602 C-9.83821534 60.1941699 -9.85759753 52.2494799 -9.86429673 44.30467921 C-9.86821381 40.09645284 -9.87744419 35.88838703 -9.89922142 31.68021202 C-9.91954203 27.72154087 -9.92587409 23.76309686 -9.92135429 19.80437851 C-9.92218149 18.34948684 -9.92817357 16.89458779 -9.93964767 15.43974113 C-9.95452074 13.45713126 -9.94920941 11.47440028 -9.9427948 9.491745 C-9.94556018 8.38098445 -9.94832556 7.2702239 -9.95117474 6.12580395 C-9.58203125 3.3984375 -9.58203125 3.3984375 -8.24474049 1.54186726 C-5.59371743 -0.28121677 -3.17449213 0.00899714 0 0 Z M5.41796875 16.3984375 C5.41796875 37.5184375 5.41796875 58.6384375 5.41796875 80.3984375 C20.06310774 80.3984375 32.37250592 79.7535589 43.41796875 69.3984375 C51.34775279 59.91573742 52.31713241 50.30943658 51.41796875 38.3984375 C50.04393486 31.35305565 46.64569484 26.55356968 41.06640625 22.09375 C29.84644807 14.91165287 18.86230601 16.3984375 5.41796875 16.3984375 Z " fill="#002459" transform="translate(589.58203125,473.6015625)"/>
<path d="M0 0 C8.12783446 -0.09045229 16.25527614 -0.16380224 24.38347912 -0.20724869 C28.15794293 -0.22810327 31.93204385 -0.2563809 35.70629883 -0.30175781 C39.3502845 -0.3452932 42.99392164 -0.36915313 46.63814735 -0.37950897 C48.02682289 -0.38688669 49.41547985 -0.40129401 50.80400658 -0.42292023 C52.75220431 -0.45205017 54.70075447 -0.45363471 56.64916992 -0.45410156 C57.7572551 -0.46298401 58.86534027 -0.47186646 60.00700378 -0.48101807 C63.69375322 0.11149624 65.34428957 1.4288506 68 4 C69.34526675 6.69053349 69.15696038 8.81062278 69.19287109 11.82324219 C69.20893402 13.0450116 69.22499695 14.26678101 69.24154663 15.52557373 C69.253035 16.86600041 69.26364339 18.20643487 69.2734375 19.546875 C69.27876118 20.22157082 69.28408485 20.89626663 69.28956985 21.59140778 C69.31629844 25.16444258 69.33567186 28.73744253 69.35009766 32.31054688 C69.36342413 35.26333689 69.39125092 38.21543369 69.43212891 41.16796875 C69.48153418 44.73652229 69.50622829 48.30444823 69.51332474 51.87332916 C69.52327313 53.88857948 69.55749981 55.90366287 69.59213257 57.91864014 C69.56856427 68.12629613 69.56856427 68.12629613 66.66992188 71.73339844 C62.44470645 75.32034979 62.44470645 75.32034979 60.7578125 76.34375 C60.17443115 76.70001465 59.5910498 77.0562793 58.98999023 77.42333984 C58.06682007 77.95628662 58.06682007 77.95628662 57.125 78.5 C56.14478882 79.07355225 56.14478882 79.07355225 55.14477539 79.65869141 C33.00600633 92.269282 6.38112778 96.4113367 -18.47265625 89.76855469 C-33.94786508 85.19916455 -48.52093166 77.47906834 -60 66 C-60.17532289 63.13111419 -60.23137614 60.36007355 -60.1953125 57.4921875 C-60.1924826 56.65156769 -60.18965271 55.81094788 -60.18673706 54.94485474 C-60.1755243 52.25475954 -60.15041803 49.5649949 -60.125 46.875 C-60.1149716 45.05339022 -60.10584551 43.23177523 -60.09765625 41.41015625 C-60.07558142 36.93997642 -60.04104434 32.47004429 -60 28 C-59.34 28 -58.68 28 -58 28 C-56.86837461 29.79149138 -55.82053867 31.63616648 -54.8125 33.5 C-45.16181892 50.36891591 -29.2627297 60.76355839 -10.8125 66.4375 C7.32693804 70.82119753 23.50178064 67.56258458 39.9453125 59.42578125 C43 58 43 58 45 58 C45 46.45 45 34.9 45 23 C30.15 23 15.3 23 0 23 C0 15.41 0 7.82 0 0 Z " fill="#002459" transform="translate(621,228)"/>
<path d="M0 0 C126.39 0 252.78 0 383 0 C383 51.81 383 103.62 383 157 C380.03 157 377.06 157 374 157 C374 107.83 374 58.66 374 8 C253.55 8 133.1 8 9 8 C9 46.94 9 85.88 9 126 C6.03 126 3.06 126 0 126 C0 84.42 0 42.84 0 0 Z " fill="#002459" transform="translate(339,0)"/>
<path d="M0 0 C2.47960136 0.14024219 4.95852402 0.2869185 7.4375 0.4375 C8.14455078 0.47681641 8.85160156 0.51613281 9.58007812 0.55664062 C14.88671875 0.88671875 14.88671875 0.88671875 16 2 C16.10606719 5.13315191 16.14677342 8.2443798 16.14526367 11.37817383 C16.14862228 12.36366211 16.1519809 13.34915039 16.15544128 14.36450195 C16.16499212 17.64535767 16.16689717 20.92616247 16.16796875 24.20703125 C16.17118103 26.48614015 16.17454508 28.76524884 16.17805481 31.0443573 C16.18405819 35.83711219 16.18589373 40.62984903 16.18530273 45.42260742 C16.18520163 51.54099946 16.19879491 57.6592741 16.21607494 63.77763844 C16.22724509 68.49365257 16.22922032 73.2096389 16.22869301 77.9256649 C16.22986784 80.17932219 16.23426154 82.43298031 16.24202538 84.68662453 C16.33349039 114.00765957 16.33349039 114.00765957 10.3125 125.25 C9.95655762 125.9318335 9.60061523 126.61366699 9.23388672 127.31616211 C2.62162063 139.60638432 -7.55940062 147.93513788 -21 152 C-35.04754538 155.48204029 -49.66285189 154.55550189 -62.4375 147.25 C-63.98671574 146.20765854 -65.50872316 145.12367189 -67 144 C-67.77859375 143.41347656 -68.5571875 142.82695313 -69.359375 142.22265625 C-79.86429754 133.60368457 -86.22542582 121.42839528 -88 108 C-88.13896586 104.49846831 -88.12639356 101.0004557 -88.11352539 97.49658203 C-88.11367142 96.45207382 -88.11381744 95.40756561 -88.1139679 94.33140564 C-88.11327305 90.89018656 -88.10550066 87.44902208 -88.09765625 84.0078125 C-88.09579055 81.61742177 -88.09436736 79.22703065 -88.09336853 76.8366394 C-88.08955532 70.55337463 -88.07973522 64.27013306 -88.06866455 57.98687744 C-88.05842473 51.57198399 -88.0538654 45.15708677 -88.04882812 38.7421875 C-88.03811189 26.16144815 -88.02104982 13.58072601 -88 1 C-82.72 1 -77.44 1 -72 1 C-71.99120064 2.95865494 -71.99120064 2.95865494 -71.98222351 4.95687866 C-71.92491358 17.28601349 -71.85210856 29.61497335 -71.76428509 41.94392967 C-71.71963224 48.28177993 -71.68036471 54.61956665 -71.65356445 60.95751953 C-71.62748106 67.07845708 -71.58704253 73.19914949 -71.53681374 79.31993484 C-71.52017915 81.65056932 -71.50864372 83.98124617 -71.50238609 86.31193161 C-71.49270811 89.58630587 -71.46460376 92.86005776 -71.43237305 96.13427734 C-71.43452568 97.56711563 -71.43452568 97.56711563 -71.4367218 99.02890015 C-71.27749727 110.52989878 -67.86325636 119.50928515 -60 128 C-51.97674086 134.43954893 -42.25305732 137.81373471 -32 137 C-23.36329127 136.00890228 -15.66551644 132.18905087 -9.6875 125.8125 C-2.28356135 116.34723753 -0.86428041 106.29286079 -0.79467773 94.68017578 C-0.78477814 93.65517471 -0.77487854 92.63017365 -0.76467896 91.57411194 C-0.73317929 88.19786868 -0.70835219 84.82161136 -0.68359375 81.4453125 C-0.66301427 79.09975832 -0.64201753 76.75420776 -0.62062073 74.40866089 C-0.56550281 68.24380434 -0.51604825 62.07891489 -0.46777344 55.91400146 C-0.41748328 49.61972129 -0.36183647 43.32548873 -0.30664062 37.03125 C-0.19918481 24.6875407 -0.097712 12.34379001 0 0 Z " fill="#002459" transform="translate(930,475)"/>
<path d="M0 0 C6.62045315 -0.04590453 13.24035437 -0.08573263 19.86083984 -0.10986328 C22.11313752 -0.11992253 24.36542214 -0.13357146 26.61767578 -0.15087891 C29.85452498 -0.17513031 33.09120155 -0.1864839 36.328125 -0.1953125 C37.33554749 -0.20563507 38.34296997 -0.21595764 39.38092041 -0.22659302 C40.32159363 -0.22674408 41.26226685 -0.22689514 42.23144531 -0.22705078 C43.05751282 -0.231492 43.88358032 -0.23593323 44.73468018 -0.24050903 C47.40069721 0.04254203 48.81444975 0.42594775 51 2 C54.59657556 7.18552049 54.42707366 12.12086094 54.38818359 18.18945312 C54.39344055 19.20171967 54.39869751 20.21398621 54.40411377 21.25692749 C54.41729917 24.59852613 54.40857526 27.9396466 54.3984375 31.28125 C54.4004599 33.61568289 54.40337273 35.95011516 54.40713501 38.2845459 C54.41155746 43.18031827 54.40513433 48.07592642 54.39111328 52.97167969 C54.37409749 59.21424844 54.38381491 65.45642804 54.40183067 71.69898224 C54.41273545 76.52403629 54.40919031 81.34900005 54.4014473 86.17405701 C54.39945979 88.47350613 54.40185302 90.77296372 54.40888596 93.07240295 C54.45811084 113.70624822 53.51310649 131.83736207 38.3125 147.375 C25.43710455 159.85106458 9.71649816 165.11100563 -8 165 C-8.99 164.67 -9.98 164.34 -11 164 C-11 156.41 -11 148.82 -11 141 C-8.40125 140.608125 -5.8025 140.21625 -3.125 139.8125 C7.88743701 137.94587885 17.1814994 134.3493851 24 125 C27.40654217 118.8002969 28.58857097 113.55611409 28.54589844 106.53295898 C28.55623611 105.63431625 28.56657379 104.73567352 28.57722473 103.80979919 C28.60646561 100.8717104 28.60814793 97.93431609 28.609375 94.99609375 C28.62436929 92.94628094 28.64109905 90.89648015 28.65948486 88.84669495 C28.70303021 83.47589539 28.72312908 78.10525879 28.73822021 72.73431396 C28.75783755 67.24400244 28.79980234 61.75386571 28.83984375 56.26367188 C28.91500725 45.50913907 28.96331493 34.75473296 29 24 C19.43 24 9.86 24 0 24 C0 16.08 0 8.16 0 0 Z " fill="#002459" transform="translate(11,470)"/>
<path d="M0 0 C2.97 0 5.94 0 9 0 C9 50.82 9 101.64 9 154 C-117.39 154 -243.78 154 -374 154 C-374 139.48 -374 124.96 -374 110 C-369 108 -369 108 -365 108 C-365 120.21 -365 132.42 -365 145 C-244.55 145 -124.1 145 0 145 C0 97.15 0 49.3 0 0 Z " fill="#002459" transform="translate(713,221)"/>
<path d="M0 0 C1.16998535 0.00491455 2.3399707 0.0098291 3.54541016 0.01489258 C21.36161632 0.25314249 38.55402817 2.17997216 51.87890625 15.12109375 C61.01848801 24.85032594 62.27532997 36.79737097 62.15234375 49.68359375 C61.44831581 61.57526576 57.01256293 74.21181225 47.9375 82.3125 C32.6899672 93.50509017 18.86997211 96.3125 -0.0625 96.3125 C-0.0625 115.4525 -0.0625 134.5925 -0.0625 154.3125 C-5.0125 154.3125 -9.9625 154.3125 -15.0625 154.3125 C-15.13187279 134.52872315 -15.18544575 114.74498052 -15.21793652 94.96110725 C-15.23342184 85.7756245 -15.25454305 76.59021859 -15.28881836 67.40478516 C-15.31866987 59.40108499 -15.33806288 51.39744046 -15.34476548 43.39368618 C-15.34868498 39.15363422 -15.35793062 34.91374145 -15.37969017 30.67374039 C-15.39998838 26.68634563 -15.40634743 22.69917628 -15.40182304 18.71173477 C-15.40265125 17.24513526 -15.4086566 15.77852854 -15.42011642 14.31197357 C-15.43495457 12.3158762 -15.42968633 10.31965903 -15.42326355 8.32351685 C-15.42602893 7.20446016 -15.42879431 6.08540348 -15.43164349 4.93243599 C-15.30982614 4.06785711 -15.18800879 3.20327824 -15.0625 2.3125 C-10.3768268 -0.81128213 -5.51418898 -0.02679053 0 0 Z M-0.0625 15.3125 C-0.0625 37.0925 -0.0625 58.8725 -0.0625 81.3125 C13.78176267 81.3125 26.62578243 79.76819351 37.2890625 70.203125 C44.92069547 62.15522114 46.92330488 54.29952245 46.9375 43.3125 C46.31720272 35.48547612 43.93652617 28.92637406 38.03125 23.58984375 C27.0351221 15.48219148 13.0532193 15.3125 -0.0625 15.3125 Z " fill="#002459" transform="translate(983.0625,473.6875)"/>
<path d="M0 0 C0.65677734 0.21962402 1.31355469 0.43924805 1.99023438 0.66552734 C12.34568362 4.2483505 21.29922595 9.37941101 30 16 C27.97699054 20.43626553 25.02132242 23.38251359 21.625 26.8125 C21.0475 27.42287109 20.47 28.03324219 19.875 28.66210938 C19.02808594 29.5196582 19.02808594 29.5196582 18.1640625 30.39453125 C17.65311035 30.91893799 17.1421582 31.44334473 16.61572266 31.98364258 C15 33 15 33 12.99829102 32.77172852 C9.90463223 31.57697526 7.14300339 29.83137504 4.3125 28.125 C-11.81778867 18.67017891 -30.80665354 17.48502242 -48.85375977 22.02978516 C-67.80841012 27.41869972 -81.80920707 40.01850695 -91.6796875 56.8671875 C-96.84261076 66.55087938 -100.12353396 77.04417449 -101 88 C-104 88 -104 88 -106.19921875 86.57421875 C-109.6592164 84.62947809 -112.93520363 84.21692613 -116.8125 83.8125 C-117.50537109 83.73064453 -118.19824219 83.64878906 -118.91210938 83.56445312 C-120.60686984 83.36575707 -122.30330194 83.18140797 -124 83 C-124.5023303 64.05796151 -115.92742404 45.39907655 -104 31 C-103.30132813 30.15050781 -102.60265625 29.30101562 -101.8828125 28.42578125 C-77.05179114 -0.42592151 -36.36441011 -12.18594594 0 0 Z " fill="#002459" transform="translate(657,134)"/>
<path d="M0 0 C116.16 0 232.32 0 352 0 C352 46.86 352 93.72 352 142 C351.01 142 350.02 142 349 142 C349 96.13 349 50.26 349 3 C234.49 3 119.98 3 2 3 C2 38.97 2 74.94 2 112 C1.34 112 0.68 112 0 112 C0 75.04 0 38.08 0 0 Z " fill="#002459" transform="translate(354,14)"/>
<path d="M0 0 C0.99 0 1.98 0 3 0 C3 45.87 3 91.74 3 139 C-113.16 139 -229.32 139 -349 139 C-349 128.44 -349 117.88 -349 107 C-348.34 107 -347.68 107 -347 107 C-347 116.57 -347 126.14 -347 136 C-232.49 136 -117.98 136 0 136 C0 91.12 0 46.24 0 0 Z " fill="#002459" transform="translate(703,221)"/>
<path d="M0 0 C7.15801225 5.82628904 13.52591766 12.4382985 20 19 C18.5735422 22.2586636 16.83295838 24.4024854 14.3046875 26.890625 C13.58925781 27.59960938 12.87382813 28.30859375 12.13671875 29.0390625 C11.39035156 29.76867187 10.64398437 30.49828125 9.875 31.25 C8.74384766 32.36761719 8.74384766 32.36761719 7.58984375 33.5078125 C5.73099228 35.3431342 3.86762995 37.1736191 2 39 C-1.36335594 37.54254576 -3.54534005 35.68882146 -6.109375 33.0859375 C-6.86347656 32.32539063 -7.61757813 31.56484375 -8.39453125 30.78125 C-9.17183594 29.9871875 -9.94914063 29.193125 -10.75 28.375 C-11.54277344 27.57320312 -12.33554687 26.77140625 -13.15234375 25.9453125 C-15.10614493 23.96797154 -17.05512103 21.98611091 -19 20 C-14.93161827 15.1088516 -10.65561922 10.52649247 -6.125 6.0625 C-5.23554687 5.17981445 -5.23554687 5.17981445 -4.328125 4.27929688 C-2.88773534 2.85052326 -1.4442033 1.42491868 0 0 Z " fill="#A0885D" transform="translate(710,169)"/>
<path d="M0 0 C3 1 3 1 4.44213867 3.40844727 C5.17267456 4.97163696 5.17267456 4.97163696 5.91796875 6.56640625 C6.44970703 7.69111328 6.98144531 8.81582031 7.52929688 9.97460938 C8.07650391 11.15861328 8.62371094 12.34261719 9.1875 13.5625 C9.74630859 14.75037109 10.30511719 15.93824219 10.88085938 17.16210938 C12.26314495 20.10389663 13.63569089 23.04984351 15 26 C17.34246093 23.0830855 18.95361144 20.2075173 20.48046875 16.796875 C20.92197266 15.8171875 21.36347656 14.8375 21.81835938 13.828125 C22.27017578 12.81234375 22.72199219 11.7965625 23.1875 10.75 C23.88262695 9.203125 23.88262695 9.203125 24.59179688 7.625 C25.73231581 5.08528773 26.86820243 2.54360789 28 0 C28.99 0 29.98 0 31 0 C31 11.22 31 22.44 31 34 C30.01 34 29.02 34 28 34 C27.67 27.07 27.34 20.14 27 13 C23.7 20.26 20.4 27.52 17 35 C16.01 35 15.02 35 14 35 C10.7 27.74 7.4 20.48 4 13 C3.67 19.93 3.34 26.86 3 34 C2.01 34 1.02 34 0 34 C0 22.78 0 11.56 0 0 Z " fill="#002459" transform="translate(937,693)"/>
<path d="M0 0 C4.66156716 4.01111592 7.30028417 7.88745847 7.78125 14.1640625 C7.57655999 18.85487515 6.39648754 23.29501327 3.32421875 26.921875 C-0.72120291 30.47599222 -4.38561663 32.13408487 -9.6875 32.625 C-15.67052322 32.10922214 -19.68663162 30.32465313 -23.6875 25.875 C-27.43000305 21.40200839 -27.79188861 17.06516337 -27.3125 11.3125 C-25.50957572 6.07030169 -23.10286115 2.27796167 -18.3125 -0.6875 C-12.05277083 -3.67509801 -6.06981044 -3.09216758 0 0 Z M-22.125 7.75 C-24.14669989 12.11261556 -24.68703882 14.77414226 -23.1875 19.375 C-21.35628031 23.84756422 -18.61563234 26.16093383 -14.3125 28.3125 C-9.63779208 28.88281437 -6.18933502 28.75091751 -1.9375 26.625 C2.12306246 23.04783783 3.51149256 20.87142301 4.125 15.4375 C3.93191279 10.79463039 2.40539897 8.05879317 -0.3125 4.3125 C-3.94046506 1.09915952 -7.41097541 0.78937847 -12.09765625 0.9609375 C-16.69687381 1.69097203 -19.42239225 4.11545854 -22.125 7.75 Z " fill="#002459" transform="translate(734.3125,695.6875)"/>
<path d="M0 0 C4.69923362 4.0435266 7.39213609 8.29978817 8 14.5 C7.53345579 20.19183936 5.31959434 24.24518051 1.8125 28.6875 C-2.7974171 32.21273073 -7.63128765 32.90021162 -13.3125 32.3125 C-18.55536973 30.49274221 -22.34116409 28.11235032 -25.3125 23.3125 C-27.74292348 18.22018413 -27.63666988 13.69616877 -26.3125 8.3125 C-23.85174468 3.48212846 -21.01666779 0.95859438 -16.3125 -1.6875 C-10.66980203 -3.5069822 -5.21087589 -2.65459715 0 0 Z M-20.3125 5.3125 C-22.93004723 9.15156927 -23.91427588 12.59873837 -23.734375 17.28515625 C-22.97489432 20.93488285 -20.95702609 23.7375667 -18.3125 26.3125 C-14.12396977 28.89801249 -10.10630706 28.98662912 -5.3125 28.3125 C-0.92996446 26.12123223 1.85419816 23.89575461 3.6875 19.3125 C4.39812194 14.57502043 4.15839401 11.25428801 2 6.9375 C-0.90707355 3.63757867 -2.97048162 1.66380276 -7.421875 0.99609375 C-12.84939433 0.71378989 -16.16019754 1.55565492 -20.3125 5.3125 Z " fill="#002459" transform="translate(166.3125,695.6875)"/>
<path d="M0 0 C4.9653362 4.49244704 6.84932695 8.2135557 7.1875 14.8125 C6.94965497 20.39802211 5.54446668 24.34165051 1.625 28.375 C-2.61026036 31.56273328 -7.0542901 33.08376762 -12.36328125 32.75 C-17.9091314 31.71621046 -22.03254772 29.39777961 -25.375 24.8125 C-28.11478423 19.84373878 -28.28239365 14.90416502 -27.375 9.375 C-25.02296526 4.49000477 -21.68809314 1.51996375 -17.375 -1.625 C-11.61352552 -3.60924225 -5.37371913 -2.58734625 0 0 Z M-22.1875 7.125 C-23.93546437 10.43693248 -24.4823658 13.67445873 -24.375 17.375 C-22.97435409 21.57693774 -20.80176425 24.73083551 -17.2421875 27.44921875 C-13.37198661 29.36812589 -9.52765463 29.31311945 -5.375 28.375 C-1.16650172 25.97345327 1.84152023 22.91086921 3.625 18.375 C4.07962812 13.25096227 3.03409197 9.33715075 -0.25 5.375 C-3.32507382 2.03723143 -5.5978671 1.43869942 -10.1875 1.0625 C-15.43580286 1.13003331 -18.48846748 3.55352033 -22.1875 7.125 Z " fill="#002459" transform="translate(567.375,695.625)"/>
<path d="M0 0 C4.28467639 3.68681457 6.71841182 7.0840135 7.625 12.6875 C7.94332316 17.41459897 7.14832572 21.2436979 4.6875 25.3125 C0.71152099 29.80114105 -3.72836021 32.01995587 -9.625 32.6875 C-15.42605447 32.09756226 -19.61823746 30.05134839 -23.6875 25.875 C-26.82289513 20.93072306 -27.91373159 17.22461068 -27.3125 11.3125 C-25.49622032 6.06983324 -23.11040681 2.28263279 -18.3125 -0.6875 C-12.05277083 -3.67509801 -6.06981044 -3.09216758 0 0 Z M-22.1875 7.5 C-23.79297982 11.51369956 -23.98917379 15.04945511 -23.3125 19.3125 C-21.12123223 23.69503554 -18.89575461 26.47919816 -14.3125 28.3125 C-9.57502043 29.02312194 -6.25428801 28.78339401 -1.9375 26.625 C1.36242133 23.71792645 3.33619724 21.65451838 4.00390625 17.203125 C4.28703072 11.75982865 3.39310114 8.51885805 -0.3125 4.3125 C-4.00156706 1.15044252 -7.39140732 0.78866216 -12.09765625 0.9609375 C-16.61553401 1.67806095 -19.29876724 4.12981178 -22.1875 7.5 Z " fill="#002459" transform="translate(362.3125,695.6875)"/>
<path d="M0 0 C4.29461506 2.14730753 5.17120064 3.30309066 7.671875 7.2265625 C8.33574219 8.2578125 8.99960937 9.2890625 9.68359375 10.3515625 C10.36550781 11.43179688 11.04742188 12.51203125 11.75 13.625 C12.44738281 14.71296875 13.14476562 15.8009375 13.86328125 16.921875 C15.58406721 19.60912978 17.29315712 22.30386759 19 25 C19.33 17.08 19.66 9.16 20 1 C20.99 1 21.98 1 23 1 C23 12.22 23 23.44 23 35 C18.70538494 32.85269247 17.82879936 31.69690934 15.328125 27.7734375 C14.66425781 26.7421875 14.00039063 25.7109375 13.31640625 24.6484375 C12.63449219 23.56820312 11.95257812 22.48796875 11.25 21.375 C10.55261719 20.28703125 9.85523438 19.1990625 9.13671875 18.078125 C7.41593279 15.39087022 5.70684288 12.69613241 4 10 C3.67 17.92 3.34 25.84 3 34 C2.01 34 1.02 34 0 34 C0 22.78 0 11.56 0 0 Z " fill="#002459" transform="translate(757,693)"/>
<path d="M0 0 C0.99 0 1.98 0 3 0 C4.70166016 2.07958984 4.70166016 2.07958984 6.5390625 4.9609375 C7.20164062 5.98960937 7.86421875 7.01828125 8.546875 8.078125 C9.57554687 9.71007812 9.57554687 9.71007812 10.625 11.375 C11.31851562 12.45523438 12.01203125 13.53546875 12.7265625 14.6484375 C17.74441964 22.48883929 17.74441964 22.48883929 19 25 C19.33 17.08 19.66 9.16 20 1 C20.99 1 21.98 1 23 1 C23 12.22 23 23.44 23 35 C19.09369972 33.69789991 18.44406362 32.07052921 16.20703125 28.65234375 C15.49482422 27.57275391 14.78261719 26.49316406 14.04882812 25.38085938 C13.30320973 24.23318703 12.5577693 23.08539906 11.8125 21.9375 C11.05608256 20.78531849 10.29892966 19.63361946 9.54101562 18.48242188 C7.68675812 15.65969866 5.84244231 12.83044935 4 10 C3.67 17.92 3.34 25.84 3 34 C2.01 34 1.02 34 0 34 C0 22.78 0 11.56 0 0 Z " fill="#002459" transform="translate(385,693)"/>
<path d="M0 0 C11 0 11 0 14.125 1.875 C16.5734674 4.64992972 16.96678834 5.55994549 17.25 9.3125 C16.98118885 13.27746452 16.46797825 14.93630287 14 18 C12.35386443 19.03344834 10.68892048 20.03806166 9 21 C9.6496875 21.69867187 10.299375 22.39734375 10.96875 23.1171875 C11.8040625 24.02726563 12.639375 24.93734375 13.5 25.875 C14.3353125 26.77992188 15.170625 27.68484375 16.03125 28.6171875 C18 31 18 31 18 33 C13.1009995 32.59102482 11.3004017 30.60793633 8.1875 26.9375 C7.39730469 26.01839844 6.60710938 25.09929688 5.79296875 24.15234375 C5.20128906 23.44207031 4.60960937 22.73179687 4 22 C3.67 25.63 3.34 29.26 3 33 C2.01 33 1.02 33 0 33 C0 22.11 0 11.22 0 0 Z M3 3 C3 7.95 3 12.9 3 18 C8.70811092 17.10815151 8.70811092 17.10815151 13.125 13.75 C14.29215748 10.08179077 13.73485935 8.39429003 12 5 C8.82509129 2.59144857 7.24713894 3 3 3 Z " fill="#002459" transform="translate(904,694)"/>
<path d="M0 0 C11 0 11 0 14.125 1.875 C16.5734674 4.64992972 16.96678834 5.55994549 17.25 9.3125 C16.98118885 13.27746452 16.46797825 14.93630287 14 18 C12.35386443 19.03344834 10.68892048 20.03806166 9 21 C9.6496875 21.69867187 10.299375 22.39734375 10.96875 23.1171875 C11.8040625 24.02726563 12.639375 24.93734375 13.5 25.875 C14.3353125 26.77992188 15.170625 27.68484375 16.03125 28.6171875 C18 31 18 31 18 33 C13.1009995 32.59102482 11.3004017 30.60793633 8.1875 26.9375 C7.39730469 26.01839844 6.60710937 25.09929688 5.79296875 24.15234375 C5.20128906 23.44207031 4.60960938 22.73179687 4 22 C3.67 25.63 3.34 29.26 3 33 C2.01 33 1.02 33 0 33 C0 22.11 0 11.22 0 0 Z M3 3 C3 7.95 3 12.9 3 18 C8.70811092 17.10815151 8.70811092 17.10815151 13.125 13.75 C14.29215748 10.08179077 13.73485935 8.39429003 12 5 C8.82509129 2.59144857 7.24713894 3 3 3 Z " fill="#002459" transform="translate(109,694)"/>
<path d="M0 0 C0.99 0 1.98 0 3 0 C3.01981934 0.70608398 3.03963867 1.41216797 3.06005859 2.13964844 C3.15540415 5.34346994 3.26504513 8.54664801 3.375 11.75 C3.42140625 13.41675781 3.42140625 13.41675781 3.46875 15.1171875 C3.50742187 16.18710937 3.54609375 17.25703125 3.5859375 18.359375 C3.6173584 19.34389648 3.6487793 20.32841797 3.68115234 21.34277344 C4.00501299 24.0417775 4.5368138 25.72364368 6 28 C9.0832635 29.54163175 11.60878099 29.29747535 15 29 C18.11986924 25.94906072 18.40310209 23.3983981 18.51171875 19.140625 C18.54716797 18.02558594 18.58261719 16.91054688 18.61914062 15.76171875 C18.64169922 14.60285156 18.66425781 13.44398438 18.6875 12.25 C18.72166016 11.07566406 18.75582031 9.90132812 18.79101562 8.69140625 C18.87345173 5.79436611 18.94261811 2.89762702 19 0 C20.32 0 21.64 0 23 0 C23.08770383 3.85402129 23.14062735 7.70778291 23.1875 11.5625 C23.21263672 12.64853516 23.23777344 13.73457031 23.26367188 14.85351562 C23.31984905 21.01427878 23.14408902 25.62700281 20 31 C16.0246622 33.73856604 12.78858699 34.6983356 8 34 C4.03501779 31.86500958 1.58787986 30.2312708 0 26 C-0.22705078 23.15917969 -0.22705078 23.15917969 -0.1953125 19.921875 C-0.18886719 18.76171875 -0.18242188 17.6015625 -0.17578125 16.40625 C-0.15902344 15.1996875 -0.14226563 13.993125 -0.125 12.75 C-0.11597656 11.52796875 -0.10695313 10.3059375 -0.09765625 9.046875 C-0.07409513 6.03105218 -0.04119706 3.01562508 0 0 Z " fill="#002459" transform="translate(619,694)"/>
<path d="M0 0 C0.99 0.33 1.98 0.66 3 1 C4.16674805 3.7121582 4.16674805 3.7121582 5.26171875 7.30078125 C5.45723831 7.93356491 5.65275787 8.56634857 5.85420227 9.2183075 C6.26577737 10.55905536 6.67140084 11.90164241 7.0715332 13.24584961 C7.68314278 15.29788095 8.31349224 17.34339076 8.94726562 19.38867188 C12 29.39809975 12 29.39809975 12 34 C11.01 34 10.02 34 9 34 C7.74335022 31.09399739 7 29.20395416 7 26 C3.04 26 -0.92 26 -5 26 C-5.144375 26.94875 -5.28875 27.8975 -5.4375 28.875 C-6 32 -6 32 -7 34 C-7.99 34 -8.98 34 -10 34 C-9.42440739 26.65220055 -7.29549501 20.04128639 -5 13.0625 C-4.63132812 11.91458984 -4.26265625 10.76667969 -3.8828125 9.58398438 C-1.14465107 1.14465107 -1.14465107 1.14465107 0 0 Z M0 10 C-1.32 14.29 -2.64 18.58 -4 23 C-0.7 23 2.6 23 6 23 C4.68 18.71 3.36 14.42 2 10 C1.34 10 0.68 10 0 10 Z " fill="#002459" transform="translate(433,693)"/>
<path d="M0 0 C2 1.375 2 1.375 3 3 C3 3.99 3 4.98 3 6 C2.484375 5.855625 1.96875 5.71125 1.4375 5.5625 C-4.38129982 3.94841893 -4.38129982 3.94841893 -10 5 C-10 7.64 -10 10.28 -10 13 C-9.13375 13.2475 -8.2675 13.495 -7.375 13.75 C-2.92540275 15.39799898 0.64341652 17.64341652 4 21 C4.66898955 27.91289199 4.66898955 27.91289199 2.5 31.4375 C-0.88652429 33.55407768 -4.06302236 34.20402763 -8 34 C-11.4375 32.75 -11.4375 32.75 -14 31 C-14.33 30.01 -14.66 29.02 -15 28 C-13.125 27.375 -13.125 27.375 -11 27 C-10.34 27.66 -9.68 28.32 -9 29 C-5.41656024 29.16677282 -5.41656024 29.16677282 -2 29 C-1.34 27.35 -0.68 25.7 0 24 C-3.14285465 20.31056194 -6.72243278 18.40142526 -10.9765625 16.24609375 C-13 15 -13 15 -15 12 C-15.08203125 9.84375 -15.08203125 9.84375 -14.8125 7.5 C-14.73644531 6.7265625 -14.66039062 5.953125 -14.58203125 5.15625 C-13.89032726 2.59369563 -13.0747904 1.6241796 -11 0 C-7.08681577 -1.30439474 -3.98158936 -0.94562747 0 0 Z " fill="#002459" transform="translate(811,694)"/>
<path d="M0 0 C2.4375 1.375 2.4375 1.375 4 3 C4 3.99 4 4.98 4 6 C1.83125748 5.49396008 0.00032373 5.00016187 -2 4 C-5 3.66666667 -5 3.66666667 -8 4 C-10.2401952 6.74533667 -10.2401952 6.74533667 -9.9609375 9.49609375 C-8.63075656 12.96213433 -6.9359521 13.50261575 -3.625 15.0625 C0.24518027 16.90568612 2.79568394 18.2504657 5 22 C5.54638986 25.66861766 5.25423934 27.50257521 3.5625 30.8125 C0.42774289 33.48851216 -1.6878272 33.95931753 -5.73828125 34.20703125 C-9.33128577 33.87813792 -11.39802729 32.40182096 -14 30 C-14 29.01 -14 28.02 -14 27 C-9.125 27.875 -9.125 27.875 -8 29 C-3.85723125 29.24733137 -3.85723125 29.24733137 0 28 C0 26.02 0 24.04 0 22 C-0.75925781 21.61328125 -1.51851562 21.2265625 -2.30078125 20.828125 C-3.29464844 20.30734375 -4.28851562 19.7865625 -5.3125 19.25 C-6.29863281 18.73953125 -7.28476562 18.2290625 -8.30078125 17.703125 C-11.00078467 15.9995049 -12.40478045 14.73846023 -14 12 C-14.53561062 7.79163084 -14.46774118 5.74193428 -12.1875 2.125 C-8.2451049 -1.70475524 -5.12580068 -1.07911593 0 0 Z " fill="#002459" transform="translate(522,694)"/>
<path d="M0 0 C2 1.375 2 1.375 3 3 C3 3.99 3 4.98 3 6 C-0.875 5.125 -0.875 5.125 -2 4 C-4.67058851 3.85884839 -7.32432238 3.95752893 -10 4 C-10.66923762 7.28743547 -10.66923762 7.28743547 -10 11 C-7.61124255 13.19114734 -4.88351053 14.5529049 -2 16 C2.91044776 18.82089552 2.91044776 18.82089552 4 21 C4.57040998 28.07308378 4.57040998 28.07308378 2.5 31.4375 C-0.87855922 33.54909951 -4.06839517 34.2259543 -8 34 C-11.5 32.5625 -11.5 32.5625 -14 31 C-14 29.68 -14 28.36 -14 27 C-10.125 27.875 -10.125 27.875 -9 29 C-5.54187831 29.33338596 -5.54187831 29.33338596 -2 29 C0.18320367 26.32790699 0.18320367 26.32790699 -0.00390625 24.03125 C-1.53081401 20.91755575 -3.91046445 20.08370469 -6.9375 18.5 C-12.63913979 15.50986709 -12.63913979 15.50986709 -14.390625 13.03515625 C-15.42853655 9.56879779 -14.90517186 6.4587868 -14 3 C-10.48950702 -1.94660374 -5.31359533 -1.26197889 0 0 Z " fill="#002459" transform="translate(297,694)"/>
<path d="M0 0 C2.4375 1.375 2.4375 1.375 4 3 C4 3.99 4 4.98 4 6 C1.83125748 5.49396008 0.00032373 5.00016187 -2 4 C-5 3.66666667 -5 3.66666667 -8 4 C-10.2401952 6.74533667 -10.2401952 6.74533667 -9.9609375 9.49609375 C-8.63075656 12.96213433 -6.9359521 13.50261575 -3.625 15.0625 C0.24518027 16.90568612 2.79568394 18.2504657 5 22 C5.54638986 25.66861766 5.25423934 27.50257521 3.5625 30.8125 C0.42774289 33.48851216 -1.6878272 33.95931753 -5.73828125 34.20703125 C-9.33128577 33.87813792 -11.39802729 32.40182096 -14 30 C-14 29.01 -14 28.02 -14 27 C-9.125 27.875 -9.125 27.875 -8 29 C-3.85723125 29.24733137 -3.85723125 29.24733137 0 28 C0 26.02 0 24.04 0 22 C-0.75925781 21.61328125 -1.51851563 21.2265625 -2.30078125 20.828125 C-3.29464844 20.30734375 -4.28851563 19.7865625 -5.3125 19.25 C-6.29863281 18.73953125 -7.28476562 18.2290625 -8.30078125 17.703125 C-11.00078467 15.9995049 -12.40478045 14.73846023 -14 12 C-14.53561062 7.79163084 -14.46774118 5.74193428 -12.1875 2.125 C-8.2451049 -1.70475524 -5.12580068 -1.07911593 0 0 Z " fill="#002459" transform="translate(264,694)"/>
<path d="M0 0 C5.28 0 10.56 0 16 0 C16 0.99 16 1.98 16 3 C12.04 3 8.08 3 4 3 C4 6.63 4 10.26 4 14 C7.96 14 11.92 14 16 14 C15.67 14.99 15.34 15.98 15 17 C11.37 17 7.74 17 4 17 C4 21.29 4 25.58 4 30 C7.96 30 11.92 30 16 30 C16 30.99 16 31.98 16 33 C10.72 33 5.44 33 0 33 C0 22.11 0 11.22 0 0 Z " fill="#002459" transform="translate(220,694)"/>
<path d="M0 0 C11.57142857 0 11.57142857 0 15 3 C17.34018231 6.78963779 17.21662468 9.57150222 16.59375 13.875 C16 16 16 16 13.9375 18.5 C10.16358332 20.42710639 7.21725931 20.71408411 3 21 C3 24.96 3 28.92 3 33 C2.01 33 1.02 33 0 33 C0 22.11 0 11.22 0 0 Z M3 3 C3 7.95 3 12.9 3 18 C8.93164943 17.36237838 8.93164943 17.36237838 13 14 C13.62428826 11.20528898 13.67381283 8.78819101 13 6 C9.51174019 2.81073389 7.86864834 3 3 3 Z " fill="#002459" transform="translate(77,694)"/>
<path d="M0 0 C5.28 0 10.56 0 16 0 C16 0.99 16 1.98 16 3 C12.04 3 8.08 3 4 3 C4 6.63 4 10.26 4 14 C7.96 14 11.92 14 16 14 C15.67 14.99 15.34 15.98 15 17 C11.37 17 7.74 17 4 17 C4 22.28 4 27.56 4 33 C2.68 33 1.36 33 0 33 C0 22.11 0 11.22 0 0 Z " fill="#002459" transform="translate(189,694)"/>
<path d="M0 0 C4.95 0 9.9 0 15 0 C15 0.99 15 1.98 15 3 C11.04 3 7.08 3 3 3 C3 6.63 3 10.26 3 14 C6.96 14 10.92 14 15 14 C15 14.99 15 15.98 15 17 C11.04 17 7.08 17 3 17 C3 22.28 3 27.56 3 33 C2.01 33 1.02 33 0 33 C0 22.11 0 11.22 0 0 Z " fill="#002459" transform="translate(852,694)"/>
<path d="M0 0 C1.32 0 2.64 0 4 0 C4 9.9 4 19.8 4 30 C8.29 30 12.58 30 17 30 C17 30.99 17 31.98 17 33 C11.39 33 5.78 33 0 33 C0 22.11 0 11.22 0 0 Z " fill="#002459" transform="translate(459,694)"/>
<path d="M0 0 C6.27 0 12.54 0 19 0 C19 0.99 19 1.98 19 3 C16.36 3 13.72 3 11 3 C11 12.9 11 22.8 11 33 C10.01 33 9.02 33 8 33 C8 23.1 8 13.2 8 3 C5.36 3 2.72 3 0 3 C0 2.01 0 1.02 0 0 Z " fill="#002459" transform="translate(655,694)"/>
<path d="M0 0 C0.99 0 1.98 0 3 0 C3 9.9 3 19.8 3 30 C7.29 30 11.58 30 16 30 C16 30.99 16 31.98 16 33 C10.72 33 5.44 33 0 33 C0 22.11 0 11.22 0 0 Z " fill="#002459" transform="translate(590,694)"/>
<path d="M0 0 C1.32 0 2.64 0 4 0 C4 10.89 4 21.78 4 33 C2.68 33 1.36 33 0 33 C0 22.11 0 11.22 0 0 Z " fill="#002459" transform="translate(688,694)"/>
<path d="M0 0 C0.99 0 1.98 0 3 0 C3 10.89 3 21.78 3 33 C2.01 33 1.02 33 0 33 C0 22.11 0 11.22 0 0 Z " fill="#002459" transform="translate(883,694)"/>
<path d="M0 0 C0.99 0 1.98 0 3 0 C3 10.89 3 21.78 3 33 C2.01 33 1.02 33 0 33 C0 22.11 0 11.22 0 0 Z " fill="#002459" transform="translate(317,694)"/>
</svg>
