<?xml version="1.0" encoding="UTF-8"?>
<svg version="1.1" xmlns="http://www.w3.org/2000/svg" width="1582" height="376">
<path d="M0 0 C-1.57313172 4.72843614 -4.20641235 8.3433843 -7.125 12.3125 C-7.82689453 13.28026367 -7.82689453 13.28026367 -8.54296875 14.26757812 C-9.6905929 15.84848894 -10.84465477 17.42472301 -12 19 C-15.48253222 18.20577061 -18.16956709 16.90459336 -21.3125 15.1875 C-37.36076792 7.16336604 -56.37457434 4.99258613 -73.82421875 9.8359375 C-94.80847345 17.52758314 -109.59145411 30.81571631 -119.15869141 51.05664062 C-126.89651782 68.93043583 -126.84562062 88.19480694 -119.75 106.25 C-110.82934327 125.93333697 -97.01686665 137.86140541 -77.25 145.875 C-61.49600142 151.51227419 -45.76106657 151.66036504 -30 146 C-25.38 143.69 -20.76 141.38 -16 139 C-15.67 127.78 -15.34 116.56 -15 105 C-29.19 105 -43.38 105 -58 105 C-58 97.41 -58 89.82 -58 82 C-50.1329719 81.9095384 -42.2662293 81.83619204 -34.39882374 81.79275131 C-30.74542185 81.77189907 -27.09239503 81.74362592 -23.43920898 81.69824219 C-19.91193151 81.65469814 -16.3850142 81.63084511 -12.85748863 81.62049103 C-10.86050401 81.60953126 -8.86366376 81.57831852 -6.86689758 81.54681396 C-5.64600937 81.54651184 -4.42512115 81.54620972 -3.16723633 81.54589844 C-1.55840324 81.53257477 -1.55840324 81.53257477 0.08293152 81.51898193 C3.7169374 82.11822137 5.37406684 83.47107958 8 86 C9.33842177 88.67684354 9.14189968 90.74985421 9.16113281 93.74731445 C9.17074036 94.9522908 9.1803479 96.15726715 9.19024658 97.39875793 C9.1966214 99.36119698 9.1966214 99.36119698 9.203125 101.36328125 C9.20887745 102.71607973 9.21463518 104.0688782 9.22039795 105.42167664 C9.23090851 108.26053243 9.23675048 111.09935991 9.24023438 113.93823242 C9.24571261 117.56989637 9.26972551 121.20118415 9.29820633 124.83273029 C9.31686454 127.62862731 9.32204003 130.42443441 9.32357025 133.22038841 C9.32805764 135.20843726 9.34669097 137.19643791 9.36553955 139.18440247 C9.36253845 140.3988353 9.35953735 141.61326813 9.35644531 142.86450195 C9.36191376 144.46428642 9.36191376 144.46428642 9.36749268 146.09638977 C8.76908511 150.82449033 6.8918158 153.29403113 3.20703125 156.2109375 C2.08556063 156.94780336 0.95328999 157.66841252 -0.1875 158.375 C-0.80334961 158.76002686 -1.41919922 159.14505371 -2.05371094 159.54174805 C-24.46829352 173.16911556 -50.69046212 178.19655059 -76.46484375 172.03125 C-103.08984347 164.26439925 -124.67866285 148.93397941 -138.37109375 124.28125 C-150.04347237 100.76854486 -152.78498898 74.09381477 -144.74609375 48.94140625 C-139.64150265 33.98955903 -132.05878373 22.193033 -121 11 C-120.42894531 10.35675781 -119.85789062 9.71351563 -119.26953125 9.05078125 C-109.45748288 -1.77021811 -95.6075921 -8.37855363 -82 -13 C-80.94296875 -13.3609375 -79.8859375 -13.721875 -78.796875 -14.09375 C-52.77438197 -21.15513002 -21.64072711 -16.21663741 0 0 Z " fill="#002459" transform="translate(227,147)"/>
<path d="M0 0 C-0.4146323 5.3902199 -3.51941315 9.06129627 -6.5625 13.3125 C-7.08263672 14.05306641 -7.60277344 14.79363281 -8.13867188 15.55664062 C-9.41843118 17.37648184 -10.70562218 19.19054184 -12 21 C-15.67314066 19.60926377 -19.04646147 17.92684154 -22.5 16.0625 C-37.03925547 8.79287227 -51.96524382 8.1508391 -67.45703125 12.7421875 C-83.6043534 18.47475391 -93.96406735 29.33313957 -101.3125 44.5625 C-107.29776602 58.28871007 -108.31872633 73.78518338 -103 88 C-96.54229152 102.68297402 -86.41558528 114.45532013 -71.296875 120.5703125 C-56.57689728 125.95942568 -41.76024984 127.32539616 -27.1015625 120.6875 C-25.37347312 119.81602799 -23.65780439 118.91908688 -21.9609375 117.98828125 C-20 117 -20 117 -18 117 C-18 108.75 -18 100.5 -18 92 C-30.87 92 -43.74 92 -57 92 C-57 84.08 -57 76.16 -57 68 C-49.65452097 67.90951701 -42.30934807 67.83618004 -34.96342945 67.79275131 C-31.55215001 67.77190424 -28.14127266 67.74364103 -24.73022461 67.69824219 C-20.80587631 67.64634041 -16.88168904 67.62703078 -12.95703125 67.609375 C-11.73603226 67.58872986 -10.51503326 67.56808472 -9.2570343 67.54681396 C-8.1162291 67.54651184 -6.97542389 67.54620972 -5.80004883 67.54589844 C-4.79855301 67.53701599 -3.79705719 67.52813354 -2.76521301 67.51898193 C0.76284145 68.13269883 2.43471905 69.55526211 5 72 C6.25226507 74.50453014 6.16107846 76.26987209 6.20874023 79.07299805 C6.22803085 80.13137375 6.24732147 81.18974945 6.26719666 82.28019714 C6.32489479 87.13264642 6.37423134 91.98494562 6.4050293 96.83764648 C6.42660209 99.39540107 6.46069574 101.95308199 6.50756836 104.51049805 C6.57456662 108.19874035 6.60203203 111.8854537 6.62109375 115.57421875 C6.64892441 116.71299973 6.67675507 117.8517807 6.70542908 119.02507019 C6.69182085 124.29343037 6.61815961 127.98440648 3.15844727 132.13549805 C-10.05815688 145.26779069 -30.83710173 150.11364601 -48.8125 150.3125 C-71.39112023 150.21018312 -91.16417448 141.89686768 -107.625 126.46484375 C-124.92414773 108.51128747 -131.51756735 86.71091014 -131.2109375 62.3359375 C-130.61650889 41.48690425 -120.97506426 21.39227834 -106 7 C-74.93759779 -20.09076262 -34.48765207 -21.56255003 0 0 Z " fill="#002459" transform="translate(893,114)"/>
<path d="M0 0 C-1.58074711 4.64455471 -4.06982189 8.34190533 -6.875 12.3125 C-7.30941406 12.95767578 -7.74382812 13.60285156 -8.19140625 14.26757812 C-9.4921875 16.11328125 -9.4921875 16.11328125 -12 19 C-16.51222552 19 -19.22191038 17.60074661 -23.125 15.625 C-36.13606181 9.34837753 -49.83451324 7.86172713 -63.9296875 11.90234375 C-80.68050445 17.89086737 -91.56841999 27.53063179 -100 43 C-106.36079693 57.25029367 -107.15618406 73.06422381 -102.25390625 87.890625 C-96.42153295 102.35345723 -85.75789975 112.96969809 -72 120 C-58.00859917 125.83512339 -43.4686656 127.10189861 -29 122 C-26.25552246 120.75721772 -23.60196654 119.43700107 -20.9609375 117.98828125 C-19 117 -19 117 -17 117 C-17 108.75 -17 100.5 -17 92 C-19.71992187 92.01160156 -22.43984375 92.02320313 -25.2421875 92.03515625 C-27.86995324 92.04294998 -30.4977177 92.04902495 -33.12548828 92.05493164 C-34.95492121 92.05996737 -36.78435009 92.06679627 -38.61376953 92.07543945 C-41.23991898 92.08753824 -43.86601532 92.09323583 -46.4921875 92.09765625 C-47.31306854 92.10281754 -48.13394958 92.10797882 -48.97970581 92.11329651 C-54.77225659 92.11387171 -54.77225659 92.11387171 -57 91 C-57 83.41 -57 75.82 -57 68 C-49.5241364 67.90952267 -42.04857346 67.83618322 -34.57227802 67.79275131 C-31.10046816 67.77190288 -27.62905327 67.74363705 -24.1574707 67.69824219 C-20.16353631 67.64634561 -16.17001485 67.62703227 -12.17578125 67.609375 C-10.31147209 67.57840729 -10.31147209 67.57840729 -8.40950012 67.54681396 C-7.24867416 67.54651184 -6.08784821 67.54620972 -4.8918457 67.54589844 C-3.36295464 67.53257477 -3.36295464 67.53257477 -1.80317688 67.51898193 C1.75141834 68.12894149 3.41942822 69.53425947 6 72 C7.25226507 74.50453014 7.16107846 76.26987209 7.20874023 79.07299805 C7.22803085 80.13137375 7.24732147 81.18974945 7.26719666 82.28019714 C7.32489479 87.13264642 7.37423134 91.98494562 7.4050293 96.83764648 C7.42660209 99.39540107 7.46069574 101.95308199 7.50756836 104.51049805 C7.57456662 108.19874035 7.60203203 111.8854537 7.62109375 115.57421875 C7.64892441 116.71299973 7.67675507 117.8517807 7.70542908 119.02507019 C7.68914148 125.33073492 7.1876585 129.12496275 2.63131714 133.66374207 C-0.19514708 135.97897872 -3.10373782 137.88422052 -6.3125 139.625 C-6.99747559 140.00398437 -7.68245117 140.38296875 -8.38818359 140.7734375 C-29.12117912 151.74834744 -53.07875894 152.79221665 -75.25390625 146.00390625 C-96.85469896 138.49171721 -113.30366341 122.62934365 -123.2644043 102.2355957 C-131.72635056 83.95924007 -133.16315772 62.05744788 -127.3828125 42.6953125 C-119.02368678 20.35708388 -104.67857775 2.61665562 -83 -8 C-78.1225769 -10.10177231 -73.12986521 -11.62510369 -68 -13 C-67.1028125 -13.24492188 -66.205625 -13.48984375 -65.28125 -13.7421875 C-43.22096266 -18.71256088 -17.9948725 -13.75217898 0 0 Z " fill="#002459" transform="translate(745,114)"/>
<path d="M0 0 C16.84220583 14.9603423 25.92847493 34.30177874 27.46191406 56.66210938 C28.12683715 78.31200505 20.40103898 98.91912004 5.63549805 114.73046875 C-9.00132369 129.68353832 -28.13755487 138.20894109 -49.10009766 138.88330078 C-72.14938776 139.1080954 -91.49295545 130.7313374 -107.94042969 114.84179688 C-122.44829956 100.22501949 -129.54754399 80.41849889 -130.12792969 60.02929688 C-129.49090552 37.65036097 -120.81769721 17.63136346 -104.82641602 2.01733398 C-75.94917988 -24.87123786 -30.08457347 -25.24087334 0 0 Z M-95.75292969 16.52929688 C-96.37554688 17.1196875 -96.99816406 17.71007812 -97.63964844 18.31835938 C-108.18554393 29.07754264 -113.68506244 45.07894747 -114.19042969 59.84179688 C-113.71741202 79.13697578 -105.32453879 94.43826883 -91.75292969 107.52929688 C-85.73713583 113.04883838 -79.36612951 116.62243876 -71.75292969 119.52929688 C-70.9240625 119.85027344 -70.09519531 120.17125 -69.24121094 120.50195312 C-53.38241676 125.72345504 -36.60817015 122.66998054 -22.00292969 115.34179688 C-15.8066178 111.81396967 -10.75019485 107.58847505 -5.75292969 102.52929688 C-5.11742187 101.91570312 -4.48191406 101.30210937 -3.82714844 100.66992188 C6.99125704 89.44372727 11.79785598 73.76766877 11.59448242 58.45166016 C10.96677352 41.07883237 2.45999403 24.30276604 -10.02246094 12.35742188 C-23.62705727 0.66494167 -40.19262036 -3.60447745 -57.77099609 -2.63037109 C-72.571947 -1.43798111 -85.55775344 6.05857532 -95.75292969 16.52929688 Z " fill="#002459" transform="translate(1336.7529296875,121.470703125)"/>
<path d="M0 0 C-0.53280216 4.22489602 -1.87678199 6.54080716 -4.5625 9.8125 C-5.20316406 10.60269531 -5.84382813 11.39289063 -6.50390625 12.20703125 C-6.99761719 12.79871094 -7.49132813 13.39039063 -8 14 C-9.12277344 13.51789063 -10.24554687 13.03578125 -11.40234375 12.5390625 C-28.26414573 5.37694424 -45.09905181 1.37263974 -63 8 C-72.36644512 11.86169637 -79.90522817 16.70741855 -87 24 C-87.82371094 24.77537109 -87.82371094 24.77537109 -88.6640625 25.56640625 C-99.44043375 36.60210194 -104.54718722 53.8524145 -104.42016602 68.8605957 C-103.87264073 83.57380708 -98.17659154 98.39795438 -87.99609375 109.16796875 C-73.71981704 122.27085285 -57.32317903 128.90479863 -38.04296875 128.28125 C-28.70730689 127.76127812 -20.97542467 124.27455355 -12.65234375 120.20703125 C-10 119 -10 119 -8 119 C-8 108.44 -8 97.88 -8 87 C-20.21 87 -32.42 87 -45 87 C-45 81.72 -45 76.44 -45 71 C-37.93418687 70.92594283 -30.86859875 70.87144153 -23.80249023 70.83520508 C-21.39782782 70.82010184 -18.99319302 70.79961792 -16.58862305 70.77368164 C-13.13583569 70.73736649 -9.68341196 70.720289 -6.23046875 70.70703125 C-5.15226364 70.69154739 -4.07405853 70.67606354 -2.96318054 70.66011047 C-1.96236954 70.65988388 -0.96155853 70.65965729 0.06958008 70.65942383 C0.95116287 70.65276199 1.83274567 70.64610016 2.74104309 70.63923645 C5 71 5 71 6.78190613 72.20661926 C8.4001498 74.58913435 8.39311808 76.16291073 8.41992188 79.03466797 C8.43583374 80.05938202 8.45174561 81.08409607 8.46813965 82.13986206 C8.46834106 83.24612946 8.46854248 84.35239685 8.46875 85.4921875 C8.47636353 86.63027863 8.48397705 87.76836975 8.49182129 88.94094849 C8.50263399 91.35009567 8.50547068 93.75928978 8.50097656 96.16845703 C8.50000554 99.85398718 8.54159058 103.53742755 8.5859375 107.22265625 C8.59114529 109.56249565 8.59383268 111.9023423 8.59375 114.2421875 C8.61014526 115.34440643 8.62654053 116.44662537 8.64343262 117.58224487 C8.57432938 125.23871865 8.57432938 125.23871865 5.65844727 129.10375977 C-3.22936904 135.44333817 -12.41382939 140.2371258 -23 143 C-24.28390625 143.33644531 -24.28390625 143.33644531 -25.59375 143.6796875 C-46.11033254 148.19086378 -67.17343105 143.86537112 -85.03125 133.1875 C-103.34684013 120.55605853 -115.48771596 102.96363133 -119.8125 81 C-123.40173455 60.65456755 -119.33419916 40.3924784 -108.4375 22.875 C-95.70103978 4.90835839 -77.64124299 -7.17427555 -55.9375 -11.375 C-36.51016112 -13.92155658 -16.68468336 -10.57745964 0 0 Z " fill="#002459" transform="translate(1088,115)"/>
<path d="M0 0 C1.11866455 -0.00636475 2.2373291 -0.01272949 3.38989258 -0.01928711 C4.57736084 -0.00518799 5.7648291 0.00891113 6.98828125 0.0234375 C8.8129895 0.0397522 8.8129895 0.0397522 10.67456055 0.05639648 C27.54597815 0.35293596 43.88984849 2.25407969 56.86328125 14.2109375 C67.06861489 25.53077224 68.19338882 39.54650445 67.49609375 54.10253906 C66.3904239 67.0996882 59.79052203 76.983242 50.15625 85.3203125 C43.57022597 90.11342438 36.00419228 92.91904623 28.30078125 95.3984375 C28.84605469 95.99269531 29.39132812 96.58695312 29.953125 97.19921875 C34.73583522 102.45611221 39.315723 107.82337425 43.78515625 113.34765625 C46.73003486 116.91900748 49.7580755 120.41046844 52.80078125 123.8984375 C57.34440013 129.11220086 61.8088746 134.37413001 66.15625 139.75390625 C67.70595895 141.66493167 69.27335828 143.56165751 70.8515625 145.44921875 C71.68042969 146.44308594 72.50929688 147.43695313 73.36328125 148.4609375 C74.11738281 149.35941406 74.87148437 150.25789062 75.6484375 151.18359375 C77.30078125 153.3984375 77.30078125 153.3984375 77.30078125 155.3984375 C62.7320871 156.91953086 62.7320871 156.91953086 57.19140625 153.453125 C54.67046635 150.89304007 52.46684251 148.26309485 50.30078125 145.3984375 C49.18509544 144.11941931 48.06073068 142.84789318 46.92578125 141.5859375 C46.37921875 140.94785156 45.83265625 140.30976563 45.26953125 139.65234375 C42.71099589 136.72322688 40.07029259 133.87485337 37.42578125 131.0234375 C33.1092988 126.36598697 28.83380069 121.67618914 24.59765625 116.9453125 C22.88852962 115.05015848 21.17085673 113.16550479 19.44140625 111.2890625 C18.95099854 110.75676025 18.46059082 110.22445801 17.95532227 109.67602539 C16.56534313 108.16946288 15.17335502 106.66475461 13.78125 105.16015625 C11.52907143 102.65261255 9.40629862 100.03033421 7.30078125 97.3984375 C6.97078125 116.2084375 6.64078125 135.0184375 6.30078125 154.3984375 C2.60864203 155.3214723 -0.18071829 155.50189946 -3.94921875 155.4609375 C-5.026875 155.45191406 -6.10453125 155.44289063 -7.21484375 155.43359375 C-8.44460938 155.41619141 -8.44460938 155.41619141 -9.69921875 155.3984375 C-9.7925857 135.63195398 -9.86316041 115.86551509 -9.90646744 96.09885693 C-9.92710851 86.92121709 -9.9552585 77.74371411 -10.00097656 68.56616211 C-10.04079717 60.56867789 -10.06664032 52.57129277 -10.07557273 44.57371217 C-10.08079562 40.337486 -10.09310302 36.10154339 -10.12213898 31.86540794 C-10.14923285 27.88042603 -10.15767611 23.89584522 -10.15164948 19.91077995 C-10.15275243 18.44620333 -10.16074247 16.98161368 -10.17604065 15.51711655 C-10.19587008 13.52141201 -10.18878981 11.52549359 -10.18023682 9.52970886 C-10.18392399 8.41157397 -10.18761116 7.29343908 -10.19141006 6.14142132 C-9.69921875 3.3984375 -9.69921875 3.3984375 -7.83558273 1.53949451 C-5.08706786 0.07148055 -3.11096082 0.01050578 0 0 Z M6.30078125 16.3984375 C6.30078125 37.8484375 6.30078125 59.2984375 6.30078125 81.3984375 C21.96571057 80.35410888 34.78474464 78.74197934 45.67578125 67.0234375 C52.28993454 58.49852882 52.36046986 48.76551162 51.30078125 38.3984375 C49.9396081 31.65249761 46.96472386 27.12513837 41.58203125 22.8671875 C30.40304781 15.6697598 19.67874412 16.3984375 6.30078125 16.3984375 Z " fill="#002459" transform="translate(1126.69921875,104.6015625)"/>
<path d="M0 0 C8.12783899 -0.11306543 16.25506434 -0.20475139 24.38347912 -0.25906086 C28.1580501 -0.28512982 31.93205414 -0.32047629 35.70629883 -0.37719727 C39.35030481 -0.43161681 42.99376631 -0.46144086 46.63814735 -0.47438622 C48.02685427 -0.48360857 49.41553215 -0.50161853 50.80400658 -0.52865028 C52.75209744 -0.56506071 54.70073891 -0.56704339 56.64916992 -0.56762695 C58.31129768 -0.58428154 58.31129768 -0.58428154 60.00700378 -0.60127258 C63 0 63 0 65.85748291 1.74409485 C69.20010469 6.82375537 68.68842073 11.70793191 68.63110352 17.66210938 C68.63825882 18.94893616 68.64541412 20.23576294 68.65278625 21.56158447 C68.67129154 25.08710508 68.65836219 28.61186865 68.63869596 32.13735771 C68.62227251 35.83885406 68.63112877 39.5403038 68.63621521 43.24182129 C68.6407366 49.46602399 68.624875 55.68992628 68.59692383 61.9140625 C68.56498407 69.08100291 68.56484355 76.24739821 68.5821386 83.41437674 C68.59809047 90.33261957 68.59120762 97.25066513 68.57420158 104.16889954 C68.56737922 107.10001465 68.5683138 110.03096933 68.57574654 112.96208191 C68.58494077 117.07593177 68.56069299 121.18896437 68.53344727 125.30273438 C68.53997314 126.50113953 68.54649902 127.69954468 68.55322266 128.93426514 C68.35698762 146.48654566 61.30231187 159.83726055 49 172 C36.7650953 183.29066739 21.36437 190.2134742 4.5625 190.25 C2.726875 190.1675 0.89125 190.085 -1 190 C-1 182.41 -1 174.82 -1 167 C1.35125 166.649375 3.7025 166.29875 6.125 165.9375 C18.75645532 163.71651346 30.04652949 158.40199115 38 148 C41.6833303 141.96466361 44.10191605 136.41517267 44.15821838 129.30499268 C44.1680072 128.36552292 44.17779602 127.42605316 44.18788147 126.45811462 C44.19363693 125.43456375 44.1993924 124.41101288 44.20532227 123.35644531 C44.21522186 122.27321487 44.22512146 121.18998444 44.23532104 120.07392883 C44.26691875 116.49201649 44.29168677 112.91009088 44.31640625 109.328125 C44.33697726 106.84519098 44.35797377 104.36226046 44.37937927 101.8793335 C44.42894155 96.01106457 44.47421084 90.1427748 44.51740164 84.27445579 C44.57166941 76.93684007 44.6326002 69.59928336 44.69335938 62.26171875 C44.8009223 49.17451683 44.90186752 36.08727603 45 23 C30.15 23 15.3 23 0 23 C0 15.41 0 7.82 0 0 Z " fill="#002459" transform="translate(1,133)"/>
<path d="M0 0 C126.06 0 252.12 0 382 0 C382 52.14 382 104.28 382 158 C379.03 158 376.06 158 373 158 C373 108.83 373 59.66 373 9 C252.88 9 132.76 9 9 9 C9 47.94 9 86.88 9 127 C6.03 127 3.06 127 0 127 C0 85.09 0 43.18 0 0 Z " fill="#002459" transform="translate(25,0)"/>
<path d="M0 0 C8.25822257 -0.11305962 16.51584137 -0.20474817 24.77463055 -0.25906086 C28.60973093 -0.2851312 32.44427343 -0.32048034 36.27905273 -0.37719727 C39.98141252 -0.43161164 43.68323649 -0.46143983 47.38596535 -0.47438622 C48.79699958 -0.48360947 50.20800518 -0.50162116 51.61881065 -0.52865028 C53.59803933 -0.56505405 55.5778097 -0.56704333 57.55737305 -0.56762695 C58.68322311 -0.57873001 59.80907318 -0.58983307 60.96903992 -0.60127258 C65.06672182 0.21161301 66.51835013 1.68247951 69 5 C69.62818909 7.95935059 69.62818909 7.95935059 69.63110352 11.27148438 C69.64363663 12.51627563 69.65616974 13.76106689 69.66908264 15.0435791 C69.65681387 16.39364674 69.64339377 17.74370434 69.62890625 19.09375 C69.62973555 20.48710312 69.63219723 21.88045614 69.63621521 23.27380371 C69.63906892 26.18918424 69.62441582 29.10379468 69.59692383 32.01904297 C69.56284004 35.74842011 69.56886233 39.4764209 69.5875864 43.20586395 C69.59817568 46.08163848 69.58920145 48.95709498 69.57420158 51.83283997 C69.56903334 53.20749465 69.56948508 54.58218274 69.57574654 55.95683289 C69.5812209 57.88077101 69.55792188 59.80472539 69.53344727 61.72851562 C69.5241494 63.36802185 69.5241494 63.36802185 69.5146637 65.04064941 C68.71674718 69.62872263 66.24536514 72.05163806 62.625 74.80859375 C39.27052574 89.30087912 14.37492729 95.89338427 -13.125 90.8125 C-28.66217613 87.11726453 -42.72231794 80.18518183 -55 70 C-55.6911792 69.65445068 -56.3823584 69.30890137 -57.09448242 68.95288086 C-59.62759252 66.35680813 -59.45454734 64.23107421 -59.45318604 60.71394348 C-59.43254089 59.87634995 -59.41189575 59.03875641 -59.390625 58.17578125 C-59.38496521 57.31438034 -59.37930542 56.45297943 -59.37347412 55.56547546 C-59.3510813 52.81391852 -59.3008808 50.06366337 -59.25 47.3125 C-59.2299387 45.44728443 -59.21168728 43.58204845 -59.1953125 41.71679688 C-59.15120713 37.14402958 -59.08216057 32.5722355 -59 28 C-56.399 30.49981486 -54.71217757 33.00978586 -52.875 36.125 C-42.64100884 52.29513157 -25.92034109 61.98746766 -7.6875 66.8125 C10.03837488 70.48428837 25.72741125 66.83570871 41.3046875 58.390625 C44 57 44 57 46 57 C46 45.78 46 34.56 46 23 C30.82 23 15.64 23 0 23 C0 15.41 0 7.82 0 0 Z " fill="#002459" transform="translate(306,229)"/>
<path d="M0 0 C5.28 0 10.56 0 16 0 C16.00879936 1.93986282 16.00879936 1.93986282 16.01777649 3.91891479 C16.07508877 16.13032155 16.14789499 28.34155168 16.23571491 40.55277824 C16.28036597 46.83009421 16.31963389 53.10734606 16.34643555 59.38476562 C16.37252075 65.44734972 16.41296052 71.50968638 16.46318626 77.57211685 C16.47981964 79.88042234 16.49135582 82.1887706 16.49761391 84.49712753 C16.50729323 87.74037114 16.53539909 90.98298673 16.56762695 94.22607422 C16.56547432 95.6448864 16.56547432 95.6448864 16.5632782 97.09236145 C16.70652466 107.34311275 19.52020048 116.92659125 26 125 C34.57995891 132.94590534 43.59446113 136.67645689 55.26953125 136.28125 C66.03212159 135.172657 73.90887232 130.25112012 80.68359375 121.92578125 C84.95423552 115.6782252 87.09553399 108.9235497 87.15821838 101.3745575 C87.1680072 100.47578384 87.17779602 99.57701019 87.18788147 98.65100098 C87.19363693 97.67779907 87.1993924 96.70459717 87.20532227 95.7019043 C87.21522186 94.66729568 87.22512146 93.63268707 87.23532104 92.56672668 C87.26686704 89.15258052 87.29166626 85.73842045 87.31640625 82.32421875 C87.33698173 79.95481508 87.35797836 77.58541503 87.37937927 75.21601868 C87.43453856 68.98374365 87.48397497 62.75143583 87.53222656 56.519104 C87.58248642 50.15788865 87.63814908 43.79672084 87.69335938 37.43554688 C87.80086583 24.95707188 87.90232751 12.47855558 88 0 C93.28 0 98.56 0 104 0 C104.06968707 13.74378604 104.12290615 27.48752964 104.15543652 41.23145676 C104.17105396 47.61416643 104.19222055 53.99675471 104.22631836 60.37939453 C104.25905166 66.54560785 104.27688247 72.71170481 104.28463173 78.87799835 C104.2901502 81.22377604 104.30092612 83.56954778 104.31719017 85.91527557 C104.45242147 106.23821903 103.17555744 123.32215605 88.35546875 138.8125 C77.05391308 149.30814042 63.76753271 153.52417802 48.5546875 153.24609375 C33.96157575 152.2358014 21.87062643 145.6791419 12 135 C2.74047573 123.18612421 -0.16802139 110.28535485 -0.11352539 95.58837891 C-0.11367142 94.55362427 -0.11381744 93.51886963 -0.1139679 92.45275879 C-0.1132731 89.04400512 -0.10550097 85.63530659 -0.09765625 82.2265625 C-0.09579053 79.85859202 -0.09436735 77.49062115 -0.09336853 75.12265015 C-0.08955547 68.89856902 -0.07973551 62.67451134 -0.06866455 56.45043945 C-0.0584244 50.09586911 -0.05386533 43.74129497 -0.04882812 37.38671875 C-0.03811216 24.92446889 -0.02105027 12.46223639 0 0 Z " fill="#002459" transform="translate(1379,107)"/>
<path d="M0 0 C6.60236167 -0.06890752 13.20347332 -0.12863173 19.8059082 -0.16479492 C22.05139394 -0.17987182 24.29685029 -0.20033653 26.54223633 -0.22631836 C29.77172099 -0.26274918 33.00081594 -0.27973755 36.23046875 -0.29296875 C37.23272995 -0.30845261 38.23499115 -0.32393646 39.2676239 -0.33988953 C48.23295021 -0.3420493 48.23295021 -0.3420493 52 3 C53.77888553 5.93612596 54.25175261 8.11927214 54.26069641 11.53160095 C54.26778122 12.43545532 54.27486603 13.33930969 54.28216553 14.27055359 C54.27968811 15.2549794 54.27721069 16.23940521 54.2746582 17.25366211 C54.27976913 18.2965036 54.28488007 19.33934509 54.29014587 20.41378784 C54.30406635 23.86836461 54.30308209 27.32274222 54.30078125 30.77734375 C54.30466912 33.18429132 54.30900397 35.59123821 54.31376648 37.9981842 C54.32123564 43.05130227 54.32093401 48.1043505 54.31567383 53.1574707 C54.3099028 59.60643786 54.32674956 66.05511561 54.3500185 72.504035 C54.36482051 77.48087717 54.36561834 82.45765089 54.36250877 87.43451118 C54.36301955 89.81015149 54.36821111 92.18579587 54.37832069 94.56141472 C54.45788529 115.88902986 53.12183363 132.30881584 37.69921875 148.4921875 C25.47157086 159.85275182 9.73875983 165.28507642 -6.75 165.16796875 C-9 165 -9 165 -11 164 C-11.02887512 160.35418313 -11.04675585 156.70839537 -11.0625 153.0625 C-11.07087891 152.02158203 -11.07925781 150.98066406 -11.08789062 149.90820312 C-11.09272461 148.42416992 -11.09272461 148.42416992 -11.09765625 146.91015625 C-11.10289307 145.99371338 -11.10812988 145.07727051 -11.11352539 144.13305664 C-11 142 -11 142 -10 141 C-7.89807303 140.75112705 -5.79326036 140.5265281 -3.6875 140.3125 C6.16544963 138.95797027 16.47245781 134.86786419 23 127 C28.0373711 118.95072817 29.13761492 111.6489437 29.20532227 102.33251953 C29.21522186 101.48308273 29.22512146 100.63364594 29.23532104 99.75846863 C29.26676567 96.96661105 29.29162573 94.1747365 29.31640625 91.3828125 C29.33699051 89.44082206 29.35798736 87.49883596 29.37937927 85.55685425 C29.43444796 80.45731119 29.48392402 75.35772871 29.53222656 70.25811768 C29.58255289 65.04964714 29.63818074 59.8412335 29.69335938 54.6328125 C29.8007549 44.42192191 29.90175065 34.2109827 30 24 C20.1 24 10.2 24 0 24 C0 16.08 0 8.16 0 0 Z " fill="#002459" transform="translate(548,101)"/>
<path d="M0 0 C2.97 0 5.94 0 9 0 C9 50.82 9 101.64 9 154 C-117.06 154 -243.12 154 -373 154 C-373 139.15 -373 124.3 -373 109 C-368.545 108.01 -368.545 108.01 -364 107 C-364 119.54 -364 132.08 -364 145 C-243.88 145 -123.76 145 0 145 C0 97.15 0 49.3 0 0 Z " fill="#002459" transform="translate(398,222)"/>
<path d="M0 0 C0.89775146 -0.00104736 1.79550293 -0.00209473 2.72045898 -0.00317383 C4.15047241 0.02353394 4.15047241 0.02353394 5.609375 0.05078125 C7.08676147 0.06878784 7.08676147 0.06878784 8.59399414 0.0871582 C24.82912895 0.39726604 44.02808218 1.42794737 56.359375 13.36328125 C56.98328125 13.94851562 57.6071875 14.53375 58.25 15.13671875 C67.0856195 24.23220941 68.66294523 36.02169428 68.67407227 48.20703125 C68.43025221 62.58808617 63.50039503 73.62981223 53.234375 83.61328125 C40.00308285 94.7141111 24.04787781 96.2507144 7.359375 97.36328125 C7.359375 116.50328125 7.359375 135.64328125 7.359375 155.36328125 C2.079375 155.36328125 -3.200625 155.36328125 -8.640625 155.36328125 C-8.73314937 135.59679131 -8.80456665 115.83036234 -8.84787369 96.06370068 C-8.86851476 86.88606084 -8.89666475 77.70855786 -8.94238281 68.53100586 C-8.98220342 60.53352164 -9.00804657 52.53613652 -9.01697898 44.53855592 C-9.02220187 40.30232975 -9.03450927 36.06638714 -9.06354523 31.83025169 C-9.0906391 27.84526978 -9.09908236 23.86068897 -9.09305573 19.8756237 C-9.09415868 18.41104708 -9.10214872 16.94645743 -9.1174469 15.4819603 C-9.13727633 13.48625576 -9.13019606 11.49033734 -9.12164307 9.49455261 C-9.12533024 8.37641772 -9.12901741 7.25828283 -9.13281631 6.10626507 C-8.640625 3.36328125 -8.640625 3.36328125 -6.74929428 1.50334644 C-4.29755912 0.17780054 -2.77597931 -0.01035813 0 0 Z M7.359375 15.36328125 C7.359375 37.14328125 7.359375 58.92328125 7.359375 81.36328125 C21.9238452 81.36328125 31.76604146 79.31251216 43.609375 71.11328125 C50.41259706 64.31005919 53.31723122 55.96022561 53.671875 46.48828125 C53.49305125 38.73925227 51.38275886 31.3634342 46.359375 25.36328125 C39.07317348 18.70487255 30.10083193 17.00161892 20.546875 16.17578125 C19.29874023 16.05299805 19.29874023 16.05299805 18.02539062 15.92773438 C14.43677992 15.58527674 10.97144312 15.36328125 7.359375 15.36328125 Z " fill="#002459" transform="translate(1513.640625,104.63671875)"/>
<path d="M0 0 C2.05203126 1.58144063 4.02767072 3.18497135 5.94140625 4.9296875 C4.62019797 7.86198943 3.19502428 9.91633649 0.90234375 12.1640625 C0.32226562 12.73769531 -0.2578125 13.31132812 -0.85546875 13.90234375 C-1.45875 14.48886719 -2.06203125 15.07539063 -2.68359375 15.6796875 C-3.60011719 16.58267578 -3.60011719 16.58267578 -4.53515625 17.50390625 C-6.03847999 18.98374055 -7.54794231 20.45733426 -9.05859375 21.9296875 C-12.94275928 20.50502095 -16.28855891 18.65728829 -19.80859375 16.4921875 C-35.30491739 7.32400587 -54.96143661 6.20888202 -72.30859375 10.5546875 C-82.75058975 13.88351173 -91.8215325 18.69903411 -100.05859375 25.9296875 C-100.72375 26.50074219 -101.38890625 27.07179687 -102.07421875 27.66015625 C-116.33978393 40.8305304 -122.11414179 58.28149177 -125.05859375 76.9296875 C-127.58510696 75.92161295 -130.10829905 74.90907798 -132.62109375 73.8671875 C-137.69755724 72.48269746 -142.8206787 72.25175995 -148.05859375 71.9296875 C-148.23822513 66.78690758 -147.6646168 62.19775869 -146.37109375 57.2421875 C-146.10099487 56.19562988 -146.10099487 56.19562988 -145.82543945 55.12792969 C-141.61048203 39.40601245 -133.80322603 26.08757772 -123.05859375 13.9296875 C-122.24841797 12.99382812 -122.24841797 12.99382812 -121.421875 12.0390625 C-91.10323711 -20.6470257 -36.2548702 -24.5403336 0 0 Z " fill="#002459" transform="translate(366.05859375,146.0703125)"/>
<path d="M0 0 C116.16 0 232.32 0 352 0 C352 46.86 352 93.72 352 142 C351.34 142 350.68 142 350 142 C350 96.13 350 50.26 350 3 C235.49 3 120.98 3 3 3 C3 38.97 3 74.94 3 112 C2.01 112 1.02 112 0 112 C0 75.04 0 38.08 0 0 Z " fill="#002459" transform="translate(39,15)"/>
<path d="M0 0 C0.66 0 1.32 0 2 0 C2 46.2 2 92.4 2 140 C-114.16 140 -230.32 140 -350 140 C-350 129.44 -350 118.88 -350 108 C-349.01 108 -348.02 108 -347 108 C-347 117.57 -347 127.14 -347 137 C-232.49 137 -117.98 137 0 137 C0 91.79 0 46.58 0 0 Z " fill="#002459" transform="translate(389,221)"/>
<path d="M0 0 C5.04345768 2.23576682 8.44365888 6.03672918 12.3125 9.875 C13.06595703 10.59558594 13.81941406 11.31617188 14.59570312 12.05859375 C15.30275391 12.75855469 16.00980469 13.45851562 16.73828125 14.1796875 C17.38837158 14.81632324 18.03846191 15.45295898 18.70825195 16.10888672 C20 18 20 18 19.94238281 19.98193359 C18.73959051 22.55765411 17.2166151 24.1215319 15.18359375 26.109375 C14.41982422 26.86347656 13.65605469 27.61757812 12.86914062 28.39453125 C11.66547852 29.56048828 11.66547852 29.56048828 10.4375 30.75 C9.22803711 31.93916016 9.22803711 31.93916016 7.99414062 33.15234375 C6.00266222 35.10847046 4.00452279 37.05725719 2 39 C-3.04345768 36.76423318 -6.44365888 32.96327082 -10.3125 29.125 C-11.06595703 28.40441406 -11.81941406 27.68382812 -12.59570312 26.94140625 C-13.30275391 26.24144531 -14.00980469 25.54148438 -14.73828125 24.8203125 C-15.71341675 23.86535889 -15.71341675 23.86535889 -16.70825195 22.89111328 C-18 21 -18 21 -17.94238281 19.01806641 C-16.73959051 16.44234589 -15.2166151 14.8784681 -13.18359375 12.890625 C-12.41982422 12.13652344 -11.65605469 11.38242188 -10.86914062 10.60546875 C-10.06669922 9.82816406 -9.26425781 9.05085937 -8.4375 8.25 C-7.63119141 7.45722656 -6.82488281 6.66445312 -5.99414062 5.84765625 C-4.00266222 3.89152954 -2.00452279 1.94274281 0 0 Z " fill="#002459" transform="translate(395,170)"/>
<path d="M0 0 C3.45573788 2.30382525 4.00737053 3.67727575 5.6640625 7.41015625 C6.14617187 8.48201172 6.62828125 9.55386719 7.125 10.65820312 C7.62 11.78162109 8.115 12.90503906 8.625 14.0625 C9.6154255 16.28333872 10.60752167 18.50343338 11.6015625 20.72265625 C12.03807129 21.71015869 12.47458008 22.69766113 12.92431641 23.71508789 C13.80276662 25.9156247 13.80276662 25.9156247 15 27 C15.34780518 26.21761963 15.69561035 25.43523926 16.05395508 24.62915039 C17.34828658 21.73108115 18.65196334 18.83746129 19.9621582 15.9465332 C20.52747504 14.69400664 21.08902486 13.43977282 21.64672852 12.18383789 C22.44858489 10.37983924 23.26510995 8.5823831 24.08203125 6.78515625 C24.56905518 5.70113525 25.0560791 4.61711426 25.55786133 3.50024414 C27 1 27 1 30 0 C30 11.22 30 22.44 30 34 C28.515 34.495 28.515 34.495 27 35 C26.67 28.07 26.34 21.14 26 14 C25.39671875 15.43214844 24.7934375 16.86429687 24.171875 18.33984375 C23.36536617 20.20606767 22.55803159 22.07193489 21.75 23.9375 C21.35425781 24.88302734 20.95851563 25.82855469 20.55078125 26.80273438 C20.15761719 27.70185547 19.76445313 28.60097656 19.359375 29.52734375 C19.00327148 30.35999756 18.64716797 31.19265137 18.28027344 32.05053711 C17 34 17 34 13 35 C10.03 28.4 7.06 21.8 4 15 C3.67 21.27 3.34 27.54 3 34 C1.68 34 0.36 34 -1 34 C-1.02465288 29.31860746 -1.04283739 24.63725241 -1.05493164 19.95581055 C-1.05997157 18.36205386 -1.0668035 16.76830181 -1.07543945 15.17456055 C-1.08751999 12.88849747 -1.09323155 10.60249533 -1.09765625 8.31640625 C-1.10281754 7.59973282 -1.10797882 6.88305939 -1.11329651 6.14466858 C-1.11349263 4.42936328 -1.06192007 2.71418734 -1 1 C-0.67 0.67 -0.34 0.34 0 0 Z " fill="#002459" transform="translate(1475,324)"/>
<path d="M0 0 C0.66 0 1.32 0 2 0 C3.48046875 1.97192383 3.48046875 1.97192383 5.1875 4.70703125 C5.80367187 5.68607422 6.41984375 6.66511719 7.0546875 7.67382812 C7.69664063 8.70958984 8.33859375 9.74535156 9 10.8125 C10.27077921 12.83987768 11.54161028 14.86722285 12.8125 16.89453125 C13.37582031 17.80050049 13.93914062 18.70646973 14.51953125 19.63989258 C15.65156781 21.44454254 16.81831043 23.22746565 18 25 C18.33 17.08 18.66 9.16 19 1 C20.32 1.33 21.64 1.66 23 2 C23 12.89 23 23.78 23 35 C18.27677227 33.81919307 17.92323562 33.00488132 15.328125 29.08984375 C14.66425781 28.10048828 14.00039062 27.11113281 13.31640625 26.09179688 C12.29353516 24.53041992 12.29353516 24.53041992 11.25 22.9375 C10.55261719 21.89271484 9.85523438 20.84792969 9.13671875 19.77148438 C7.41424935 17.18778028 5.70578704 14.5947482 4 12 C3.67 19.26 3.34 26.52 3 34 C1.68 34 0.36 34 -1 34 C-1.02465288 29.31860746 -1.04283739 24.63725241 -1.05493164 19.95581055 C-1.05997157 18.36205386 -1.0668035 16.76830181 -1.07543945 15.17456055 C-1.08751999 12.88849747 -1.09323155 10.60249533 -1.09765625 8.31640625 C-1.10281754 7.59973282 -1.10797882 6.88305939 -1.11329651 6.14466858 C-1.11349263 4.42936328 -1.06192007 2.71418734 -1 1 C-0.67 0.67 -0.34 0.34 0 0 Z " fill="#002459" transform="translate(1295,324)"/>
<path d="M0 0 C0.66 0 1.32 0 2 0 C3.69580078 2.203125 3.69580078 2.203125 5.6953125 5.25 C6.41074219 6.3328125 7.12617187 7.415625 7.86328125 8.53125 C8.61733665 9.68740274 9.37124093 10.84365405 10.125 12 C10.88608463 13.1566675 11.64779545 14.31292323 12.41015625 15.46875 C14.27961895 18.30844018 16.14059562 21.15371357 18 24 C18.33 16.74 18.66 9.48 19 2 C20.32 2 21.64 2 23 2 C23 12.89 23 23.78 23 35 C18.19962616 33.79990654 17.89007031 32.91278334 15.328125 28.87109375 C14.66425781 27.83662109 14.00039063 26.80214844 13.31640625 25.73632812 C12.29353516 24.1034082 12.29353516 24.1034082 11.25 22.4375 C10.55261719 21.34501953 9.85523438 20.25253906 9.13671875 19.12695312 C7.41388218 16.42469576 5.70555851 13.7131957 4 11 C3.67 18.59 3.34 26.18 3 34 C1.68 34 0.36 34 -1 34 C-1.02465288 29.31860746 -1.04283739 24.63725241 -1.05493164 19.95581055 C-1.05997157 18.36205386 -1.0668035 16.76830181 -1.07543945 15.17456055 C-1.08751999 12.88849747 -1.09323155 10.60249533 -1.09765625 8.31640625 C-1.10281754 7.59973282 -1.10797882 6.88305939 -1.11329651 6.14466858 C-1.11349263 4.42936328 -1.06192007 2.71418734 -1 1 C-0.67 0.67 -0.34 0.34 0 0 Z " fill="#002459" transform="translate(923,324)"/>
<path d="M0 0 C4.94586526 2.29629459 7.30760518 5.31323865 10 10 C11.79910157 15.39730471 11.69468904 20.10048284 9.375 25.25 C6.74727502 30.00982924 3.11150856 32.29616381 -2 34 C-7.69262838 34.56384129 -12.14944138 34.30719906 -17 31 C-21.92522485 26.41058593 -23.75982856 21.75612692 -24 15 C-23.04697809 9.35064333 -20.40835195 5.65570649 -16 2 C-11.07163294 -1.04936001 -5.59775886 -0.60029586 0 0 Z M-18.375 9.75 C-20.36415233 13.72830466 -20.87057168 16.63843587 -20 21 C-17.96960499 24.84324769 -15.8819364 27.95120023 -12 30 C-7.53416008 31.00841547 -5.14767219 31.3825574 -0.8125 29.9375 C3.45270841 26.99924531 6.31407191 24.01491376 8 19.0625 C8 13.67557191 5.98208495 10.12939769 2.5 6.125 C-0.53527384 3.54501724 -2.36558796 3.05985019 -6.3125 2.6875 C-11.97363984 3.16725761 -14.73199141 5.53177953 -18.375 9.75 Z " fill="#002459" transform="translate(896,325)"/>
<path d="M0 0 C4.14030324 3.21084741 6.41047658 6.41892975 8.0625 11.375 C8.48471927 16.8638505 7.77314613 20.56578913 5.0625 25.375 C1.54775336 29.07254671 -1.72891589 32.05719738 -6.98828125 32.578125 C-12.08641633 32.68378583 -15.59433383 32.33624966 -19.9375 29.375 C-24.10778481 25.10993599 -26.81430424 21.3317579 -27.00390625 15.2421875 C-26.68143855 9.47685582 -25.02120634 5.48096087 -20.9375 1.375 C-15.10344765 -2.93108626 -6.46628621 -3.33069483 0 0 Z M-21.9375 8.375 C-23.17949848 12.10099543 -23.47258555 15.50479217 -22.9375 19.375 C-20.90222975 23.22747583 -18.80178089 26.27724752 -14.9375 28.375 C-9.29614614 29.86516894 -6.02717524 29.15991664 -0.9375 26.375 C2.31926455 23.63246143 3.79901733 21.64267874 4.30078125 17.32421875 C4.48116545 11.82724761 3.90361347 8.6204412 0.0625 4.375 C-8.40719644 -1.27146429 -15.61027225 1.14388257 -21.9375 8.375 Z " fill="#002459" transform="translate(1270.9375,326.625)"/>
<path d="M0 0 C4.47870656 2.15937638 7.18198188 4.92952939 10 9 C11.84961854 14.54885563 11.79897602 19.9415324 9.375 25.3125 C6.73643834 30.02622937 3.0753212 32.30822627 -2 34 C-8.55694743 34.77514301 -12.65584898 33.87712917 -18 30 C-22.88766435 24.59784467 -23.34974348 21.14194384 -23.28125 13.984375 C-22.77938024 8.65897925 -20.24614624 6.0977955 -16.375 2.6875 C-11.25527798 -0.95019722 -6.13002394 -0.57769859 0 0 Z M-18.375 9.8125 C-20.33648313 13.66002461 -20.59943353 15.72903613 -20 20 C-17.79353465 25.42422731 -15.49583275 28.09089531 -10.078125 30.3984375 C-6.59724841 31.40605967 -4.43293945 31.12350746 -1 30 C2.56527479 27.69561508 5.27219878 25.18267698 7.5 21.5625 C8.44963534 16.69561886 7.57685438 13.1109788 5.3125 8.75 C1.82910527 4.60758465 -1.15925303 3.23009337 -6.5 2.5625 C-12.0283753 3.25354691 -14.83936789 5.62556724 -18.375 9.8125 Z " fill="#002459" transform="translate(700,325)"/>
<path d="M0 0 C3.64537472 1.85842633 6.30457618 4.49576917 8.1328125 8.16015625 C9.93710404 14.14955006 9.81292762 20.23609225 7.10546875 25.8515625 C3.4672835 29.78473574 0.31818023 32.92742463 -5.1875 33.58984375 C-11.01810051 33.78591704 -15.45637126 32.86619104 -20.20703125 29.3515625 C-24.00124651 24.58447153 -25.57869808 20.68001092 -25.48828125 14.54296875 C-24.8200009 9.335951 -22.37309407 5.43433512 -18.58203125 1.9140625 C-13.09420333 -1.6963506 -6.30280965 -1.85179894 0 0 Z M-19.60546875 8.08203125 C-21.80254929 11.77578075 -22.54276586 14.70541668 -21.89453125 18.9765625 C-20.43469257 23.940014 -17.64855556 26.80581076 -13.20703125 29.3515625 C-8.85620543 30.77546913 -6.12447479 30.59067661 -2.01953125 28.7890625 C1.80634031 26.61240159 3.91741387 24.41526474 5.79296875 20.3515625 C6.63388636 15.97178329 6.16694856 13.09952212 4.16796875 9.1015625 C0.62741131 5.00196968 -2.20023069 2.64346076 -7.64453125 1.8515625 C-12.75660897 2.56904709 -16.37150008 4.08022086 -19.60546875 8.08203125 Z " fill="#002459" transform="translate(1102.20703125,325.6484375)"/>
<path d="M0 0 C11.44444444 0 11.44444444 0 15 3 C17.47714618 6.71571928 17.42593397 9.6971977 17 14 C15.82986774 17.4203866 15.12689277 17.91540482 12 20 C11.01 20 10.02 20 9 20 C9.66128906 20.75925781 10.32257812 21.51851563 11.00390625 22.30078125 C11.84824219 23.29464844 12.69257812 24.28851563 13.5625 25.3125 C14.40941406 26.29863281 15.25632812 27.28476562 16.12890625 28.30078125 C16.74636719 29.19152344 17.36382813 30.08226562 18 31 C17.67 31.99 17.34 32.98 17 34 C13.33213607 32.49650623 11.31089607 30.36271208 8.75 27.375 C7.69039062 26.14910156 7.69039062 26.14910156 6.609375 24.8984375 C6.07828125 24.27195312 5.5471875 23.64546875 5 23 C4.67 26.3 4.34 29.6 4 33 C2.68 33 1.36 33 0 33 C0 22.11 0 11.22 0 0 Z M4 3 C4 7.95 4 12.9 4 18 C9.78392203 17.58738436 9.78392203 17.58738436 12.4375 14.8125 C14.27920862 12.07106588 14.27920862 12.07106588 13.875 8.8125 C13.20708821 5.89700292 13.20708821 5.89700292 11 4 C8.69 3.67 6.38 3.34 4 3 Z " fill="#002459" transform="translate(646,325)"/>
<path d="M0 0 C11.44444444 0 11.44444444 0 15 3 C17.47714618 6.71571928 17.42593397 9.6971977 17 14 C15.82986774 17.4203866 15.12689277 17.91540482 12 20 C11.01 20 10.02 20 9 20 C9.6496875 20.75925781 10.299375 21.51851563 10.96875 22.30078125 C11.8040625 23.29464844 12.639375 24.28851563 13.5 25.3125 C14.3353125 26.29863281 15.170625 27.28476562 16.03125 28.30078125 C18 31 18 31 18 34 C13.58540416 33.59773543 11.46302944 30.59612875 8.75 27.4375 C8.29109375 26.91736328 7.8321875 26.39722656 7.359375 25.86132812 C6.2317857 24.58104445 5.11482685 23.29141202 4 22 C3.67 25.96 3.34 29.92 3 34 C2.01 33.67 1.02 33.34 0 33 C0 22.11 0 11.22 0 0 Z M3 3 C3 7.95 3 12.9 3 18 C9.66116879 17.6977567 9.66116879 17.6977567 12.5 14.8125 C14.27100949 12.06173167 14.27100949 12.06173167 13.875 8.8125 C13.20708821 5.89700292 13.20708821 5.89700292 11 4 C8.34462628 3.43479997 5.70855287 3.26211802 3 3 Z " fill="#002459" transform="translate(1441,325)"/>
<path d="M0 0 C0.99 0.33 1.98 0.66 3 1 C3.99442785 3.27194379 4.7825341 5.4166651 5.515625 7.7734375 C5.73571228 8.45298492 5.95579956 9.13253235 6.18255615 9.83267212 C6.64546028 11.27166967 7.10235735 12.71261127 7.55371094 14.15527344 C8.24658682 16.36411899 8.96154039 18.56488339 9.6796875 20.765625 C10.12633796 22.16363574 10.57169402 23.56206083 11.015625 24.9609375 C11.23011292 25.62040375 11.44460083 26.27987 11.66558838 26.95932007 C12.67463358 30.2267477 13.10969697 31.6709091 12 35 C10.515 34.505 10.515 34.505 9 34 C7.8125 30.9375 7.8125 30.9375 7 28 C3.04 27.67 -0.92 27.34 -5 27 C-5.268125 28.134375 -5.53625 29.26875 -5.8125 30.4375 C-6.204375 31.613125 -6.59625 32.78875 -7 34 C-8.485 34.495 -8.485 34.495 -10 35 C-9.46689335 27.24572141 -6.95876317 20.31282151 -4.4375 13 C-4.00776298 11.73591503 -3.57872069 10.47159365 -3.15039062 9.20703125 C-2.10705272 6.13563202 -1.0567602 3.06680152 0 0 Z M0 10 C-0.50512244 11.60256108 -1.00391627 13.20711792 -1.5 14.8125 C-1.7784375 15.70582031 -2.056875 16.59914063 -2.34375 17.51953125 C-3.12788351 20.05573395 -3.12788351 20.05573395 -3 23 C-0.03 23 2.94 23 6 23 C4.68 18.71 3.36 14.42 2 10 C1.34 10 0.68 10 0 10 Z " fill="#002459" transform="translate(970,324)"/>
<path d="M0 0 C0.99 0 1.98 0 3 0 C3.01981934 0.6705542 3.03963867 1.3411084 3.06005859 2.03198242 C3.15559715 5.08420161 3.26515945 8.13576341 3.375 11.1875 C3.4059375 12.24259766 3.436875 13.29769531 3.46875 14.38476562 C3.50742188 15.40634766 3.54609375 16.42792969 3.5859375 17.48046875 C3.6173584 18.41785889 3.6487793 19.35524902 3.68115234 20.32104492 C4.02395992 23.20131103 4.73607004 25.3952373 6 28 C8.38828866 29.81180519 9.56768821 30.03163257 12.5625 29.8125 C15.30177974 28.89940675 16.26120386 28.28034298 18 26 C18.50545868 23.29515125 18.50545868 23.29515125 18.51171875 20.23828125 C18.54716797 19.12001953 18.58261719 18.00175781 18.61914062 16.84960938 C18.64169922 15.68236328 18.66425781 14.51511719 18.6875 13.3125 C18.72166016 12.13365234 18.75582031 10.95480469 18.79101562 9.74023438 C18.87357925 6.82691775 18.94270322 3.91390534 19 1 C20.32 0.67 21.64 0.34 23 0 C23.11656783 4.20809884 23.18737611 8.41577996 23.25 12.625 C23.30027344 14.40970703 23.30027344 14.40970703 23.3515625 16.23046875 C23.47413743 27.20092521 23.47413743 27.20092521 19 32 C15.5905957 34.58644464 12.1613551 34.36503115 8 34 C3.77571438 32.17587666 2.0254408 30.07636562 0 26 C-0.34057617 23.0456543 -0.34057617 23.0456543 -0.29296875 19.82421875 C-0.28330078 18.66728516 -0.27363281 17.51035156 -0.26367188 16.31835938 C-0.23853516 15.12017578 -0.21339844 13.92199219 -0.1875 12.6875 C-0.17396484 11.46998047 -0.16042969 10.25246094 -0.14648438 8.99804688 C-0.11119261 5.99824655 -0.06188481 2.99935025 0 0 Z " fill="#002459" transform="translate(1156,325)"/>
<path d="M0 0 C1.39456452 0.00667256 2.78911118 0.01863093 4.18359375 0.03515625 C4.89451172 0.03966797 5.60542969 0.04417969 6.33789062 0.04882812 C8.09899388 0.06064761 9.86005411 0.07858362 11.62109375 0.09765625 C11.62109375 1.08765625 11.62109375 2.07765625 11.62109375 3.09765625 C7.66109375 3.09765625 3.70109375 3.09765625 -0.37890625 3.09765625 C-0.37890625 6.72765625 -0.37890625 10.35765625 -0.37890625 14.09765625 C3.58109375 14.09765625 7.54109375 14.09765625 11.62109375 14.09765625 C11.62109375 15.08765625 11.62109375 16.07765625 11.62109375 17.09765625 C7.66109375 17.09765625 3.70109375 17.09765625 -0.37890625 17.09765625 C-0.37890625 21.38765625 -0.37890625 25.67765625 -0.37890625 30.09765625 C3.58109375 30.09765625 7.54109375 30.09765625 11.62109375 30.09765625 C11.29109375 31.41765625 10.96109375 32.73765625 10.62109375 34.09765625 C8.30865583 34.12451037 5.99613105 34.14398466 3.68359375 34.16015625 C2.39582031 34.17175781 1.10804688 34.18335938 -0.21875 34.1953125 C-3.37890625 34.09765625 -3.37890625 34.09765625 -4.37890625 33.09765625 C-4.47968745 30.73367157 -4.5186384 28.39954314 -4.51171875 26.03515625 C-4.51267548 25.32866943 -4.5136322 24.62218262 -4.51461792 23.89428711 C-4.51529958 22.39794832 -4.5134463 20.90160658 -4.50927734 19.40527344 C-4.50392882 17.10735468 -4.50922276 14.80963139 -4.515625 12.51171875 C-4.51496422 11.06119748 -4.51368305 9.61067634 -4.51171875 8.16015625 C-4.51374298 7.46849365 -4.51576721 6.77683105 -4.51785278 6.06420898 C-4.48850293 0.12972552 -4.48850293 0.12972552 0 0 Z " fill="#002459" transform="translate(761.37890625,324.90234375)"/>
<path d="M0 0 C2.5625 1.3125 2.5625 1.3125 4 3 C4 3.99 4 4.98 4 6 C3.484375 5.855625 2.96875 5.71125 2.4375 5.5625 C-1.31377692 4.69682071 -5.14254404 4 -9 4 C-9 6.64 -9 9.28 -9 12 C-8.24074219 12.38671875 -7.48148438 12.7734375 -6.69921875 13.171875 C-5.70535156 13.69265625 -4.71148438 14.2134375 -3.6875 14.75 C-2.70136719 15.26046875 -1.71523437 15.7709375 -0.69921875 16.296875 C2.00190257 18.00120046 3.40634115 19.25890678 5 22 C5.4375 25.5 5.4375 25.5 5 29 C3.13291495 31.36497439 1.67938569 32.66030715 -1 34 C-6.70991556 34.54903034 -9.49807763 33.51369551 -14 30 C-13.505 28.515 -13.505 28.515 -13 27 C-12.278125 27.309375 -11.55625 27.61875 -10.8125 27.9375 C-7.0001728 29.40886262 -7.0001728 29.40886262 -3 30 C-0.52018248 28.43695474 -0.52018248 28.43695474 1 26 C1.06164874 23.96512534 1.06164874 23.96512534 0 22 C-2.43043286 20.34425596 -2.43043286 20.34425596 -5.375 19 C-9.19170157 17.14703671 -11.92796156 15.79755851 -14 12 C-14.38210947 7.9913243 -13.88505893 4.21695603 -11.5 0.9375 C-7.66047257 -0.50232279 -4.04590707 -0.5567762 0 0 Z " fill="#002459" transform="translate(1059,325)"/>
<path d="M0 0 C2.5625 1.3125 2.5625 1.3125 4 3 C4 3.99 4 4.98 4 6 C3.484375 5.855625 2.96875 5.71125 2.4375 5.5625 C-1.31377692 4.69682071 -5.14254404 4 -9 4 C-9 6.64 -9 9.28 -9 12 C-8.24074219 12.38671875 -7.48148438 12.7734375 -6.69921875 13.171875 C-5.70535156 13.69265625 -4.71148438 14.2134375 -3.6875 14.75 C-2.70136719 15.26046875 -1.71523438 15.7709375 -0.69921875 16.296875 C2.00190257 18.00120046 3.40634115 19.25890678 5 22 C5.4375 25.5 5.4375 25.5 5 29 C3.13291495 31.36497439 1.67938569 32.66030715 -1 34 C-6.70991556 34.54903034 -9.49807763 33.51369551 -14 30 C-13.505 28.515 -13.505 28.515 -13 27 C-12.278125 27.309375 -11.55625 27.61875 -10.8125 27.9375 C-7.0001728 29.40886262 -7.0001728 29.40886262 -3 30 C-0.52018248 28.43695474 -0.52018248 28.43695474 1 26 C1.06164874 23.96512534 1.06164874 23.96512534 0 22 C-2.43043286 20.34425596 -2.43043286 20.34425596 -5.375 19 C-9.19170157 17.14703671 -11.92796156 15.79755851 -14 12 C-14.38210947 7.9913243 -13.88505893 4.21695603 -11.5 0.9375 C-7.66047257 -0.50232279 -4.04590707 -0.5567762 0 0 Z " fill="#002459" transform="translate(801,325)"/>
<path d="M0 0 C2.5625 1.3125 2.5625 1.3125 4 3 C4 3.99 4 4.98 4 6 C3.484375 5.855625 2.96875 5.71125 2.4375 5.5625 C-0.71399755 4.83523133 -3.77738813 4.29838999 -7 4 C-9.41121859 5.95633975 -9.41121859 5.95633975 -9.125 9.625 C-9.08375 10.73875 -9.0425 11.8525 -9 13 C-8.13375 13.2475 -7.2675 13.495 -6.375 13.75 C-1.92540275 15.39799898 1.64341652 17.64341652 5 21 C5.56112224 27.95791583 5.56112224 27.95791583 3.6875 31.4375 C1.13948674 33.79677154 -0.95349703 33.99655534 -4.375 34.25 C-8.2271244 33.98433625 -10.06837503 33.48743937 -13 31 C-13 29.68 -13 28.36 -13 27 C-10.57030867 27.560698 -8.34339311 28.24622759 -6 29.125 C-3.02850538 29.99168593 -1.82462239 30.08639323 1 29 C1.50169415 26.16926564 1.50169415 26.16926564 1 23 C-1.49391561 20.93187486 -4.02896448 19.51064808 -6.88671875 18.0078125 C-11.63722026 15.43835885 -11.63722026 15.43835885 -13.5 13.1875 C-14.4865734 8.8712414 -13.80434867 5.30706659 -11.5 1.5625 C-7.75532322 -0.77792298 -4.30009002 -0.66276617 0 0 Z " fill="#002459" transform="translate(1347,325)"/>
<path d="M0 0 C2.81471844 0.38105394 4.31780161 1.12561901 6.1640625 3.29296875 C6.1640625 4.28296875 6.1640625 5.27296875 6.1640625 6.29296875 C5.6484375 6.14859375 5.1328125 6.00421875 4.6015625 5.85546875 C1.45006495 5.12820008 -1.61332563 4.59135874 -4.8359375 4.29296875 C-7.24715609 6.2493085 -7.24715609 6.2493085 -6.9609375 9.91796875 C-6.9196875 11.03171875 -6.8784375 12.14546875 -6.8359375 13.29296875 C-5.9903125 13.54046875 -5.1446875 13.78796875 -4.2734375 14.04296875 C5.27517361 17.51519097 5.27517361 17.51519097 7.1640625 21.29296875 C7.62496785 28.43700167 7.62496785 28.43700167 5.8515625 31.73046875 C3.30354924 34.08974029 1.21056547 34.28952409 -2.2109375 34.54296875 C-6.0630619 34.277305 -7.90431253 33.78040812 -10.8359375 31.29296875 C-10.8359375 29.97296875 -10.8359375 28.65296875 -10.8359375 27.29296875 C-8.40624617 27.85366675 -6.17933061 28.53919634 -3.8359375 29.41796875 C-0.86444288 30.28465468 0.33944011 30.37936198 3.1640625 29.29296875 C3.66575665 26.46223439 3.66575665 26.46223439 3.1640625 23.29296875 C0.67195727 21.2263449 -1.7965035 19.78148121 -4.72265625 18.40625 C-8.32943955 16.61420044 -9.70772377 15.57503897 -11.3984375 11.85546875 C-11.86102408 8.08869235 -11.72444652 6.53041278 -9.8359375 3.29296875 C-6.89164988 -0.35653746 -4.46072009 -0.15256535 0 0 Z " fill="#002459" transform="translate(830.8359375,324.70703125)"/>
<path d="M0 0 C11.76923077 0 11.76923077 0 15.8125 3.625 C17.55029934 7.10059869 17.74105145 10.25157469 17 14 C15.0625 17.4375 15.0625 17.4375 12 20 C8.90208611 20.78224916 6.22830244 20.90363276 3 21 C3 25.29 3 29.58 3 34 C2.01 33.67 1.02 33.34 0 33 C0 22.11 0 11.22 0 0 Z M3 3 C3 7.95 3 12.9 3 18 C9.66116879 17.6977567 9.66116879 17.6977567 12.5 14.8125 C14.27100949 12.06173167 14.27100949 12.06173167 13.875 8.8125 C13.20708821 5.89700292 13.20708821 5.89700292 11 4 C8.34462628 3.43479997 5.70855287 3.26211802 3 3 Z " fill="#002459" transform="translate(614,325)"/>
<path d="M0 0 C1.39456452 0.00667256 2.78911118 0.01863093 4.18359375 0.03515625 C4.89451172 0.03966797 5.60542969 0.04417969 6.33789062 0.04882812 C8.09899388 0.06064761 9.86005411 0.07858362 11.62109375 0.09765625 C11.62109375 1.08765625 11.62109375 2.07765625 11.62109375 3.09765625 C7.66109375 3.09765625 3.70109375 3.09765625 -0.37890625 3.09765625 C-0.37890625 6.72765625 -0.37890625 10.35765625 -0.37890625 14.09765625 C3.58109375 14.09765625 7.54109375 14.09765625 11.62109375 14.09765625 C11.62109375 15.08765625 11.62109375 16.07765625 11.62109375 17.09765625 C7.66109375 17.09765625 3.70109375 17.09765625 -0.37890625 17.09765625 C-0.37890625 22.37765625 -0.37890625 27.65765625 -0.37890625 33.09765625 C-1.69890625 33.09765625 -3.01890625 33.09765625 -4.37890625 33.09765625 C-4.40356017 28.5586792 -4.42174414 24.01974082 -4.43383789 19.48071289 C-4.43887765 17.93545859 -4.44570945 16.39020909 -4.4543457 14.8449707 C-4.46642701 12.62840596 -4.47213798 10.41190407 -4.4765625 8.1953125 C-4.48172379 7.50051285 -4.48688507 6.8057132 -4.49220276 6.08985901 C-4.49239902 4.42536295 -4.44079754 2.76100126 -4.37890625 1.09765625 C-3.37890625 0.09765625 -3.37890625 0.09765625 0 0 Z " fill="#002459" transform="translate(730.37890625,324.90234375)"/>
<path d="M0 0 C5.94 0 11.88 0 18 0 C18.33 0.99 18.66 1.98 19 3 C16.36 3 13.72 3 11 3 C11 12.9 11 22.8 11 33 C9.68 33 8.36 33 7 33 C7 23.1 7 13.2 7 3 C4.36 3 1.72 3 -1 3 C-0.67 2.01 -0.34 1.02 0 0 Z " fill="#002459" transform="translate(1193,325)"/>
<path d="M0 0 C4.95 0 9.9 0 15 0 C15.33 0.99 15.66 1.98 16 3 C11.71 3 7.42 3 3 3 C3 6.63 3 10.26 3 14 C7.29 14 11.58 14 16 14 C16 14.99 16 15.98 16 17 C11.71 17 7.42 17 3 17 C3 22.61 3 28.22 3 34 C2.01 33.67 1.02 33.34 0 33 C0 22.11 0 11.22 0 0 Z " fill="#002459" transform="translate(1389,325)"/>
<path d="M0 0 C0.99 0 1.98 0 3 0 C3 9.9 3 19.8 3 30 C7.29 30 11.58 30 16 30 C16 31.32 16 32.64 16 34 C13.52076199 34.02685095 11.0418116 34.04676547 8.5625 34.0625 C7.85544922 34.07087891 7.14839844 34.07925781 6.41992188 34.08789062 C4.61306441 34.09653588 2.80612397 34.05220011 1 34 C0 33 0 33 -0.11352539 29.85717773 C-0.11336633 28.46597303 -0.10767506 27.07476239 -0.09765625 25.68359375 C-0.0962413 24.95253922 -0.09482635 24.22148468 -0.09336853 23.46827698 C-0.08775408 21.12464368 -0.07519922 18.78110461 -0.0625 16.4375 C-0.05748686 14.85221492 -0.05292363 13.26692834 -0.04882812 11.68164062 C-0.03777997 7.7877239 -0.02050572 3.89387795 0 0 Z " fill="#002459" transform="translate(1127,325)"/>
<path d="M0 0 C0.99 0 1.98 0 3 0 C3 9.9 3 19.8 3 30 C7.29 30 11.58 30 16 30 C15.67 31.32 15.34 32.64 15 34 C10.05 34 5.1 34 0 34 C0 22.78 0 11.56 0 0 Z " fill="#002459" transform="translate(997,325)"/>
<path d="M0 0 C0.99 0 1.98 0 3 0 C3 11.22 3 22.44 3 34 C2.01 33.67 1.02 33.34 0 33 C0 22.11 0 11.22 0 0 Z " fill="#002459" transform="translate(1420,325)"/>
<path d="M0 0 C0.99 0 1.98 0 3 0 C3 10.89 3 21.78 3 33 C1.515 33.495 1.515 33.495 0 34 C0 22.78 0 11.56 0 0 Z " fill="#002459" transform="translate(1226,325)"/>
<path d="M0 0 C0.99 0 1.98 0 3 0 C3 10.89 3 21.78 3 33 C1.515 33.495 1.515 33.495 0 34 C0 22.78 0 11.56 0 0 Z " fill="#002459" transform="translate(854,325)"/>
</svg>
