<?xml version="1.0" standalone="no"?>
<!DOCTYPE svg PUBLIC "-//W3C//DTD SVG 20010904//EN"
 "http://www.w3.org/TR/2001/REC-SVG-20010904/DTD/svg10.dtd">
<svg version="1.0" xmlns="http://www.w3.org/2000/svg"
 width="1582.000000pt" height="376.000000pt" viewBox="0 0 1582.000000 376.000000"
 preserveAspectRatio="xMidYMid meet">

<g transform="translate(0.000000,376.000000) scale(0.100000,-0.100000)"
fill="#000000" stroke="none">
<path d="M260 3125 l0 -625 35 0 35 0 2 588 3 587 1828 3 1827 2 0 -750 0
-750 40 0 40 0 0 785 0 785 -1905 0 -1905 0 0 -625z"/>
<path d="M400 3055 c0 -363 3 -555 10 -555 7 0 10 188 10 545 l0 545 1735 0
1735 0 0 -694 c0 -453 3 -697 10 -701 7 -4 10 233 10 704 l0 711 -1755 0
-1755 0 0 -555z"/>
<path d="M6877 2760 c-342 -42 -618 -290 -698 -628 -18 -72 -20 -109 -17 -217
4 -113 9 -143 37 -225 46 -136 99 -220 205 -325 102 -101 193 -158 321 -201
96 -32 288 -44 401 -25 142 25 353 133 382 195 19 42 17 534 -3 562 -28 41
-57 44 -340 42 l-270 -3 -3 -112 -3 -113 198 -2 198 -3 3 -127 3 -127 -49 -25
c-94 -47 -166 -66 -258 -66 -168 0 -301 56 -425 180 -231 230 -227 583 10 821
120 120 238 170 408 170 107 1 177 -17 276 -68 37 -20 69 -34 71 -32 2 2 32
44 65 94 71 104 76 92 -54 156 -138 68 -308 97 -458 79z"/>
<path d="M8348 2760 c-296 -36 -550 -233 -662 -514 -82 -203 -71 -466 25 -659
114 -227 306 -381 548 -439 123 -29 321 -22 436 16 95 31 209 93 259 140 l36
33 0 271 0 271 -24 28 -24 28 -286 3 -286 3 0 -116 0 -115 195 0 195 0 0 -130
0 -130 -57 -29 c-89 -44 -157 -61 -252 -61 -164 0 -301 59 -421 179 -231 233
-227 584 10 821 122 123 238 171 410 171 110 0 215 -28 299 -80 28 -17 53 -31
55 -31 2 0 32 41 67 92 l62 91 -24 20 c-41 34 -180 96 -259 116 -93 23 -214
32 -302 21z"/>
<path d="M5490 2636 l0 -115 148 -3 147 -3 0 -460 0 -460 -24 -53 c-44 -97
-173 -187 -284 -198 -106 -11 -98 0 -95 -122 l3 -107 61 -3 c133 -6 287 55
398 158 74 70 116 131 148 216 23 59 23 62 23 631 l0 573 -28 27 -27 28 -235
3 -235 3 0 -115z"/>
<path d="M10275 2701 c-364 -89 -624 -446 -590 -811 33 -357 276 -634 618
-707 111 -23 289 -14 392 21 93 32 177 75 228 117 l37 30 0 259 0 260 -24 15
c-19 13 -60 15 -257 13 l-234 -3 -3 -72 -3 -73 186 0 185 0 0 -166 0 -165 -82
-38 c-107 -50 -174 -65 -273 -65 -236 2 -458 144 -563 360 -46 94 -57 148 -56
274 0 103 4 124 31 196 140 373 534 535 877 362 32 -16 62 -26 65 -21 3 5 21
30 39 56 40 58 38 62 -56 105 -155 72 -358 92 -517 53z"/>
<path d="M12675 2701 c-197 -48 -381 -185 -484 -358 -269 -456 -9 -1049 507
-1158 86 -19 238 -19 324 0 337 71 582 354 614 707 12 141 -30 321 -107 450
-104 177 -296 317 -496 362 -95 21 -266 20 -358 -3z m357 -147 c142 -42 291
-159 366 -286 210 -356 38 -794 -363 -925 -162 -52 -359 -27 -501 65 -139 91
-253 256 -290 418 -72 325 165 676 498 740 85 16 213 10 290 -12z"/>
<path d="M11193 2689 c-10 -10 -13 -177 -13 -766 l0 -753 75 0 75 0 2 296 3
297 273 -300 273 -300 72 4 c40 3 75 5 79 6 5 1 -104 135 -241 297 -137 162
-247 298 -245 301 2 4 19 10 38 13 59 11 174 75 225 125 94 92 138 221 128
379 -11 195 -105 321 -284 382 -59 21 -92 24 -258 28 -146 3 -193 1 -202 -9z
m321 -139 c128 -19 207 -71 252 -165 32 -67 33 -189 4 -269 -24 -63 -96 -137
-166 -167 -56 -25 -165 -49 -226 -49 l-48 0 0 330 0 330 58 0 c31 0 88 -5 126
-10z"/>
<path d="M15072 2688 c-9 -9 -12 -193 -12 -765 l0 -753 75 0 75 0 0 289 0 288
79 7 c356 29 547 224 528 536 -7 106 -28 177 -70 232 -67 87 -160 137 -307
164 -96 17 -351 19 -368 2z m338 -142 c96 -17 138 -35 188 -81 55 -49 77 -109
77 -210 0 -109 -24 -175 -87 -238 -72 -71 -156 -104 -320 -123 l-58 -6 0 336
0 336 63 0 c34 -1 96 -7 137 -14z"/>
<path d="M13800 2178 c0 -295 4 -541 10 -578 6 -38 27 -98 50 -146 65 -134
175 -226 319 -268 66 -19 198 -21 266 -2 163 43 294 164 354 329 l26 72 0 550
0 550 -72 3 -72 3 -3 -548 -3 -548 -31 -65 c-37 -78 -95 -140 -166 -177 -48
-25 -62 -28 -158 -28 -95 0 -110 3 -157 27 -68 36 -114 77 -152 136 -59 93
-61 113 -61 684 l0 518 -75 0 -75 0 0 -512z"/>
<path d="M1565 2436 c-466 -90 -796 -507 -772 -976 7 -137 37 -251 97 -375
206 -423 687 -627 1140 -483 131 42 302 145 321 195 6 16 9 143 7 326 l-3 299
-28 24 -28 24 -300 0 -299 0 0 -110 0 -110 215 0 215 0 0 -179 0 -178 -89 -41
c-128 -60 -202 -75 -336 -69 -163 7 -302 61 -431 167 -231 189 -318 500 -219
783 56 163 201 336 340 409 121 63 203 83 340 83 141 0 210 -16 328 -75 44
-22 81 -40 82 -40 2 0 31 39 64 88 57 81 60 88 44 101 -38 29 -202 101 -278
121 -102 28 -307 36 -410 16z"/>
<path d="M2971 2439 c-86 -15 -230 -67 -306 -111 -242 -142 -403 -363 -460
-631 -23 -107 -25 -103 50 -109 37 -3 82 -15 105 -27 51 -26 50 -26 50 6 0 52
32 159 75 248 73 150 189 270 330 339 112 56 182 71 330 71 156 0 230 -20 343
-90 41 -25 77 -45 81 -45 15 0 153 149 147 158 -13 21 -153 102 -231 133 -155
61 -355 84 -514 58z"/>
<path d="M20 2320 l0 -110 225 0 225 0 0 -553 c0 -615 1 -607 -66 -704 -70
-101 -200 -177 -329 -191 l-60 -7 -3 -114 -3 -113 68 7 c292 29 521 208 597
464 14 48 16 136 16 715 -1 504 -4 665 -13 677 -28 37 -50 39 -356 39 l-301 0
0 -110z"/>
<path d="M4020 1863 l0 -127 65 64 65 64 -62 63 c-34 35 -64 63 -65 63 -2 0
-3 -57 -3 -127z"/>
<path d="M3890 860 l0 -680 -1735 0 -1735 0 0 139 c0 83 -4 142 -10 146 -7 4
-10 -48 -10 -149 l0 -156 1755 0 1755 0 0 690 c0 453 -3 690 -10 690 -7 0 -10
-233 -10 -680z"/>
<path d="M3990 815 l0 -725 -1830 0 -1830 0 0 186 c0 166 -2 185 -16 180 -9
-3 -24 -6 -35 -6 -18 0 -19 -10 -19 -220 l0 -220 1905 0 1905 0 0 765 0 765
-40 0 -40 0 0 -725z"/>
<path d="M3070 1360 l0 -110 228 -2 227 -3 3 -173 2 -173 -92 -44 c-133 -64
-199 -78 -333 -73 -129 6 -229 35 -338 99 -87 52 -195 154 -247 232 l-39 60
-3 -178 -3 -178 57 -48 c258 -214 631 -273 947 -148 85 34 203 104 244 145
l27 27 0 312 0 313 -31 26 -31 26 -309 0 -309 0 0 -110z"/>
<path d="M6157 504 c-11 -11 -9 -324 3 -324 6 0 10 27 10 60 l0 60 42 7 c60 9
98 49 98 103 0 45 -34 90 -68 90 -11 0 -32 3 -48 6 -16 3 -32 2 -37 -2z m108
-49 c14 -13 25 -34 25 -45 0 -33 -53 -80 -89 -80 l-31 0 0 75 0 75 35 0 c25 0
44 -8 60 -25z"/>
<path d="M6477 503 c-4 -3 -7 -78 -7 -165 0 -123 3 -159 13 -156 7 3 14 29 17
63 l5 58 57 -61 c50 -55 78 -75 78 -56 0 4 -23 33 -51 65 -36 42 -46 59 -34
59 9 0 30 13 46 29 33 34 40 91 14 128 -21 31 -119 56 -138 36z m108 -48 c14
-13 25 -34 25 -45 0 -30 -53 -80 -84 -80 -26 0 -26 1 -26 75 l0 75 30 0 c19 0
40 -9 55 -25z"/>
<path d="M6875 496 c-37 -16 -82 -67 -91 -102 -11 -42 2 -120 24 -151 29 -40
79 -63 140 -63 85 0 152 62 159 147 11 126 -117 219 -232 169z m107 -16 c46
-13 93 -66 102 -114 21 -110 -115 -205 -211 -146 -99 60 -93 198 11 250 47 23
49 23 98 10z"/>
<path d="M7275 498 c-3 -8 -4 -81 -3 -163 2 -108 6 -149 16 -153 9 -3 12 17
12 77 l0 80 57 3 c81 4 85 28 4 28 l-61 0 0 55 0 55 61 0 c44 0 60 3 57 13 -7
18 -137 22 -143 5z"/>
<path d="M7585 498 c-3 -8 -4 -81 -3 -163 l3 -150 73 -3 c45 -2 72 1 72 8 0 6
-25 10 -60 10 l-60 0 0 70 0 69 57 3 c81 4 85 28 4 28 l-61 0 0 55 0 55 61 0
c44 0 60 3 57 13 -7 18 -137 22 -143 5z"/>
<path d="M7912 490 c-12 -11 -25 -32 -28 -47 -12 -46 7 -74 74 -111 77 -42 92
-64 65 -101 -24 -31 -65 -38 -98 -17 -30 20 -46 20 -39 2 7 -19 49 -36 90 -36
63 0 103 65 74 121 -6 10 -38 33 -71 49 -35 18 -63 40 -68 53 -24 64 56 108
110 61 20 -18 29 -18 29 1 0 19 -51 45 -88 45 -15 0 -38 -9 -50 -20z"/>
<path d="M8234 486 c-21 -17 -28 -33 -28 -59 0 -45 23 -71 91 -103 57 -27 73
-56 54 -93 -16 -30 -57 -37 -98 -17 -43 20 -57 12 -24 -15 34 -28 101 -26 129
4 27 29 30 87 5 109 -10 9 -42 28 -70 42 -37 18 -55 34 -59 52 -16 62 45 103
97 65 33 -25 39 -26 39 -7 0 22 -40 46 -77 46 -19 0 -43 -9 -59 -24z"/>
<path d="M8550 346 c0 -104 4 -166 10 -166 6 0 10 60 10 159 0 96 -4 162 -10
166 -7 4 -10 -52 -10 -159z"/>
<path d="M8835 496 c-67 -29 -112 -117 -96 -187 19 -83 77 -129 163 -129 69 0
114 28 146 90 71 137 -72 288 -213 226z m145 -35 c60 -44 82 -137 43 -189 -69
-94 -186 -94 -243 0 -76 124 83 274 200 189z"/>
<path d="M9232 348 c4 -199 21 -221 28 -34 l5 129 92 -138 c60 -91 94 -134 98
-124 3 8 4 83 3 167 -4 194 -22 210 -26 22 l-3 -134 -89 134 c-50 74 -95 137
-100 138 -7 3 -10 -51 -8 -160z"/>
<path d="M9705 498 c-20 -56 -95 -298 -95 -307 0 -26 20 -8 31 29 l12 40 63 0
63 0 12 -40 c12 -38 29 -54 29 -27 1 23 -95 317 -103 317 -4 0 -10 -6 -12 -12z
m35 -115 c11 -38 23 -76 26 -85 5 -16 -2 -18 -45 -18 -34 0 -51 4 -51 13 0 15
42 157 46 157 2 0 13 -30 24 -67z"/>
<path d="M9980 346 l0 -166 75 0 c43 0 75 4 75 10 0 6 -28 10 -65 10 l-65 0 0
149 c0 89 -4 152 -10 156 -7 4 -10 -52 -10 -159z"/>
<path d="M10492 490 c-12 -11 -25 -32 -28 -47 -12 -46 7 -74 74 -111 77 -42
92 -64 65 -101 -24 -31 -65 -38 -98 -17 -30 20 -46 20 -39 2 7 -19 49 -36 90
-36 63 0 103 65 74 121 -6 10 -38 33 -71 49 -35 18 -63 40 -68 53 -24 64 56
108 110 61 20 -18 29 -18 29 1 0 19 -51 45 -88 45 -15 0 -38 -9 -50 -20z"/>
<path d="M10865 488 c-144 -83 -88 -308 77 -308 103 0 160 53 166 155 3 50 0
65 -20 94 -36 53 -71 74 -130 78 -42 3 -62 -1 -93 -19z m142 -17 c76 -35 106
-134 60 -202 -51 -77 -149 -90 -213 -28 -62 60 -65 146 -6 203 49 46 97 55
159 27z"/>
<path d="M11288 504 c-5 -4 -8 -79 -8 -166 l0 -158 75 0 c91 0 101 18 13 22
l-63 3 -5 153 c-3 85 -8 150 -12 146z"/>
<path d="M11578 504 c-5 -4 -8 -62 -8 -128 0 -98 3 -126 17 -146 27 -40 45
-49 94 -50 37 0 52 5 72 26 33 33 39 63 35 194 -4 151 -22 133 -28 -28 -5
-126 -6 -135 -29 -153 -40 -32 -98 -21 -123 24 -8 13 -15 74 -18 145 -3 68 -8
120 -12 116z"/>
<path d="M11937 504 c-13 -13 5 -24 38 -24 l34 0 3 -147 c4 -197 22 -197 26
-1 l3 147 34 3 c20 2 35 8 35 13 0 11 -162 20 -173 9z"/>
<path d="M12270 346 c0 -104 4 -166 10 -166 6 0 10 60 10 159 0 96 -4 162 -10
166 -7 4 -10 -52 -10 -159z"/>
<path d="M12543 489 c-112 -55 -119 -215 -13 -286 46 -32 134 -32 181 0 106
70 97 232 -15 286 -54 27 -100 27 -153 0z m155 -25 c64 -42 83 -147 36 -204
-15 -17 -39 -37 -55 -45 -88 -46 -199 27 -199 130 0 108 127 177 218 119z"/>
<path d="M12950 346 c0 -204 18 -228 22 -29 l3 136 94 -142 c53 -79 98 -138
103 -133 5 5 7 79 6 165 -4 198 -22 218 -26 27 l-3 -134 -89 134 c-50 74 -94
136 -100 138 -6 2 -10 -56 -10 -162z"/>
<path d="M13376 488 c-39 -35 -43 -78 -12 -116 15 -17 42 -36 60 -42 18 -6 44
-22 56 -35 20 -21 22 -30 14 -52 -14 -40 -54 -51 -100 -29 -44 20 -58 12 -25
-15 34 -28 101 -26 129 4 27 28 30 88 6 108 -9 8 -42 28 -73 44 -47 25 -56 35
-59 60 -2 17 3 39 11 49 18 24 70 26 95 3 23 -21 32 -21 32 -3 0 44 -93 60
-134 24z"/>
<path d="M13907 504 c-11 -12 -8 -324 3 -324 6 0 10 33 10 80 l0 79 63 3 c34
2 62 8 62 13 0 6 -28 11 -62 13 l-63 3 0 54 0 54 63 3 c34 2 62 8 62 13 0 11
-127 19 -138 9z"/>
<path d="M14217 503 c-11 -11 -8 -323 3 -323 6 0 10 62 10 165 0 91 -1 165 -3
165 -2 0 -7 -3 -10 -7z"/>
<path d="M14427 503 c-11 -11 -8 -323 3 -323 6 0 10 29 10 68 l1 67 64 -67
c58 -61 85 -80 85 -62 0 4 -23 33 -51 65 -36 42 -46 59 -34 59 9 0 30 13 46
29 33 34 40 91 14 128 -21 31 -119 56 -138 36z m108 -48 c14 -13 25 -33 25
-44 0 -31 -41 -71 -82 -80 l-38 -9 0 79 0 79 35 0 c25 0 44 -8 60 -25z"/>
<path d="M14750 344 c0 -128 3 -165 13 -162 8 3 14 40 17 118 l5 114 49 -109
c27 -61 55 -116 61 -123 9 -10 23 14 65 105 29 65 57 122 62 127 4 6 8 -45 8
-112 0 -75 4 -122 10 -122 6 0 10 62 10 165 0 91 -4 165 -8 165 -5 0 -37 -63
-72 -140 -34 -77 -66 -140 -69 -140 -3 1 -35 64 -70 140 -35 77 -68 140 -72
140 -5 0 -9 -75 -9 -166z"/>
</g>
</svg>
